<?xml version="1.0" encoding="utf-8"?>
<!-- Generator: Adobe Illustrator 16.0.0, SVG Export Plug-In . SVG Version: 6.00 Build 0)  -->
<!DOCTYPE svg PUBLIC "-//W3C//DTD SVG 1.1//EN" "http://www.w3.org/Graphics/SVG/1.1/DTD/svg11.dtd">
<svg version="1.1" id="Layer_1" xmlns="http://www.w3.org/2000/svg" xmlns:xlink="http://www.w3.org/1999/xlink" x="0px" y="0px"
	 width="500px" height="500px" viewBox="0 0 500 500" enable-background="new 0 0 500 500" xml:space="preserve">
<g>
	<path opacity="0.24" fill="#3E4147" d="M122.611,208.395l-56.203,25.739c-3.419,1.559-3.428,6.412-0.015,7.985l115.856,53.365
		c3.979,1.832,8.558,1.841,12.542,0.023l53.493-24.503c3.547-1.617,3.556-6.653,0.015-8.283L130.39,208.409
		C127.922,207.272,125.083,207.267,122.611,208.395z"/>
	<path fill="#887E7D" d="M132.812,213.405l-57.38,21.338c-3.419,1.56-2.25,10.814,1.163,12.386l115.856,53.366
		c3.978,1.833,8.557,1.841,12.542,0.022l53.493-24.503c3.547-1.617,5.013-9.71,1.473-11.342l-119.368-51.253
		C138.124,212.282,135.284,212.277,132.812,213.405z"/>
	<path fill="#DECDCC" d="M132.812,212.567l-57.38,21.339c-3.419,1.559-2.25,10.812,1.163,12.386l115.856,53.364
		c3.978,1.833,8.557,1.843,12.542,0.023l53.493-24.502c3.547-1.618,5.013-9.711,1.473-11.342l-119.368-51.253
		C138.124,211.446,135.284,211.441,132.812,212.567z"/>
	<path fill="#C9BAB9" d="M198.461,298.264c-0.297-2.376,2.884-2.759,4.753-3.862L75.432,233.907l0,0
		c-0.321,0.146-0.602,0.359-0.843,0.628c-0.161,0.179-0.305,0.383-0.433,0.607c-0.126,0.224-0.239,0.469-0.333,0.73
		c-0.049,0.131-0.092,0.267-0.132,0.406c-0.198,0.694-0.299,1.481-0.312,2.307c-0.003,0.329,0.005,0.664,0.028,1.002
		c0.023,0.337,0.06,0.676,0.109,1.013c0.174,1.18,0.507,2.338,0.977,3.312c0.134,0.278,0.278,0.542,0.434,0.786
		c0.156,0.245,0.322,0.471,0.498,0.674c0.176,0.203,0.362,0.384,0.557,0.539c0.195,0.155,0.4,0.283,0.613,0.382l115.856,53.364
		c3.19,1.47,6.766,1.765,10.113,0.887C200.579,300.568,198.708,300.229,198.461,298.264z"/>
	<path fill="#F7EBE2" d="M132.812,206.623l-56.204,25.739c-3.418,1.56-3.427,6.413-0.014,7.985l115.856,53.366
		c3.978,1.832,8.557,1.841,12.542,0.023l53.493-24.504c3.547-1.617,3.556-6.652,0.016-8.283l-117.911-54.312
		C138.124,205.501,135.284,205.496,132.812,206.623z"/>
	<path fill="#FFFFFF" d="M212.234,287.827c0,0,2.311-1.168,5.808-2.849c1.755-0.829,3.789-1.826,5.991-2.84
		c2.203-1.018,4.55-2.104,6.897-3.189c2.36-1.061,4.719-2.12,6.932-3.115c2.212-0.993,4.294-1.881,6.072-2.661
		c1.784-0.762,3.272-1.396,4.314-1.84c1.045-0.435,1.644-0.682,1.644-0.682c0.14-0.059,0.301,0.009,0.358,0.147
		c0.056,0.134-0.004,0.287-0.131,0.351c0,0-0.58,0.289-1.593,0.795c-1.018,0.495-2.473,1.202-4.218,2.052
		c-1.753,0.83-3.79,1.819-5.99,2.84c-2.201,1.02-4.549,2.105-6.897,3.192c-2.358,1.061-4.718,2.121-6.929,3.116
		c-2.21,0.999-4.295,1.881-6.071,2.662c-3.562,1.541-5.96,2.52-5.96,2.52c-0.14,0.058-0.3-0.011-0.357-0.151
		C212.049,288.042,212.107,287.892,212.234,287.827z"/>
	<path fill="#FFFFFF" d="M219.86,287.915c0,0,1.676-0.833,4.207-2.049c1.269-0.6,2.75-1.299,4.336-2.048
		c1.593-0.734,3.291-1.519,4.99-2.305c1.707-0.768,3.412-1.535,5.012-2.256c1.604-0.705,3.103-1.365,4.389-1.931
		c1.29-0.552,2.365-1.012,3.118-1.333c0.754-0.32,1.185-0.504,1.185-0.504c0.091-0.038,0.195,0.005,0.234,0.096
		c0.037,0.087-0.002,0.188-0.085,0.229c0,0-0.421,0.206-1.156,0.565c-0.737,0.357-1.79,0.868-3.053,1.481
		c-1.268,0.599-2.749,1.299-4.335,2.048c-1.592,0.735-3.291,1.52-4.989,2.306c-1.707,0.768-3.412,1.536-5.012,2.257
		c-1.605,0.706-3.103,1.366-4.388,1.932c-2.576,1.115-4.305,1.834-4.305,1.834c-0.091,0.038-0.195-0.005-0.232-0.096
		C219.739,288.056,219.776,287.955,219.86,287.915z"/>
	<path fill="#81AFC5" d="M144.813,212.528l-58.757,26.904c-0.5,0.228-0.502,0.938-0.002,1.169l96.571,44.482
		c0.527,0.241,1.132,0.244,1.661,0.003l58.354-26.722c0.577-0.263,0.578-1.081,0.003-1.345l-96.585-44.489
		C145.664,212.348,145.208,212.347,144.813,212.528z"/>
	
		<line fill="none" stroke="#6A6160" stroke-width="1.2713" stroke-linecap="round" stroke-linejoin="round" stroke-miterlimit="10" x1="117.747" y1="219.908" x2="105.681" y2="225.432"/>
	<g opacity="0.11">
		<path fill="#FFFFFF" d="M242.644,257.02l-96.585-44.489c-0.395-0.182-0.85-0.183-1.245-0.002l-18.03,8.327l64.724,60.937
			l51.134-23.428C243.217,258.102,243.219,257.283,242.644,257.02z"/>
	</g>
	<path fill="none" stroke="#6A6160" stroke-width="0.9722" stroke-miterlimit="10" d="M144.813,212.528l-58.757,26.904
		c-0.5,0.228-0.502,0.938-0.002,1.169l96.571,44.482c0.527,0.241,1.132,0.244,1.661,0.003l58.354-26.722
		c0.577-0.263,0.578-1.081,0.003-1.345l-96.585-44.489C145.664,212.348,145.208,212.347,144.813,212.528z"/>
	<path fill="none" stroke="#A39B94" stroke-width="1.1218" stroke-miterlimit="10" d="M132.812,206.623l-56.204,25.739
		c-3.418,1.56-3.427,6.413-0.014,7.985l115.856,53.366c3.978,1.832,8.557,1.841,12.542,0.023l53.493-24.504
		c3.547-1.617,3.556-6.652,0.016-8.283l-117.911-54.312C138.124,205.501,135.284,205.496,132.812,206.623z"/>
	<g>
		<path fill="#CDB9B6" d="M229.337,274.551c0.11,0.261,0.174,0.53,0.174,0.807c0,1.943-2.877,3.585-6.282,3.585
			c-2.779,0-5.207-1.096-6.004-2.555l-0.968-0.13c0.653,2.03,3.481,3.516,6.972,3.516c3.989,0,7.113-1.939,7.113-4.416
			c0-0.441-0.103-0.863-0.288-1.263L229.337,274.551z"/>
		<path fill="#FFFFFF" d="M229.337,274.551l0.718-0.456c-0.41-0.885-1.242-1.645-2.36-2.197l-0.862,0.548
			C228.063,272.948,228.977,273.695,229.337,274.551z"/>
		<path fill="#FFFFFF" d="M216.948,275.357c0-0.78,0.47-1.512,1.246-2.107l-1.104-0.148c-0.617,0.657-0.975,1.425-0.975,2.256
			c0,0.309,0.049,0.611,0.142,0.9l0.968,0.13C217.047,276.06,216.948,275.713,216.948,275.357z"/>
		<path fill="#CDB9B6" d="M223.229,271.772c1.329,0,2.574,0.252,3.603,0.673l0.862-0.548c-1.214-0.601-2.759-0.957-4.465-0.957
			c-2.652,0-4.915,0.859-6.139,2.161l1.104,0.148C219.35,272.361,221.193,271.772,223.229,271.772z"/>
	</g>
	<g opacity="0.81">
		<path fill="#B5A5A2" d="M223.229,270.94c1.706,0,3.251,0.356,4.465,0.957c1.118,0.553,1.949,1.312,2.36,2.197
			c0.185,0.399,0.288,0.821,0.288,1.263c0,2.477-3.124,4.416-7.113,4.416c-3.491,0-6.319-1.485-6.972-3.516
			c-0.093-0.289-0.142-0.592-0.142-0.9c0-0.831,0.357-1.599,0.975-2.256C218.314,271.8,220.578,270.94,223.229,270.94
			 M223.229,270.495c-2.692,0-5.108,0.86-6.463,2.303c-0.717,0.762-1.095,1.647-1.095,2.56c0,0.35,0.055,0.699,0.163,1.036
			c0.725,2.252,3.765,3.825,7.396,3.825c4.238,0,7.559-2.135,7.559-4.861c0-0.492-0.111-0.979-0.33-1.451
			c-0.45-0.967-1.337-1.799-2.566-2.408C226.564,270.842,224.952,270.495,223.229,270.495L223.229,270.495z"/>
	</g>
	<g>
		<path fill="#554E4E" d="M102.937,227.027c-0.078-0.167-0.235-0.311-0.445-0.415c-0.229-0.113-0.521-0.18-0.843-0.18
			c-0.501,0-0.928,0.162-1.159,0.408c-0.118,0.124-0.184,0.269-0.184,0.426c0,0.058,0.009,0.115,0.026,0.169
			c0.123,0.384,0.658,0.664,1.316,0.664c0.753,0,1.343-0.366,1.343-0.833C102.992,227.182,102.972,227.103,102.937,227.027z"/>
	</g>
	<g>
		<path fill="#554E4E" d="M110.069,220.562c-0.051-0.11-0.154-0.204-0.292-0.272c-0.151-0.074-0.341-0.118-0.553-0.118
			c-0.329,0-0.609,0.106-0.761,0.267c-0.076,0.082-0.121,0.177-0.121,0.279c0,0.04,0.005,0.076,0.019,0.112
			c0.08,0.251,0.43,0.436,0.863,0.436c0.494,0,0.88-0.24,0.88-0.548C110.104,220.664,110.091,220.611,110.069,220.562z"/>
	</g>
	<path fill="#6A6160" d="M227.245,286.364v1.515c0,0.243,0.251,0.405,0.472,0.303l7.307-3.384c0.119-0.055,0.196-0.174,0.196-0.304
		v-1.482c0-0.24-0.248-0.402-0.469-0.306l-7.205,3.196C227.362,285.982,227.245,286.165,227.245,286.364z"/>
	<g>
		<path fill="#FFFFFF" d="M234.779,282.701c0.006,0.023,0.018,0.044,0.018,0.068v1.482c0,0.131-0.076,0.249-0.194,0.304
			l-7.308,3.385c-0.011,0.005-0.022,0.002-0.034,0.006c0.043,0.201,0.258,0.327,0.455,0.235l7.307-3.384
			c0.119-0.055,0.196-0.174,0.196-0.304v-1.482C235.219,282.782,234.992,282.629,234.779,282.701z"/>
	</g>
	<path fill="#6A6160" d="M210.933,294.382c0,1.085-0.62,2.195-1.385,2.479c-0.763,0.285-1.383-0.363-1.383-1.447
		c0-1.085,0.62-2.195,1.383-2.481C210.313,292.648,210.933,293.298,210.933,294.382z"/>
	<path fill="#6A6160" d="M214.93,292.826c0,0.607-0.347,1.231-0.776,1.392c-0.429,0.159-0.777-0.205-0.777-0.813
		c0-0.607,0.348-1.231,0.777-1.393C214.583,291.852,214.93,292.218,214.93,292.826z"/>
	<path fill="#6A6160" d="M247.68,277.898c0,0.608-0.348,1.233-0.777,1.393c-0.428,0.159-0.776-0.205-0.776-0.813
		c0-0.609,0.348-1.231,0.776-1.392C247.332,276.926,247.68,277.29,247.68,277.898z"/>
	<path fill="#6A6160" d="M250.651,276.562c0,0.609-0.348,1.231-0.777,1.392c-0.428,0.16-0.776-0.203-0.776-0.812
		c0-0.609,0.348-1.232,0.776-1.393C250.303,275.59,250.651,275.953,250.651,276.562z"/>
	<path fill="#6A6160" d="M253.621,275.226c0,0.608-0.348,1.231-0.777,1.392c-0.429,0.16-0.776-0.204-0.776-0.812
		c0-0.609,0.348-1.232,0.776-1.392C253.273,274.253,253.621,274.616,253.621,275.226z"/>
	<path fill="#6A6160" d="M256.591,273.889c0,0.608-0.347,1.231-0.776,1.392c-0.429,0.16-0.776-0.203-0.776-0.812
		s0.348-1.232,0.776-1.392C256.244,272.916,256.591,273.28,256.591,273.889z"/>
	<g opacity="0.24">
		<path fill="#554E4E" d="M259.056,272.926l-53.887,24.685c-4.015,1.831-8.626,1.821-12.634-0.023L75.826,243.828
			c-0.901-0.415-1.645-1.363-2.192-2.562c0.456,2.278,1.502,4.355,2.961,5.027l115.856,53.364c3.978,1.833,8.557,1.843,12.542,0.023
			l53.493-24.502c1.796-0.819,3.056-3.297,3.405-5.758C261.28,271.012,260.293,272.361,259.056,272.926z"/>
	</g>
	<path fill="#C5B4B3" d="M97.117,252.818v1.392c0,0.396,0.23,0.757,0.589,0.922l8.95,4.121c0.495,0.229,1.06-0.133,1.06-0.677
		v-1.563c0-0.291-0.17-0.556-0.435-0.678l-9.104-4.194C97.681,251.914,97.117,252.274,97.117,252.818z"/>
	<g opacity="0.4">
		<path fill="#F7EBE2" d="M107.28,256.335l-9.104-4.194c-0.495-0.227-1.059,0.134-1.059,0.678v0.355l10.598,4.882v-1.043
			C107.715,256.722,107.545,256.457,107.28,256.335z"/>
	</g>
	<path fill="none" stroke="#7B7170" stroke-width="0.3739" stroke-miterlimit="10" d="M97.117,252.818v1.392
		c0,0.396,0.23,0.757,0.589,0.922l8.95,4.121c0.495,0.229,1.06-0.133,1.06-0.677v-1.563c0-0.291-0.17-0.556-0.435-0.678
		l-9.104-4.194C97.681,251.914,97.117,252.274,97.117,252.818z"/>
	<path fill="#C5B4B3" d="M109.147,258.422v1.39c0,0.396,0.23,0.757,0.59,0.922l8.948,4.123c0.495,0.229,1.06-0.134,1.06-0.679
		v-1.562c0-0.291-0.169-0.556-0.435-0.677l-9.104-4.194C109.712,257.516,109.147,257.877,109.147,258.422z"/>
	<g opacity="0.41">
		<path fill="#F7EBE2" d="M119.311,261.938l-9.104-4.194c-0.494-0.229-1.059,0.133-1.059,0.678v0.354l10.598,4.882v-1.043
			C119.746,262.324,119.577,262.06,119.311,261.938z"/>
	</g>
	<path fill="none" stroke="#7B7170" stroke-width="0.3739" stroke-miterlimit="10" d="M109.147,258.422v1.39
		c0,0.396,0.23,0.757,0.59,0.922l8.948,4.123c0.495,0.229,1.06-0.134,1.06-0.679v-1.562c0-0.291-0.169-0.556-0.435-0.677
		l-9.104-4.194C109.712,257.516,109.147,257.877,109.147,258.422z"/>
	<g>
		<path fill="#C5B4B3" d="M83.497,246.454v1.369c0,0.383,0.224,0.73,0.571,0.892l3.208,1.478c0.241,0.11,0.513-0.064,0.513-0.33
			v-1.764c0-0.142-0.081-0.271-0.209-0.329l-3.569-1.644C83.771,246.015,83.497,246.19,83.497,246.454z"/>
	</g>
	<g opacity="0.4">
		<path fill="#F7EBE2" d="M87.788,248.098c0-0.142-0.081-0.271-0.209-0.329l-3.569-1.644c-0.239-0.11-0.513,0.064-0.513,0.329v0.399
			l4.292,1.977V248.098z"/>
	</g>
	<g>
		<path fill="none" stroke="#7B7170" stroke-width="0.3739" stroke-miterlimit="10" d="M83.497,246.454v1.369
			c0,0.383,0.224,0.73,0.571,0.892l3.208,1.478c0.241,0.11,0.513-0.064,0.513-0.33v-1.764c0-0.142-0.081-0.271-0.209-0.329
			l-3.569-1.644C83.771,246.015,83.497,246.19,83.497,246.454z"/>
	</g>
</g>
<g>
	<path opacity="0.24" fill="#3E4147" d="M431.791,298.043c0.596-2.981-8.656-2.223-14.173-1.955
		c-0.517-1.168-1.187-2.377-2.068-3.647c-0.373-0.537-0.748-1.062-1.125-1.579c-0.109-0.15-0.22-0.297-0.329-0.445
		c-0.289-0.392-0.578-0.777-0.871-1.158c-0.104-0.136-0.207-0.271-0.311-0.403c-0.798-1.026-1.604-2.011-2.416-2.949
		c-0.036-0.041-0.071-0.079-0.107-0.121c-0.385-0.443-0.771-0.874-1.16-1.299c-0.043-0.046-0.087-0.094-0.13-0.142
		c-1.145-1.239-2.299-2.396-3.463-3.46c1.883-1.305,3.31-2.291,4.138-2.861c0.441-0.304,0.34-0.9-0.21-1.307
		c-0.031-0.253-0.201-0.523-0.502-0.737l-2.584-2.926c-0.257-0.878-0.703-1.811-1.273-2.709c-0.29-0.458-0.613-0.906-0.957-1.334
		c-0.847-1.05-1.825-1.967-2.8-2.579c-0.015-0.008-0.028-0.02-0.043-0.029c-0.174-0.106-0.347-0.199-0.518-0.286
		c-0.026-0.014-0.054-0.031-0.08-0.044c-0.159-0.076-0.315-0.138-0.473-0.195c-0.038-0.014-0.078-0.034-0.121-0.049
		c-0.151-0.051-0.298-0.083-0.443-0.112c-0.042-0.01-0.084-0.025-0.125-0.032c-0.188-0.032-0.371-0.046-0.55-0.041
		c-0.161,0.005-0.343,0.034-0.534,0.076c-0.056,0.013-0.117,0.029-0.176,0.045c-0.146,0.038-0.3,0.084-0.46,0.139
		c-0.063,0.022-0.127,0.045-0.194,0.069c-0.201,0.076-0.412,0.161-0.633,0.259c-0.023,0.01-0.044,0.019-0.067,0.028
		c-2.565,1.147-6.365,3.66-10.409,5.453c-0.551-0.022-1.1-0.023-1.646,0c-0.038,0.002-0.076,0.005-0.114,0.007
		c-0.534,0.026-1.067,0.068-1.595,0.141c-0.65,0.088-1.36,0.213-2.125,0.375c-11.192,2.365-33.653,12.426-35.844,23.978
		c-0.053,0.281-0.108,0.562-0.138,0.845c-0.031,0.311-0.041,0.615-0.039,0.916c-0.002,0.235,0.009,0.468,0.023,0.699
		c0,0.015-0.002,0.028-0.004,0.045c-0.353,0.353-0.761,0.754-1.202,1.173c-0.028,0.026-0.059,0.055-0.087,0.081
		c-0.176,0.167-0.357,0.335-0.543,0.504c-0.063,0.059-0.128,0.117-0.192,0.176c-0.168,0.153-0.339,0.304-0.51,0.456
		c-0.061,0.053-0.121,0.104-0.181,0.156c-0.227,0.196-0.454,0.39-0.684,0.577c-0.043,0.034-0.084,0.066-0.127,0.103
		c-0.187,0.15-0.371,0.296-0.556,0.437c-0.074,0.056-0.146,0.109-0.219,0.163c-0.161,0.12-0.319,0.233-0.477,0.341
		c-0.068,0.047-0.138,0.096-0.204,0.141c-0.218,0.145-0.433,0.279-0.638,0.396c-0.101,0.056-0.212,0.112-0.329,0.17
		c-0.036,0.018-0.076,0.035-0.113,0.054c-0.086,0.04-0.177,0.08-0.271,0.121c-0.044,0.019-0.088,0.039-0.134,0.057
		c-0.101,0.043-0.208,0.085-0.316,0.128c-0.04,0.016-0.078,0.03-0.118,0.047c-0.15,0.057-0.305,0.113-0.465,0.17
		c-0.035,0.012-0.072,0.025-0.107,0.037c-0.13,0.045-0.262,0.09-0.398,0.135c-0.059,0.02-0.118,0.038-0.178,0.058
		c-0.12,0.039-0.241,0.078-0.365,0.116c-0.062,0.02-0.123,0.038-0.187,0.058c-0.145,0.044-0.294,0.088-0.443,0.133
		c-0.038,0.011-0.075,0.022-0.114,0.033c-0.188,0.056-0.381,0.11-0.575,0.164c-0.051,0.015-0.103,0.027-0.154,0.043
		c-0.146,0.04-0.296,0.081-0.446,0.121c-0.062,0.018-0.127,0.033-0.19,0.051c-0.147,0.038-0.295,0.077-0.443,0.115
		c-0.054,0.015-0.107,0.028-0.161,0.042c-0.407,0.104-0.815,0.204-1.218,0.302c-0.047,0.012-0.095,0.022-0.141,0.034
		c-0.159,0.038-0.317,0.075-0.475,0.111c-0.047,0.012-0.095,0.023-0.144,0.034c-0.183,0.042-0.365,0.085-0.544,0.125
		c-0.009,0.002-0.017,0.003-0.026,0.006c-0.407,0.093-0.8,0.18-1.185,0.263c-0.475-0.127-0.946-0.242-1.415-0.35
		c-0.022-0.005-0.047-0.011-0.069-0.016c-0.469-0.107-0.936-0.204-1.402-0.293c-0.934-0.175-1.854-0.312-2.753-0.399
		c-0.048-0.005-0.093-0.007-0.14-0.013c-0.371-0.034-0.74-0.062-1.106-0.08c-0.115-0.007-0.229-0.011-0.344-0.015
		c-0.299-0.012-0.597-0.017-0.891-0.019c-0.132,0-0.264,0-0.396,0.002c-0.287,0.005-0.571,0.017-0.854,0.033
		c-0.121,0.007-0.243,0.01-0.362,0.019c-0.391,0.029-0.779,0.067-1.17,0.119c-0.309,0.041-0.632,0.091-0.964,0.145
		c-0.106,0.017-0.22,0.037-0.329,0.057c-0.23,0.038-0.464,0.079-0.703,0.123c-0.138,0.025-0.277,0.053-0.417,0.079
		c-0.226,0.044-0.452,0.089-0.686,0.137c-0.153,0.032-0.308,0.064-0.464,0.099c-0.229,0.048-0.459,0.1-0.695,0.152
		c-0.165,0.038-0.331,0.076-0.498,0.114c-0.238,0.056-0.48,0.114-0.725,0.174c-0.17,0.042-0.339,0.082-0.511,0.127
		c-0.261,0.065-0.525,0.135-0.792,0.204c-0.16,0.043-0.32,0.085-0.484,0.129c-0.326,0.089-0.659,0.183-0.993,0.276
		c-0.13,0.037-0.26,0.074-0.392,0.112c-0.407,0.117-0.817,0.24-1.233,0.367c-0.189,0.058-0.384,0.121-0.575,0.182
		c-0.261,0.081-0.523,0.164-0.786,0.249c-0.217,0.069-0.434,0.144-0.65,0.216c-0.243,0.08-0.485,0.162-0.73,0.246
		c-0.229,0.078-0.459,0.159-0.689,0.241c-0.234,0.082-0.469,0.166-0.704,0.251c-0.237,0.087-0.474,0.174-0.712,0.263
		c-0.231,0.087-0.461,0.174-0.692,0.264c-0.242,0.092-0.484,0.187-0.728,0.281c-0.225,0.089-0.448,0.181-0.672,0.271
		c-0.249,0.101-0.497,0.199-0.744,0.303c-0.218,0.091-0.433,0.186-0.649,0.278c-0.528,0.226-1.055,0.459-1.579,0.699
		c-0.158,0.071-0.316,0.141-0.472,0.213c-0.265,0.123-0.525,0.251-0.787,0.378c-0.195,0.094-0.392,0.187-0.582,0.281
		c-0.26,0.128-0.513,0.258-0.769,0.389c-0.193,0.099-0.387,0.198-0.579,0.298c-0.252,0.134-0.503,0.269-0.753,0.405
		c-0.189,0.104-0.377,0.205-0.562,0.31c-0.25,0.14-0.496,0.28-0.741,0.423c-0.18,0.105-0.359,0.212-0.537,0.318
		c-0.245,0.146-0.49,0.293-0.731,0.443c-0.169,0.104-0.334,0.212-0.499,0.318c-0.244,0.157-0.488,0.312-0.727,0.472
		c-0.142,0.095-0.279,0.193-0.419,0.289c-0.86,0.592-1.677,1.204-2.445,1.838c-0.133,0.11-0.269,0.218-0.398,0.328
		c-0.2,0.173-0.393,0.348-0.586,0.521c-0.139,0.126-0.276,0.249-0.41,0.376c-0.185,0.172-0.361,0.347-0.537,0.524
		c-0.132,0.13-0.261,0.263-0.388,0.396c-0.168,0.177-0.332,0.355-0.492,0.534c-0.121,0.137-0.239,0.274-0.355,0.412
		c-0.152,0.181-0.305,0.363-0.448,0.547c-0.108,0.14-0.211,0.281-0.313,0.422c-0.139,0.187-0.277,0.373-0.405,0.562
		c-0.093,0.139-0.176,0.281-0.265,0.422c-0.123,0.195-0.249,0.389-0.361,0.587c0.024-0.215,0.049-0.343,0.047-0.338
		c-0.055,0.223-0.127,0.44-0.21,0.656c-0.17,0.32-0.329,0.646-0.47,0.975c-2.004,3.429-7.137,5.916-9.47,7.773
		c-0.021,0.015-0.036,0.03-0.056,0.044c-0.081,0.066-0.159,0.131-0.232,0.195c-0.027,0.023-0.055,0.048-0.081,0.071
		c-0.061,0.055-0.118,0.108-0.173,0.16c-0.028,0.029-0.056,0.057-0.083,0.085c-1.739,1.778-0.045,3.718,1.35,4.945
		c1.487,1.308,3.297,2.336,5.21,2.988l1.515,1.224c0.131,0.059,0.329,0.089,0.557,0.102l0.577,0.505
		c0.49,0.218,1.033,0.248,1.428,0.073c0.641-0.283,1.73-0.76,3.061-1.325c0.427-0.003,0.863,0.003,1.352,0.025
		c5.639,4.949,13.954,7.999,18.507,9.57c2.606,0.899,6.331,1.419,10.426,1.578c-0.479,1.453-0.956,3.304,0.031,4.07
		c0.145,0.468,0.454,0.826,1.024,0.983c1.859,0.517,5.083,1.029,9.339-2.262c0.986-0.764,1.635-1.93,2.099-3.348
		c3.761-0.485,7.207-1.256,9.752-2.296c7.748-3.167,14.465-10.426,14.143-19.327c0.021-0.711,0.014-1.43-0.059-2.172
		c-0.034-0.35-0.082-0.694-0.138-1.039c-0.017-0.103-0.037-0.206-0.055-0.31c-0.047-0.257-0.1-0.513-0.157-0.768
		c-0.022-0.098-0.043-0.194-0.065-0.291c-0.169-0.687-0.377-1.359-0.62-2.021c-0.029-0.078-0.06-0.157-0.09-0.236
		c-0.104-0.271-0.213-0.541-0.329-0.807c-0.026-0.064-0.053-0.128-0.081-0.189c-0.299-0.673-0.633-1.329-0.996-1.968
		c-0.014-0.025-0.028-0.05-0.042-0.075c-0.068-0.117-0.134-0.234-0.203-0.351c2.513-1.896,5.199-3.895,7.996-5.951
		c4.672,2.24,8.739,3.384,8.739,3.384c18.577,4.949,24.804,3.397,33.846,1.417c6.708-1.468,16.845-6.657,17.48-15.222
		c0.813-0.011,1.604-0.033,2.361-0.069c5.179-0.252,10.611-1.766,10.756-4.906C432.014,298.471,431.937,298.243,431.791,298.043z
		 M411.378,306.403c-0.207,0.271-0.423,0.536-0.652,0.792c-3.139,3.493-8.304,5.648-12.12,6.483
		c-1.019,0.223-2.009,0.447-2.996,0.658c-0.364,0.079-0.728,0.155-1.092,0.229c-0.546,0.11-1.094,0.215-1.648,0.311
		c-0.399,0.07-0.803,0.137-1.21,0.196c-0.044,0.008-0.085,0.014-0.128,0.02c-0.449,0.064-0.906,0.125-1.369,0.176
		c-0.515,0.059-1.039,0.107-1.575,0.145c-0.261,0.019-0.526,0.034-0.794,0.048s-0.54,0.023-0.815,0.032
		c-0.552,0.015-1.118,0.019-1.704,0.01c-1.171-0.019-2.415-0.087-3.756-0.22c-0.671-0.066-1.366-0.148-2.086-0.249
		c-1.082-0.147-2.226-0.336-3.437-0.568c-0.675-0.129-1.38-0.275-2.1-0.433c-1.434-0.313-2.954-0.681-4.584-1.114
		c0,0-2.536-0.781-5.694-2.294c3.01-2.188,6.091-4.411,9.167-6.615c2.511-0.728,4.716-1.204,6.529-1.366
		c9.086-0.81,22.609,0.612,33.618,0.988c-0.149,0.402-0.329,0.791-0.527,1.171C412.109,305.36,411.767,305.896,411.378,306.403z
		 M348.135,329.406c-0.077,1.297-0.446,2.602-1.02,3.875c-0.146,0.325-0.302,0.648-0.473,0.969
		c-0.127,0.235-0.259,0.472-0.396,0.704c-1.384,2.331-3.332,4.475-5.206,6.145c-0.187,0.167-0.373,0.329-0.559,0.486
		c-1.668,1.416-3.223,2.423-4.197,2.814c-1.191,0.477-2.978,1.316-5.448,2.042c0.527-3.998,0.979-8.489,2.967-11.99
		c0.912-1.607,5.607-5.586,12.263-10.736c0.586,1.148,1.132,2.367,1.623,3.667C347.938,328.045,348.08,328.723,348.135,329.406z
		 M351.484,297.507c1.093-10.72,22.862-18.965,31.63-20.15c2.339-0.317,4.783-0.168,7.272,0.448
		c-7.422,6.264-18.394,15.513-29.014,24.433c-2.039,0.713-4.263,1.494-6.628,2.326c-0.647-0.683-1.225-1.407-1.714-2.17
		c-0.527-0.827-0.94-1.701-1.218-2.618c-0.032-0.107-0.066-0.214-0.095-0.323c-0.038-0.146-0.07-0.297-0.102-0.446
		c-0.03-0.146-0.058-0.293-0.079-0.44c-0.021-0.132-0.039-0.263-0.053-0.396c-0.011-0.088-0.012-0.179-0.019-0.268
		C351.474,297.771,351.471,297.641,351.484,297.507z M383.248,296.561c6.994-4.948,13.445-9.459,18.329-12.856
		c3.151,2.583,6.233,5.944,9.124,10.114c0.534,0.771,0.984,1.52,1.357,2.247C405.963,295.928,393.018,295.767,383.248,296.561z
		 M288.947,327.584c3.344-9.689,23.361-16.049,31.637-17.168c3.937-0.532,8.484-0.122,13.083,1.586
		C317.813,317.596,300.696,323.619,288.947,327.584z M294.049,338.486c0.956-0.354,1.893-0.684,2.769-0.969
		c8.448-2.756,26.778-12.173,44.535-20.537c0.354,0.365,0.699,0.75,1.038,1.148c-6.804,5.666-11.802,9.781-13.035,10.676
		c-3.773,2.736-8.053,12.828-10.382,18.954c-3.065-0.152-6.545-0.662-10.475-1.708C308.499,346.051,299.978,343.276,294.049,338.486
		z M346.476,314.592c0.115-0.053,0.23-0.106,0.345-0.16c-0.091,0.077-0.183,0.154-0.272,0.229
		C346.524,314.638,346.5,314.615,346.476,314.592z"/>
	<g>
		<path fill="#141516" d="M412.111,272.596l4.743,4.243c0.483,0.434,0.491,1.077,0.017,1.394c-8.573,5.72-76.761,51.327-81.25,58.01
			c-4.791,7.131-4.541,18.334-9.113,21.721c-4.571,3.384-7.563,2.802-9.255,2.236c-1.692-0.566-0.446-3.318,0.374-5.087
			c1.639-3.536,9.715-20.409,14.982-24.089c5.268-3.681,76-60.424,76-60.424L412.111,272.596z"/>
		<path fill="#191A1C" d="M412.432,269.77l4.079,6.314c0.485,0.432,0.493,1.077,0.018,1.394c-8.574,5.721-76.76,51.328-81.249,58.01
			c-4.791,7.131-4.543,18.333-9.113,21.719c-4.572,3.386-7.563,2.805-9.255,2.237c-1.691-0.566-0.446-3.319,0.373-5.086
			c1.639-3.537,9.716-20.409,14.983-24.09c5.267-3.68,75.999-60.422,75.999-60.422L412.432,269.77z"/>
		<path fill="#191A1C" d="M280.935,340.58c1.645,1.7,4.519,3.436,4.519,3.436c0.434,0.236,0.946,0.274,1.351,0.097
			c2.035-0.893,8.452-3.668,13.088-5.181c15.805-5.153,67.908-34.023,84.088-35.351c11.185-0.917,28.671,2.062,39.809,1.635
			c4.976-0.19,10.39-1.699,11.021-4.985c0.63-3.285-10.745-1.681-15.645-1.703c0,0-30.39-1.64-40.198,1.387
			s-92.612,32.957-99.475,34.153C279.491,334.067,279.29,338.879,280.935,340.58z"/>
		<path fill="#202224" d="M278.596,337.25l6.338,5.698c0.434,0.237,1.383,0.518,1.787,0.34c2.035-0.895,8.866-4.067,13.502-5.58
			c15.805-5.152,67.907-34.024,84.088-35.35c11.185-0.917,28.671,2.061,39.809,1.634c4.976-0.19,8.938-2.087,10.068-3.547
			c3.655-4.735-9.793-3.119-14.692-3.142c0,0-30.39-1.641-40.197,1.387c-9.81,3.026-92.613,32.956-99.478,34.153L278.596,337.25z"/>
		<g opacity="0.49">
			<path fill="#FFFFFF" d="M425.733,298.301c0,0-0.195,0.032-0.563,0.094c-0.377,0.049-0.926,0.108-1.62,0.154
				c-1.392,0.087-3.38,0.164-5.764,0.164c-4.768,0.013-11.118-0.127-17.466-0.209c-3.173-0.054-6.346-0.118-9.315-0.08
				c-1.48,0.027-2.924,0.049-4.253,0.208c-1.336,0.187-2.61,0.415-3.764,0.659c-2.309,0.504-4.18,1.167-5.524,1.539
				c-1.34,0.385-2.111,0.575-2.111,0.575c-0.078,0.021-0.16-0.024-0.182-0.104c-0.021-0.077,0.027-0.158,0.104-0.181
				c0,0,0.764-0.215,2.084-0.636c1.321-0.398,3.174-1.153,5.523-1.673c1.172-0.26,2.437-0.501,3.802-0.705
				c1.379-0.178,2.818-0.209,4.312-0.25c2.983-0.06,6.161-0.038,9.337,0.011c6.35,0.138,12.696,0.334,17.455,0.365
				c2.379,0.02,4.36,0.023,5.743-0.037c0.692-0.027,1.229-0.072,1.592-0.109c0.368-0.051,0.565-0.079,0.565-0.079
				c0.08-0.011,0.155,0.044,0.169,0.125C425.868,298.211,425.812,298.286,425.733,298.301z"/>
		</g>
	</g>
	<path fill="#010101" d="M419.954,294.605c-2.414-5.061-5.114-9.301-8.008-12.679c0.031-2.278,2.471-4.17,2.444-7.017
		c-0.032-3.598-3.2-8.655-5.925-8.609c-2.106,0.036-7.372,3.771-12.839,6.179c-1.071-0.064-2.146-0.033-3.222,0.106
		c-10.119,1.326-37.045,12.568-40.267,25.845c-0.144,0.591-0.222,1.164-0.271,1.731c-1.599,1.491-4.218,3.811-6.098,4.85
		c-1.839,1.016-6.265,2.084-9.235,2.726c-3.566-1.139-6.998-1.636-10.234-1.211c-8.927,1.169-29.435,7.778-36.528,18.396
		c0.058-0.227,0.1-0.359,0.1-0.359c-0.087,0.234-0.192,0.462-0.306,0.688c-0.212,0.335-0.415,0.672-0.6,1.014
		c-2.549,3.71-8.476,5.606-10.847,7.545c-0.646,0.528-0.747,1.703-0.782,2.145c-0.181,2.295,4.46,6.594,8.718,6.789
		c2.343,0.106,3.43-0.046,5.156,0.071c4.6,5.262,12.046,8.569,16.139,10.279c6.817,2.846,23.152,2.456,31.338-0.874
		c8.185-3.33,16.024-11.293,16.623-21.12c0.4-6.567-2.69-12.326-6.26-16.175c0.32-1.152,1.019-2.862,2.444-3.586
		c1.392-0.706,3.809-0.465,5.442-0.179c5.516,5.117,13.509,7.825,13.509,7.825c16.929,5.443,23.108,3.905,32.035,1.961
		C411.407,319.002,427.336,310.08,419.954,294.605z M349.963,329.036c1.541,7.963-10.179,17.429-13.704,18.836
		c-3.524,1.408-12.362,5.96-26.737,1.338c0,0-19.033-7.477-16.297-18.751c2.736-11.272,24.973-18.441,33.564-19.566
		c4.208-0.551,8.944,0.079,13.42,2.409C344.871,315.729,348.422,321.074,349.963,329.036z M400.47,316.586
		c-7.534,1.642-13.508,3.385-27.801-1.21c0,0-17.128-6.354-14.407-17.562c2.72-11.208,24.762-19.534,33.303-20.652
		c8.542-1.119,17.482,4.559,23.714,17.623C421.51,307.848,408.005,314.943,400.47,316.586z"/>
	<g>
		<path fill="#313336" d="M355.479,329.92c0.599-9.827-6.61-17.868-11.562-20.355c-6.179-3.104-12.079-4.922-17.448-4.219
			c-10.178,1.333-35.414,9.736-38.657,23.092c-3.239,13.354,12.891,20.63,19.707,23.476s23.152,2.456,31.337-0.874
			S354.88,339.747,355.479,329.92z M336.428,346.692c-3.525,1.406-12.363,5.959-26.739,1.338c0,0-19.032-7.477-16.295-18.75
			c2.736-11.274,24.973-18.442,33.563-19.567c4.209-0.551,8.944,0.079,13.42,2.409c4.663,2.428,8.213,7.772,9.755,15.734
			C351.672,335.817,339.952,345.285,336.428,346.692z"/>
	</g>
	<g>
		<path fill="#313336" d="M420.121,293.426c-7.38-15.475-17.431-23.344-27.549-22.02c-10.117,1.325-37.044,12.569-40.267,25.845
			c-3.222,13.276,18.31,20.556,18.31,20.556c16.928,5.442,23.108,3.904,32.033,1.96
			C411.574,317.821,427.504,308.899,420.121,293.426z M400.639,315.405c-7.535,1.643-13.51,3.386-27.801-1.208
			c0,0-17.129-6.356-14.408-17.564c2.721-11.207,24.762-19.533,33.303-20.652c8.542-1.118,17.482,4.56,23.713,17.624
			C421.677,306.667,408.174,313.764,400.639,315.405z"/>
	</g>
	<path fill="#313336" d="M290.039,323.385c-2.144,5.74-12.351,9.096-12.533,11.39c-0.182,2.293,4.459,6.593,8.718,6.788
		c4.257,0.195,4.357-0.475,11.717,1.2c0,0-0.46-0.049-5.242-6.58C287.914,329.653,290.039,323.385,290.039,323.385z"/>
	<path fill="#313336" d="M390.995,272.957c6.899-1.538,14.914-7.79,17.639-7.836c2.725-0.045,5.893,5.012,5.925,8.609
		s-3.889,5.667-1.883,8.923l-7.057-6.982L390.995,272.957z"/>
	<path fill="#313336" d="M348.974,314.887c0,0,0.446-3.588,2.689-4.727c2.241-1.139,7.145,0.184,7.145,0.184l-5.353-12.722
		c0,0-4.636,4.618-7.519,6.21c-2.882,1.593-12.144,3.318-12.144,3.318L348.974,314.887z"/>
	<g opacity="0.1">
		<path fill="#FFFFFF" d="M293.394,329.28c2.735-11.274,24.973-18.442,33.563-19.567c4.209-0.551,8.944,0.079,13.42,2.408
			c0.186,0.098,0.366,0.207,0.548,0.312c4.091-2.481,10.618-6.19,18.049-9.48c-0.811-1.891-1.106-3.999-0.544-6.319
			c2.721-11.207,24.762-19.533,33.303-20.652c2.749-0.359,5.539-0.005,8.267,1.062c4.187-3.244,8.645-6.491,12.626-8.953
			c-1.14-1.724-2.621-2.992-3.991-2.969c-2.105,0.035-7.372,3.771-12.839,6.18c-1.071-0.066-2.147-0.036-3.223,0.105
			c-10.117,1.325-37.044,12.569-40.267,25.845c-0.143,0.59-0.221,1.165-0.271,1.73c-1.599,1.492-4.219,3.812-6.099,4.851
			c-1.837,1.015-6.264,2.084-9.233,2.726c-3.566-1.138-6.998-1.635-10.234-1.212c-8.927,1.17-29.437,7.779-36.529,18.396
			c0.058-0.227,0.1-0.357,0.1-0.357c-0.087,0.233-0.193,0.461-0.305,0.687c-0.212,0.334-0.415,0.673-0.601,1.015
			c-3.242,4.72-11.465,7.631-11.628,9.688c-0.112,1.414,1.609,3.586,3.941,5.093c2.632-1.885,6.429-4.135,11.861-6.541
			C293.049,332.041,293.051,330.69,293.394,329.28z"/>
	</g>
	<path fill="#F05252" d="M291.136,326.554"/>
	<path fill="#D1D2D2" d="M282.738,335.268c0.1,0.497-0.396,0.856-1.106,0.804c-0.711-0.052-1.367-0.5-1.466-0.996
		c-0.099-0.497,0.397-0.856,1.107-0.803C281.983,334.325,282.64,334.772,282.738,335.268z"/>
	<path fill="#D1D2D2" d="M286.672,338.134c0.1,0.498-0.396,0.856-1.107,0.804c-0.71-0.054-1.366-0.5-1.465-0.996
		c-0.099-0.498,0.397-0.857,1.107-0.804C285.917,337.19,286.573,337.638,286.672,338.134z"/>
	<path fill="#D1D2D2" d="M287.583,334.775c0.098,0.497-0.397,0.855-1.107,0.803c-0.711-0.054-1.366-0.5-1.466-0.997
		c-0.099-0.497,0.397-0.857,1.107-0.803C286.828,333.831,287.483,334.277,287.583,334.775z"/>
	<g opacity="0.38">
		<g>
			<path fill="#BCCACD" d="M336.428,346.692c-3.525,1.406-12.363,5.959-26.739,1.338c0,0-19.032-7.477-16.295-18.75
				c2.736-11.274,24.973-18.442,33.563-19.567c4.209-0.551,8.944,0.079,13.42,2.409c4.663,2.428,8.213,7.772,9.755,15.734
				C351.672,335.817,339.952,345.285,336.428,346.692z"/>
		</g>
	</g>
	<g opacity="0.15">
		<path fill="#FFFFFF" d="M301.441,319.426c7.234,4.529,24.031,15.656,34.524,27.456c0.161-0.067,0.317-0.132,0.462-0.189
			c1.947-0.778,6.396-4.018,9.727-8.104c-7.094-11.3-18.777-22.655-24.416-27.832C315.634,312.291,307.485,315.263,301.441,319.426z
			"/>
	</g>
	<g>
		<g opacity="0.26">
			<path fill="#373B3B" d="M295.474,333.324c0,0-0.018-0.101-0.049-0.289c-0.028-0.196-0.07-0.477-0.084-0.842
				c-0.016-0.364-0.013-0.81,0.036-1.319c0.025-0.253,0.062-0.522,0.114-0.806c0.07-0.33,0.146-0.56,0.226-0.864
				c0.064-0.285,0.176-0.594,0.311-0.919c0.131-0.318,0.248-0.668,0.423-0.975c0.17-0.314,0.321-0.656,0.521-0.975
				c0.205-0.313,0.416-0.634,0.63-0.961c0.238-0.307,0.481-0.618,0.727-0.934c0.252-0.31,0.532-0.599,0.806-0.9
				c0.564-0.581,1.151-1.157,1.783-1.679c0.618-0.54,1.279-1.021,1.926-1.493c0.654-0.468,1.317-0.892,1.968-1.287
				c0.646-0.402,1.295-0.748,1.908-1.077c0.618-0.317,1.2-0.623,1.749-0.878c1.089-0.532,2.032-0.894,2.684-1.16
				c0.659-0.249,1.035-0.392,1.035-0.392c0.154-0.06,0.326,0.019,0.386,0.173c0.053,0.144-0.01,0.302-0.142,0.37l-0.006,0.003
				c0,0-0.353,0.186-0.971,0.511c-0.622,0.314-1.497,0.79-2.535,1.37c-1.046,0.566-2.226,1.295-3.466,2.1
				c-0.307,0.205-0.619,0.412-0.935,0.623c-0.308,0.222-0.62,0.445-0.935,0.671c-0.617,0.462-1.248,0.931-1.832,1.449
				c-0.604,0.497-1.167,1.034-1.703,1.576c-0.258,0.28-0.524,0.55-0.771,0.829c-0.237,0.287-0.472,0.568-0.702,0.848
				c-0.419,0.585-0.826,1.15-1.145,1.728c-0.184,0.279-0.292,0.563-0.425,0.835c-0.135,0.265-0.256,0.536-0.342,0.833
				c-0.091,0.272-0.181,0.536-0.263,0.786c-0.072,0.25-0.13,0.491-0.175,0.72c-0.091,0.455-0.134,0.862-0.152,1.197
				c-0.017,0.334-0.021,0.603-0.018,0.78c0.006,0.185,0.01,0.283,0.01,0.283v0.005c0.007,0.165-0.123,0.303-0.288,0.31
				C295.627,333.579,295.498,333.47,295.474,333.324z"/>
		</g>
	</g>
	<g opacity="0.38">
		<path fill="#BCCACD" d="M400.639,315.405c-7.535,1.643-13.51,3.386-27.801-1.208c0,0-17.129-6.356-14.408-17.564
			c2.721-11.207,24.762-19.533,33.303-20.652c8.542-1.118,17.482,4.56,23.713,17.624
			C421.677,306.667,408.174,313.764,400.639,315.405z"/>
	</g>
	<g opacity="0.15">
		<path fill="#FFFFFF" d="M369.094,284.702c6.227,5.259,20.302,17.874,29.028,31.256c0.829-0.179,1.661-0.366,2.517-0.553
			c2.662-0.579,6.066-1.844,9.086-3.808c-6.471-12.576-18.213-27.162-24.161-34.208
			C380.528,278.888,374.327,281.418,369.094,284.702z"/>
	</g>
	<g opacity="0.26">
		<path fill="#373B3B" d="M360.172,301.231c0,0-0.104-0.418-0.156-1.132c-0.05-0.718-0.046-1.755,0.179-2.981
			c0.133-0.606,0.297-1.267,0.566-1.93c0.265-0.669,0.583-1.35,1.027-2.018c0.186-0.313,0.435-0.635,0.701-0.958
			c0.256-0.337,0.531-0.604,0.801-0.912c0.55-0.592,1.148-1.142,1.75-1.684c2.434-2.142,5.108-3.938,7.193-5.154
			c1.037-0.618,1.938-1.068,2.58-1.37c0.315-0.159,0.58-0.257,0.755-0.331c0.177-0.072,0.271-0.111,0.271-0.111
			c0.153-0.062,0.327,0.011,0.39,0.162c0.057,0.139,0.001,0.296-0.123,0.37l-0.016,0.009c0,0-0.337,0.2-0.926,0.553
			c-0.595,0.346-1.405,0.916-2.392,1.568c-0.491,0.332-1.017,0.702-1.565,1.103c-0.546,0.402-1.121,0.829-1.716,1.269
			c-1.18,0.896-2.422,1.867-3.604,2.896c-0.591,0.513-1.16,1.049-1.703,1.584c-0.551,0.564-1.002,1.038-1.453,1.656
			c-0.423,0.549-0.745,1.175-1.014,1.764c-0.277,0.593-0.453,1.19-0.606,1.74c-0.296,1.112-0.379,2.081-0.385,2.755
			c-0.018,0.681,0.033,1.049,0.033,1.049c0.022,0.164-0.091,0.314-0.255,0.337c-0.151,0.021-0.293-0.076-0.33-0.222L360.172,301.231
			z"/>
	</g>
	<path fill="#D1D2D2" d="M412.568,271.48c0.1,0.497-0.396,0.856-1.106,0.803c-0.71-0.054-1.366-0.5-1.465-0.997
		c-0.1-0.497,0.396-0.856,1.107-0.804C411.813,270.537,412.471,270.982,412.568,271.48z"/>
	<path fill="#D1D2D2" d="M408.013,271.509c0.1,0.496-0.396,0.856-1.105,0.803c-0.712-0.054-1.368-0.5-1.466-0.997
		c-0.1-0.498,0.396-0.857,1.106-0.803C407.259,270.564,407.915,271.011,408.013,271.509z"/>
	<g opacity="0.19">
		<g>
			<path fill="#FFFFFF" d="M329.792,307.707c0,0-0.668-0.041-1.825,0.012c-0.575,0.029-1.282,0.088-2.057,0.235
				c-0.813,0.154-1.73,0.329-2.694,0.557c-0.971,0.207-2.029,0.51-3.139,0.811c-1.105,0.327-2.269,0.68-3.466,1.069
				c-1.201,0.371-2.42,0.83-3.66,1.283c-1.23,0.479-2.477,0.974-3.7,1.521c-1.244,0.499-2.438,1.106-3.631,1.666
				c-1.162,0.617-2.324,1.195-3.385,1.859c-1.089,0.619-2.085,1.297-3.041,1.929c-0.486,0.306-0.901,0.676-1.335,0.993
				c-0.417,0.337-0.857,0.624-1.214,0.97c-0.367,0.335-0.72,0.655-1.054,0.962c-0.169,0.15-0.334,0.298-0.495,0.441
				c-0.144,0.158-0.283,0.312-0.419,0.46c-0.271,0.299-0.524,0.578-0.759,0.836c-0.242,0.255-0.454,0.496-0.606,0.74
				c-0.674,0.943-1.058,1.481-1.058,1.481l-0.03,0.042c-0.111,0.155-0.328,0.19-0.482,0.08c-0.148-0.104-0.188-0.306-0.098-0.459
				c0,0,0.354-0.597,0.974-1.639c0.146-0.27,0.351-0.534,0.582-0.817c0.227-0.286,0.473-0.596,0.736-0.926
				c0.131-0.166,0.268-0.336,0.407-0.512c0.157-0.16,0.318-0.325,0.483-0.493c0.334-0.334,0.686-0.687,1.053-1.053
				c0.36-0.378,0.798-0.69,1.218-1.059c0.435-0.347,0.855-0.75,1.343-1.085c0.96-0.688,1.954-1.45,3.072-2.089
				c1.084-0.698,2.266-1.307,3.45-1.955c1.21-0.591,2.427-1.228,3.689-1.754c1.251-0.557,2.532-1.034,3.792-1.506
				c1.27-0.445,2.515-0.895,3.745-1.256c1.219-0.394,2.419-0.699,3.559-0.981c1.148-0.263,2.22-0.521,3.245-0.695
				c1.021-0.205,1.944-0.318,2.762-0.412c0.858-0.103,1.591-0.111,2.2-0.102c0.607,0.009,1.081,0.06,1.403,0.091
				c0.319,0.039,0.491,0.059,0.491,0.059l0.007,0.001c0.191,0.023,0.327,0.195,0.305,0.388
				C330.139,307.585,329.976,307.719,329.792,307.707z"/>
		</g>
	</g>
	<g opacity="0.19">
		<g>
			<path fill="#FFFFFF" d="M392.196,273.72c0,0-0.688,0.12-1.816,0.395c-0.574,0.143-1.268,0.328-2.06,0.564
				c-0.788,0.245-1.675,0.526-2.636,0.854c-1.929,0.649-4.135,1.53-6.471,2.531c-2.337,1.001-4.782,2.181-7.155,3.485
				c-2.392,1.267-4.702,2.681-6.764,4.145c-1.027,0.735-2.01,1.461-2.901,2.198c-0.887,0.739-1.709,1.46-2.408,2.181
				c-0.709,0.712-1.325,1.396-1.839,2.026c-0.27,0.307-0.481,0.623-0.692,0.905c-0.216,0.279-0.393,0.55-0.542,0.799
				c-0.322,0.487-0.544,0.888-0.688,1.166c-0.147,0.275-0.229,0.422-0.229,0.422l-0.015,0.026c-0.091,0.169-0.302,0.23-0.47,0.14
				c-0.159-0.086-0.225-0.279-0.154-0.442c0,0,0.069-0.161,0.2-0.464c0.128-0.303,0.312-0.751,0.62-1.282
				c0.142-0.272,0.308-0.568,0.514-0.874c0.2-0.311,0.402-0.658,0.663-0.995c0.492-0.696,1.085-1.458,1.8-2.22
				c0.699-0.78,1.519-1.561,2.406-2.361c0.892-0.794,1.86-1.6,2.915-2.358c2.1-1.532,4.443-3.009,6.866-4.334
				c2.433-1.311,4.939-2.466,7.327-3.453c1.191-0.503,2.365-0.934,3.483-1.321c1.122-0.385,2.188-0.729,3.181-1.021
				c1.982-0.596,3.679-0.943,4.871-1.153c0.604-0.101,1.083-0.165,1.398-0.194c0.319-0.033,0.489-0.052,0.489-0.052l0.008-0.001
				c0.19-0.021,0.362,0.118,0.382,0.31C392.501,273.523,392.374,273.688,392.196,273.72z"/>
		</g>
	</g>
	<path fill="#D1D2D2" d="M409.747,268.301c0.09,0.453-0.362,0.781-1.009,0.732c-0.649-0.049-1.247-0.456-1.338-0.91
		c-0.09-0.453,0.362-0.781,1.01-0.732C409.059,267.44,409.657,267.847,409.747,268.301z"/>
</g>
<g>
	<path opacity="0.24" fill="#3E4147" d="M423.41,483.462l-4.369-2.054c-0.132-0.063-0.285-0.064-0.419-0.004l-0.237,0.108
		l-6.636-3.116c-0.075-0.511-0.365-0.994-0.904-1.264l-4.659-2.307c0.151-0.231,0.71-1.245-0.772-1.896
		c-3.003-1.071-5.508-1.716-5.508-1.716c-0.301-0.008-0.61,0.025-0.878,0.066l-2.883-1.427c0.059-0.127,0.101-0.255,0.122-0.385
		c0.187-0.376,0.398-1.189-0.86-1.741c-3.005-1.071-5.51-1.717-5.51-1.717c-0.452-0.012-0.925,0.067-1.24,0.134l-53.324-26.404l0,0
		l-1.475-0.731c-0.122-0.06-0.248-0.105-0.379-0.136c-0.257-0.059-0.526-0.056-0.784,0.008c-0.129,0.032-0.255,0.079-0.375,0.143
		l-0.557,0.39l-3.639-1.575v-0.7c0.134-0.673,0.211-1.356,0.211-2.051c0-0.002,0-0.005,0-0.007c0-0.272-0.013-0.543-0.033-0.812
		c-0.009-0.093-0.021-0.185-0.03-0.276c-0.02-0.179-0.04-0.356-0.068-0.534c-0.017-0.108-0.038-0.218-0.06-0.326
		c-0.029-0.158-0.062-0.315-0.099-0.471c-0.029-0.116-0.057-0.233-0.089-0.348c-0.04-0.146-0.085-0.292-0.131-0.438
		c-0.039-0.119-0.075-0.239-0.117-0.358c-0.047-0.135-0.102-0.27-0.156-0.403c-0.049-0.126-0.096-0.251-0.15-0.376
		c-0.019-0.043-0.042-0.086-0.062-0.129c-0.161-0.355-0.341-0.707-0.539-1.053c-0.043-0.073-0.081-0.147-0.126-0.221
		c-0.098-0.166-0.204-0.33-0.312-0.493c-0.045-0.068-0.089-0.138-0.135-0.205c-0.115-0.169-0.235-0.337-0.359-0.503
		c-0.04-0.054-0.081-0.108-0.122-0.163c-0.137-0.177-0.276-0.355-0.422-0.529c-0.021-0.024-0.042-0.049-0.063-0.073
		c-0.87-1.029-1.906-1.998-3.093-2.896c-0.002-0.001-0.002-0.001-0.002-0.002h-0.001c-5.258-3.979-13.398-6.536-22.544-6.536
		c-4.009,0-7.824,0.492-11.291,1.379l-4.277-1.852c-0.159-0.069-0.339-0.065-0.494,0.012l-0.232,0.114l-25.55-10.153l-70.206-28.145
		c-1.467-0.521-3.015-0.771-4.571-0.736l-14.036,0.307c-0.633,0.013-1.222,0.23-1.708,0.582l0,0l0,0
		c-0.146,0.105-0.282,0.222-0.407,0.352c-0.002,0-0.004,0.003-0.006,0.005c-0.115,0.12-0.22,0.25-0.316,0.389
		c-0.009,0.014-0.021,0.027-0.032,0.042c-0.083,0.128-0.156,0.261-0.22,0.401c-0.013,0.028-0.031,0.055-0.043,0.084
		c-0.071,0.165-0.128,0.338-0.168,0.517c-0.002,0.002-0.002,0.003-0.002,0.005l-0.668,2.972l-0.668,2.975
		c-0.077,0.344-0.093,0.688-0.054,1.022c0.054,1.074,0.673,2.067,1.678,2.562l96.409,44.931c0,0,4.262,1.985,7.974,2.772v1.667
		c-0.005,0.148-0.018,0.296-0.018,0.444s0.013,0.297,0.018,0.444v0.182h0.01c0.553,9.184,13.18,16.526,28.686,16.526
		c4.511,0,8.772-0.624,12.569-1.73c0.104,0.071,0.206,0.143,0.333,0.192l53.88,21.527c0.014,0.318,0.188,0.628,0.669,0.868
		l5.902,1.759l4.757,1.9c-0.002,0.335,0.168,0.664,0.673,0.919l6.382,1.898l5.841,2.333c0.159,0.064,0.322,0.12,0.487,0.167
		c0.157,0.045,0.314,0.079,0.474,0.109c0.013,0.041,0.033,0.073,0.065,0.104c-0.158,0.106-0.153,0.349,0.029,0.434l6.816,3.202
		c0.028,0.145,0.104,0.282,0.26,0.356l4.37,2.054c0.131,0.061,0.284,0.062,0.417,0.002l19.965-9.086
		c0.227-0.104,0.305-0.329,0.269-0.538C423.766,483.969,423.714,483.604,423.41,483.462z M402.738,483.703l5.034,2.64l-8.288,3.771
		l-5.535-2.599c0.162-0.052,0.323-0.113,0.48-0.182L402.738,483.703z M410.767,480.196c0.14-0.062,0.26-0.144,0.37-0.23l5.241,2.461
		l-6.136,2.793l-4.989-2.614L410.767,480.196z M328.033,442.023c0.037-0.269,0.067-0.541,0.083-0.814h0.008v-0.194
		c0.001-0.028,0.003-0.059,0.003-0.088l0.91,0.396L328.033,442.023z"/>
	<path fill="#A48560" d="M420.869,481.636l-19.965,9.086c-0.386,0.176-0.391,0.724-0.006,0.905l4.369,2.053
		c0.132,0.062,0.285,0.064,0.418,0.004l19.964-9.087c0.388-0.176,0.391-0.724,0.007-0.904l-4.369-2.054
		C421.155,481.577,421.003,481.575,420.869,481.636z"/>
	<path fill="#A48560" d="M394.769,486.865l-0.963,0.449c-0.195,0.092-0.195,0.367-0.001,0.46l9.425,4.426
		c0.068,0.032,0.147,0.032,0.215,0.001l0.963-0.449c0.195-0.091,0.195-0.368,0.002-0.461l-9.427-4.426
		C394.915,486.834,394.837,486.834,394.769,486.865z"/>
	<path fill="#F2C48E" d="M394.801,486.157l-0.963,0.449c-0.194,0.091-0.194,0.368,0,0.458l9.424,4.428
		c0.068,0.031,0.147,0.031,0.216,0l0.963-0.45c0.194-0.09,0.195-0.367,0.001-0.459l-9.425-4.425
		C394.948,486.125,394.869,486.125,394.801,486.157z"/>
	<path fill="#1C1318" d="M405.209,472.928c0.126-0.083,1.934-0.414,2.06-0.455c0.127-0.042,1.177,0.172,1.177,0.172
		s0.5,1.221-0.301,1.933c-0.801,0.711-3.154,0.663-3.28,0.577c-0.126-0.085-1.427-0.593-1.427-0.593"/>
	<path fill="#1C1318" d="M395.222,467.852c0.125-0.084,1.935-0.413,2.061-0.456c0.126-0.041,1.177,0.172,1.177,0.172
		s0.5,1.221-0.3,1.933c-0.802,0.713-3.155,0.662-3.281,0.578s-1.427-0.594-1.427-0.594"/>
	<path fill="#241720" d="M293.779,420.05l-103.884-41.284c-1.465-0.518-3.014-0.767-4.571-0.732l-14.035,0.309
		c-1.398,0.03-2.596,1.005-2.903,2.363l-1.336,5.915c-0.308,1.362,0.36,2.757,1.618,3.377l96.408,44.931
		c0,0,8.081,3.766,11.686,2.982c3.605-0.785,17.124-16.686,17.168-17.768"/>
	<path fill="#372330" d="M285.701,416.929l-95.813-38.408c-1.467-0.522-3.015-0.772-4.571-0.738l-14.036,0.307
		c-1.399,0.03-2.596,1.011-2.904,2.377l-1.335,5.946c-0.308,1.369,0.361,2.771,1.618,3.394l95.765,44.794
		C266.559,430.589,272.273,422.556,285.701,416.929z"/>
	<path opacity="0.25" fill="#B07679" d="M262.062,428.715c0,0,1.667,2.138,3.681,1.982c2.013-0.156,19.246-12.341,19.17-13.321
		c-0.075-0.978-3.583-1.535-4.145-1.79c-0.051-0.022-0.106-0.016-0.151,0.016l-18.567,12.886
		C261.967,428.545,261.975,428.667,262.062,428.715z"/>
	<path opacity="0.68" fill="#1C1318" d="M277.961,436.102c-3.605,0.786-11.688-3.002-11.688-3.002l-96.414-45.103
		c-1.258-0.623-1.926-2.024-1.619-3.394l1.332-5.933c-0.588,0.424-1.026,1.048-1.195,1.795l-1.335,5.946
		c-0.308,1.369,0.361,2.771,1.618,3.394l96.416,45.104c0,0,8.081,3.788,11.686,3.001c3.542-0.774,16.631-16.191,17.142-17.774
		C290.493,424.642,280.911,435.455,277.961,436.102z"/>
	<path fill="#A78563" d="M330.44,440.244c0.006-0.145,0.018-0.288,0.018-0.434c0-0.145-0.012-0.288-0.018-0.432v-5.986h-2.068
		c-4.255-6.293-14.569-10.734-26.627-10.734s-22.372,4.441-26.627,10.734h-2.066v5.975c-0.007,0.147-0.021,0.296-0.021,0.443
		c0,0.148,0.014,0.297,0.021,0.444v0.184h0.006c0.554,9.182,13.181,16.525,28.688,16.525s28.135-7.344,28.687-16.525h0.009V440.244z
		"/>
	<g>
		<path fill="#301F2B" d="M334.635,438.252l-20.146,14.103c-1.285,0.67-1.188,2.538,0.157,3.071l78.104,31.205
			c1.288,0.511,2.727,0.486,3.996-0.068l16.337-7.139c1.314-0.574,1.363-2.422,0.078-3.062l-76.987-38.124
			C335.688,437.997,335.116,438.002,334.635,438.252z"/>
	</g>
	<path fill="#A48560" d="M412.127,477.562l-0.963,0.449c-0.196,0.093-0.196,0.369-0.001,0.461l9.424,4.426
		c0.069,0.031,0.147,0.031,0.216,0l0.963-0.449c0.195-0.091,0.195-0.367,0-0.459l-9.425-4.427
		C412.273,477.532,412.194,477.531,412.127,477.562z"/>
	<path fill="#F2C48E" d="M412.159,476.76l-0.963,0.449c-0.195,0.091-0.195,0.368-0.001,0.46l9.425,4.425
		c0.068,0.033,0.147,0.033,0.215,0.001l0.964-0.449c0.194-0.09,0.195-0.368,0-0.458l-9.425-4.428
		C412.306,476.729,412.228,476.729,412.159,476.76z"/>
	<path opacity="0.25" fill="#B07679" d="M317.608,452.118c0,0,1.583,2.199,3.601,2.123c2.018-0.077,19.709-11.592,19.671-12.572
		c-0.04-0.981-3.522-1.673-4.075-1.948c-0.049-0.025-0.104-0.021-0.15,0.009l-19.051,12.161
		C317.521,451.944,317.522,452.067,317.608,452.118z"/>
	<g opacity="0.68">
		<path fill="#1C1318" d="M319.741,454.687c-1.347-0.534-1.442-2.402-0.159-3.072l18.066-12.646l-1.476-0.731
			c-0.485-0.24-1.057-0.235-1.538,0.015l-20.146,14.103c-1.285,0.67-1.188,2.538,0.157,3.071l78.104,31.205
			c1.288,0.511,2.727,0.486,3.996-0.068l1.345-0.588c-0.082-0.027-0.166-0.052-0.246-0.084L319.741,454.687z"/>
	</g>
	<path fill="#CCA579" d="M312.439,448.057l-1.956,0.957c-0.451,0.221-0.436,0.87,0.025,1.069l7.148,3.093
		c0.157,0.068,0.338,0.065,0.492-0.011l1.956-0.958c0.45-0.221,0.435-0.869-0.025-1.068l-7.148-3.094
		C312.774,447.977,312.594,447.98,312.439,448.057z"/>
	<path fill="#CCA579" d="M327.149,435.867l-1.954,0.958c-0.451,0.222-0.437,0.869,0.024,1.068l7.147,3.094
		c0.158,0.068,0.338,0.064,0.492-0.011l1.955-0.957c0.451-0.222,0.437-0.87-0.025-1.069l-7.146-3.094
		C327.484,435.787,327.305,435.792,327.149,435.867z"/>
	<path fill="#CCA579" d="M270.41,430.656l-1.956,0.958c-0.451,0.22-0.437,0.868,0.024,1.069l7.147,3.093
		c0.159,0.067,0.339,0.063,0.493-0.013l1.956-0.957c0.45-0.221,0.435-0.868-0.025-1.068l-7.148-3.094
		C270.744,430.576,270.563,430.58,270.41,430.656z"/>
	<path fill="#CCA579" d="M285.876,416.702l-1.954,0.958c-0.451,0.221-0.438,0.868,0.024,1.068l7.147,3.094
		c0.158,0.068,0.338,0.063,0.492-0.012l1.955-0.958c0.452-0.221,0.437-0.869-0.025-1.068l-7.146-3.094
		C286.211,416.621,286.031,416.626,285.876,416.702z"/>
	<ellipse fill="#CCA579" cx="301.938" cy="434.315" rx="28.713" ry="17.152"/>
	<g opacity="0.75">
		<path fill="#F2C48E" d="M324.482,423.699l-45.91,20.581c5.208,4.351,13.73,7.189,23.366,7.189
			c15.857,0,28.713-7.681,28.713-17.154C330.651,430.306,328.342,426.62,324.482,423.699z"/>
	</g>
	<path fill="#FBDFC0" d="M323.033,446.23c0,0-0.138,0.088-0.396,0.258c-0.257,0.168-0.631,0.423-1.144,0.708
		c-0.503,0.302-1.128,0.629-1.853,0.991c-0.729,0.355-1.562,0.735-2.496,1.089c-0.93,0.359-1.953,0.712-3.053,1.029
		c-0.544,0.172-1.118,0.301-1.697,0.459c-0.585,0.134-1.183,0.271-1.797,0.384c-1.225,0.237-2.5,0.422-3.802,0.562
		c-1.302,0.131-2.63,0.229-3.96,0.247c-1.345,0.03-2.64-0.021-3.965-0.102c-1.307-0.084-2.586-0.237-3.82-0.411
		c-2.465-0.382-4.729-0.957-6.62-1.589c-0.947-0.31-1.8-0.64-2.543-0.963c-0.746-0.314-1.387-0.614-1.903-0.88
		c-0.523-0.256-0.919-0.483-1.188-0.638c-0.271-0.153-0.415-0.235-0.415-0.235l0.225-0.407c0,0,0.146,0.072,0.422,0.206
		c0.273,0.138,0.679,0.329,1.201,0.56c0.52,0.236,1.16,0.502,1.906,0.778c0.741,0.281,1.593,0.562,2.528,0.846
		c0.934,0.285,1.961,0.549,3.056,0.785c1.093,0.243,2.26,0.427,3.467,0.612c1.21,0.158,2.465,0.297,3.746,0.367
		c0.643,0.035,1.275,0.062,1.931,0.071l0.984,0.012l0.971-0.018c1.303-0.016,2.604-0.092,3.881-0.211
		c1.275-0.126,2.527-0.295,3.728-0.516c1.201-0.224,2.354-0.47,3.436-0.755c1.085-0.278,2.095-0.595,3.016-0.921
		c1.841-0.65,3.332-1.324,4.336-1.854c0.504-0.253,0.899-0.479,1.167-0.633c0.269-0.151,0.411-0.232,0.411-0.232L323.033,446.23z"/>
	<ellipse fill="#303A3E" cx="302.088" cy="433.885" rx="23.959" ry="13.792"/>
	<g opacity="0.59">
		<path fill="#47565A" d="M320.788,425.268l-37.87,16.892c4.371,3.35,11.33,5.518,19.17,5.518c13.232,0,23.96-6.175,23.96-13.792
			C326.048,430.623,324.076,427.627,320.788,425.268z"/>
	</g>
	<g>
		
			<ellipse transform="matrix(-0.9994 0.035 -0.035 -0.9994 414.291 776.6151)" fill="#946386" cx="200.35" cy="391.933" rx="2.01" ry="1.339"/>
		
			<ellipse transform="matrix(-0.9994 0.0352 -0.0352 -0.9994 414.4347 777.4667)" fill="#1C1318" cx="200.366" cy="392.385" rx="2.009" ry="1.157"/>
		
			<ellipse transform="matrix(-0.9994 0.035 -0.035 -0.9994 427.36 781.8541)" fill="#946386" cx="206.84" cy="394.666" rx="2.01" ry="1.338"/>
		
			<ellipse transform="matrix(-0.9994 0.0352 -0.0352 -0.9994 427.5003 782.707)" fill="#1C1318" cx="206.855" cy="395.12" rx="2.01" ry="1.156"/>
		
			<ellipse transform="matrix(-0.9994 0.035 -0.035 -0.9994 440.4316 787.0922)" fill="#946386" cx="213.328" cy="397.4" rx="2.009" ry="1.339"/>
		
			<ellipse transform="matrix(-0.9994 0.0352 -0.0352 -0.9994 440.572 787.9435)" fill="#1C1318" cx="213.344" cy="397.853" rx="2.01" ry="1.156"/>
		
			<ellipse transform="matrix(-0.9994 0.035 -0.035 -0.9994 453.4965 792.3323)" fill="#946386" cx="219.816" cy="400.134" rx="2.01" ry="1.338"/>
		
			<ellipse transform="matrix(-0.9994 0.0355 -0.0355 -0.9994 453.7353 793.1241)" fill="#1C1318" cx="219.832" cy="400.587" rx="2.01" ry="1.157"/>
		
			<ellipse transform="matrix(-0.9994 0.0352 -0.0352 -0.9994 466.6635 797.515)" fill="#946386" cx="226.306" cy="402.869" rx="2.01" ry="1.339"/>
		
			<ellipse transform="matrix(-0.9994 0.0352 -0.0352 -0.9994 466.7086 798.4194)" fill="#1C1318" cx="226.321" cy="403.321" rx="2.01" ry="1.156"/>
		
			<ellipse transform="matrix(-0.9994 0.0352 -0.0352 -0.9994 479.7303 802.7526)" fill="#946386" cx="232.794" cy="405.602" rx="2.01" ry="1.339"/>
		
			<ellipse transform="matrix(-0.9994 0.035 -0.035 -0.9994 479.6884 803.7137)" fill="#1C1318" cx="232.811" cy="406.055" rx="2.009" ry="1.157"/>
	</g>
	<g>
		<path fill="#171B1C" d="M302.088,421.354c12.865,0,23.359,5.838,23.932,13.161c0.016-0.209,0.028-0.419,0.028-0.63
			c0-7.616-10.728-13.792-23.96-13.792c-13.231,0-23.958,6.176-23.958,13.792c0,0.211,0.01,0.421,0.027,0.63
			C278.729,427.191,289.224,421.354,302.088,421.354z"/>
	</g>
	<ellipse fill="#FFFFFF" cx="302.088" cy="433.885" rx="1.668" ry="0.961"/>
	<path fill="#FBE2C5" d="M277.919,431.783c0,0,0.036-0.131,0.106-0.371c0.08-0.241,0.145-0.603,0.324-1.048
		c0.1-0.223,0.21-0.469,0.329-0.735c0.064-0.132,0.119-0.277,0.196-0.413c0.083-0.134,0.167-0.271,0.257-0.413
		c0.184-0.278,0.347-0.603,0.582-0.895c0.238-0.292,0.487-0.598,0.749-0.917c0.57-0.592,1.196-1.232,1.945-1.802
		c0.355-0.31,0.753-0.583,1.165-0.855c0.404-0.284,0.826-0.559,1.28-0.798c0.88-0.524,1.841-0.966,2.821-1.399
		c0.499-0.196,1.002-0.393,1.507-0.591c0.514-0.176,1.033-0.338,1.551-0.503c0.516-0.177,1.051-0.277,1.574-0.417l0.786-0.194
		c0.265-0.051,0.528-0.101,0.791-0.151c0.526-0.093,1.044-0.211,1.562-0.28c0.52-0.069,1.032-0.136,1.536-0.202
		c0.504-0.078,1.006-0.09,1.492-0.13c0.49-0.025,0.965-0.084,1.432-0.078c0.931-0.006,1.814-0.045,2.623-0.013
		c1.624,0.045,2.971,0.204,3.909,0.325c0.937,0.128,1.469,0.227,1.469,0.227l-0.052,0.345c0,0-0.53-0.073-1.464-0.156
		c-0.933-0.087-2.27-0.157-3.871-0.165c-0.804-0.011-1.667,0.051-2.585,0.078c-0.459,0.008-0.927,0.077-1.406,0.114
		c-0.478,0.056-0.972,0.067-1.465,0.149c-0.494,0.069-0.997,0.14-1.507,0.211c-0.509,0.073-1.016,0.193-1.531,0.288
		c-0.256,0.052-0.515,0.103-0.773,0.154l-0.769,0.198c-0.51,0.141-1.035,0.243-1.535,0.42c-0.507,0.161-1.014,0.322-1.519,0.482
		c-0.494,0.188-0.986,0.376-1.476,0.562c-0.956,0.415-1.896,0.837-2.754,1.337c-0.217,0.123-0.438,0.231-0.644,0.362
		c-0.204,0.133-0.406,0.265-0.605,0.395c-0.404,0.254-0.798,0.509-1.146,0.797c-0.739,0.531-1.354,1.131-1.917,1.684
		c-0.259,0.299-0.506,0.584-0.741,0.856c-0.238,0.269-0.405,0.568-0.595,0.826c-0.092,0.132-0.18,0.261-0.266,0.383
		c-0.079,0.127-0.134,0.257-0.198,0.378c-0.125,0.244-0.239,0.468-0.343,0.671c-0.193,0.417-0.28,0.787-0.37,1.021
		c-0.081,0.238-0.124,0.367-0.124,0.367L277.919,431.783z"/>
	<g>
		<path fill="#FFFFFF" d="M316.753,440.627c0,0,0.193,0.041,0.472,0.133c0.136,0.051,0.301,0.098,0.467,0.17
			c0.167,0.071,0.344,0.147,0.522,0.223c0.172,0.088,0.346,0.174,0.508,0.255s0.306,0.174,0.432,0.244
			c0.25,0.152,0.408,0.272,0.408,0.272c0.053,0.04,0.062,0.114,0.022,0.166c-0.029,0.039-0.076,0.055-0.119,0.045
			c0,0-0.194-0.042-0.472-0.133c-0.136-0.052-0.3-0.101-0.467-0.17c-0.167-0.071-0.346-0.146-0.523-0.223
			c-0.174-0.086-0.346-0.172-0.509-0.254c-0.163-0.078-0.305-0.175-0.433-0.244c-0.249-0.15-0.407-0.272-0.407-0.272
			c-0.051-0.04-0.061-0.115-0.021-0.168C316.662,440.634,316.709,440.618,316.753,440.627z"/>
		<path fill="#FFFFFF" d="M285.734,425.432c0,0,0.176,0.032,0.424,0.11c0.121,0.045,0.27,0.083,0.417,0.147
			c0.148,0.063,0.308,0.129,0.465,0.196c0.154,0.078,0.307,0.155,0.452,0.228c0.143,0.073,0.27,0.159,0.382,0.223
			c0.221,0.138,0.357,0.249,0.357,0.249c0.053,0.041,0.061,0.116,0.02,0.168c-0.029,0.035-0.074,0.052-0.116,0.044
			c0,0-0.174-0.035-0.422-0.113c-0.121-0.043-0.269-0.084-0.416-0.146c-0.149-0.062-0.309-0.128-0.467-0.195
			c-0.153-0.077-0.307-0.153-0.451-0.227c-0.146-0.07-0.271-0.158-0.383-0.222c-0.221-0.138-0.358-0.251-0.358-0.251
			c-0.052-0.041-0.059-0.116-0.017-0.169C285.649,425.44,285.694,425.424,285.734,425.432z"/>
		<path fill="#FFFFFF" d="M315.977,426.648c0,0,0.178-0.128,0.457-0.289c0.142-0.076,0.301-0.179,0.482-0.263
			c0.181-0.088,0.373-0.18,0.566-0.272c0.196-0.083,0.395-0.165,0.581-0.242c0.185-0.077,0.365-0.132,0.516-0.188
			c0.307-0.103,0.519-0.15,0.519-0.15c0.064-0.015,0.128,0.025,0.143,0.089c0.012,0.049-0.009,0.097-0.046,0.123
			c0,0-0.177,0.127-0.456,0.289c-0.144,0.075-0.303,0.175-0.484,0.263c-0.18,0.087-0.372,0.181-0.564,0.274
			c-0.198,0.082-0.395,0.165-0.58,0.242c-0.186,0.079-0.367,0.132-0.518,0.187c-0.306,0.103-0.519,0.149-0.519,0.149
			c-0.064,0.015-0.128-0.025-0.143-0.089C315.92,426.723,315.94,426.675,315.977,426.648z"/>
		<path fill="#FFFFFF" d="M284.844,442.166c0,0,0.164-0.124,0.425-0.275c0.131-0.072,0.279-0.168,0.449-0.248
			c0.168-0.082,0.348-0.169,0.527-0.256c0.185-0.076,0.369-0.152,0.541-0.224c0.175-0.072,0.344-0.122,0.484-0.173
			c0.286-0.093,0.485-0.135,0.485-0.135c0.064-0.015,0.128,0.026,0.142,0.09c0.011,0.049-0.009,0.094-0.046,0.121
			c0,0-0.164,0.122-0.424,0.273c-0.131,0.072-0.281,0.166-0.449,0.248s-0.347,0.17-0.526,0.257
			c-0.185,0.077-0.369,0.153-0.542,0.226c-0.172,0.074-0.343,0.121-0.483,0.173c-0.287,0.093-0.486,0.134-0.486,0.134
			c-0.065,0.014-0.128-0.027-0.142-0.092C284.789,442.237,284.809,442.192,284.844,442.166z"/>
		<path fill="#FFFFFF" d="M308.104,423.572c0,0,0.015-0.132,0.067-0.318c0.031-0.09,0.057-0.201,0.105-0.31
			c0.047-0.109,0.097-0.227,0.147-0.342c0.061-0.111,0.122-0.224,0.179-0.328c0.058-0.104,0.127-0.193,0.179-0.274
			c0.113-0.156,0.206-0.252,0.206-0.252c0.048-0.049,0.126-0.049,0.175,0c0.028,0.027,0.04,0.065,0.036,0.102
			c0,0-0.018,0.134-0.07,0.318c-0.033,0.09-0.06,0.201-0.105,0.311c-0.047,0.109-0.097,0.226-0.146,0.344
			c-0.062,0.111-0.121,0.223-0.178,0.326c-0.056,0.105-0.127,0.193-0.179,0.275c-0.112,0.156-0.209,0.251-0.209,0.251
			c-0.048,0.048-0.126,0.048-0.174,0C308.11,423.646,308.1,423.609,308.104,423.572z"/>
		<path fill="#FFFFFF" d="M295.219,446.221c0,0,0.022-0.146,0.086-0.352c0.035-0.099,0.065-0.223,0.12-0.343
			c0.053-0.122,0.109-0.25,0.165-0.38c0.067-0.124,0.135-0.248,0.197-0.365c0.064-0.116,0.139-0.216,0.195-0.307
			c0.122-0.175,0.222-0.283,0.222-0.283c0.046-0.05,0.123-0.053,0.173-0.007c0.03,0.028,0.043,0.069,0.037,0.107
			c0,0-0.023,0.146-0.086,0.351c-0.036,0.101-0.069,0.222-0.12,0.343c-0.054,0.123-0.108,0.251-0.166,0.38
			c-0.066,0.126-0.133,0.25-0.195,0.366c-0.061,0.116-0.14,0.217-0.195,0.307c-0.122,0.177-0.223,0.284-0.223,0.284
			c-0.046,0.048-0.124,0.051-0.173,0.005C295.226,446.299,295.214,446.258,295.219,446.221z"/>
		<path fill="#FFFFFF" d="M297.974,423.672c0,0-0.081-0.118-0.169-0.306c-0.039-0.095-0.099-0.202-0.136-0.324
			c-0.04-0.121-0.085-0.25-0.128-0.379c-0.033-0.132-0.064-0.265-0.094-0.389c-0.03-0.126-0.04-0.246-0.058-0.348
			c-0.025-0.205-0.022-0.348-0.022-0.348c0.002-0.067,0.058-0.121,0.125-0.12c0.041,0.002,0.077,0.023,0.098,0.055
			c0,0,0.08,0.119,0.169,0.306c0.04,0.096,0.095,0.203,0.137,0.324c0.041,0.121,0.084,0.251,0.129,0.38
			c0.031,0.133,0.063,0.265,0.095,0.389c0.031,0.123,0.04,0.245,0.058,0.347c0.025,0.205,0.021,0.349,0.021,0.349
			c-0.002,0.067-0.059,0.12-0.127,0.118C298.03,423.725,297.995,423.703,297.974,423.672z"/>
		<path fill="#FFFFFF" d="M306.161,446.646c0,0-0.081-0.123-0.173-0.316c-0.039-0.099-0.099-0.21-0.139-0.335
			c-0.043-0.126-0.087-0.26-0.131-0.393c-0.034-0.137-0.068-0.274-0.099-0.403c-0.031-0.129-0.042-0.253-0.061-0.357
			c-0.027-0.212-0.026-0.359-0.026-0.359c0.002-0.067,0.057-0.121,0.125-0.12c0.041,0.001,0.077,0.023,0.1,0.056
			c0,0,0.08,0.123,0.17,0.316c0.041,0.099,0.099,0.211,0.141,0.335c0.043,0.126,0.088,0.259,0.133,0.393
			c0.033,0.137,0.067,0.273,0.1,0.402c0.032,0.128,0.041,0.253,0.061,0.357c0.026,0.214,0.023,0.36,0.023,0.36
			c-0.001,0.066-0.057,0.121-0.125,0.119C306.22,446.698,306.182,446.677,306.161,446.646z"/>
		<path fill="#FFFFFF" d="M283.954,437.296c0,0-0.205,0.076-0.516,0.16c-0.158,0.037-0.339,0.095-0.537,0.13
			c-0.196,0.037-0.406,0.077-0.617,0.117c-0.212,0.028-0.425,0.057-0.624,0.083s-0.388,0.032-0.549,0.047
			c-0.322,0.021-0.541,0.011-0.541,0.011c-0.064-0.001-0.116-0.057-0.114-0.122c0.002-0.049,0.035-0.091,0.078-0.107
			c0,0,0.204-0.076,0.516-0.16c0.157-0.037,0.339-0.091,0.536-0.129c0.196-0.038,0.407-0.078,0.617-0.118
			c0.213-0.029,0.426-0.059,0.624-0.085c0.199-0.029,0.389-0.032,0.547-0.046c0.323-0.021,0.542-0.011,0.542-0.011
			c0.064,0.002,0.116,0.058,0.114,0.124C284.027,437.237,283.997,437.279,283.954,437.296z"/>
		<path fill="#FFFFFF" d="M323.962,430.793c0,0-0.214,0.08-0.54,0.166c-0.164,0.038-0.353,0.097-0.56,0.133
			c-0.205,0.04-0.425,0.08-0.646,0.123c-0.222,0.029-0.443,0.06-0.651,0.088c-0.208,0.027-0.404,0.034-0.572,0.05
			c-0.336,0.021-0.564,0.016-0.564,0.016c-0.065-0.002-0.117-0.057-0.115-0.122c0.001-0.05,0.033-0.092,0.078-0.107
			c0,0,0.214-0.079,0.54-0.165c0.163-0.038,0.353-0.093,0.56-0.133c0.205-0.039,0.425-0.081,0.646-0.123
			c0.221-0.03,0.443-0.061,0.65-0.089c0.208-0.03,0.405-0.035,0.573-0.051c0.336-0.021,0.563-0.015,0.563-0.015
			c0.066,0.003,0.116,0.058,0.114,0.124C324.036,430.736,324.006,430.777,323.962,430.793z"/>
		<path fill="#FFFFFF" d="M283.329,432.107c0,0-0.197,0.023-0.492,0.025c-0.147-0.003-0.318,0.005-0.501-0.011
			c-0.184-0.014-0.378-0.028-0.573-0.042c-0.192-0.026-0.386-0.054-0.566-0.077c-0.182-0.026-0.35-0.066-0.493-0.094
			c-0.287-0.064-0.477-0.126-0.477-0.126c-0.062-0.021-0.096-0.088-0.076-0.15c0.016-0.045,0.056-0.076,0.1-0.081
			c0,0,0.199-0.022,0.494-0.024c0.146,0.004,0.317-0.002,0.501,0.01c0.182,0.014,0.376,0.028,0.571,0.042
			c0.192,0.026,0.386,0.052,0.567,0.077c0.182,0.021,0.348,0.066,0.492,0.092c0.289,0.063,0.479,0.127,0.479,0.127
			c0.062,0.021,0.096,0.091,0.073,0.151C283.413,432.072,283.373,432.103,283.329,432.107z"/>
		<path fill="#FFFFFF" d="M324.269,436.383c0,0-0.227,0.021-0.562,0.019c-0.166-0.006-0.362,0-0.57-0.018s-0.43-0.034-0.651-0.052
			c-0.22-0.028-0.439-0.058-0.646-0.085c-0.206-0.028-0.397-0.072-0.562-0.102c-0.328-0.065-0.546-0.132-0.546-0.132
			c-0.062-0.02-0.098-0.086-0.078-0.148c0.014-0.048,0.056-0.08,0.103-0.083c0,0,0.226-0.021,0.561-0.019
			c0.167,0.007,0.362,0.004,0.571,0.019c0.206,0.016,0.429,0.032,0.65,0.05c0.22,0.028,0.44,0.058,0.647,0.085
			c0.207,0.025,0.397,0.071,0.562,0.101c0.328,0.066,0.544,0.133,0.544,0.133c0.062,0.021,0.098,0.086,0.077,0.149
			C324.356,436.347,324.314,436.379,324.269,436.383z"/>
	</g>
	<path fill="#FFFFFF" d="M317.641,442.844c0,0,0.915,0.03,1.986-0.704c1.071-0.736,1.209-1.146,1.209-1.146l-6.221-1.261
		L317.641,442.844z"/>
	<path fill="#FFFFFF" d="M302.91,439.951c0,0,0.708-0.365,1.785-0.881c0.541-0.254,1.167-0.562,1.846-0.869
		c0.681-0.308,1.405-0.638,2.13-0.967c0.729-0.319,1.459-0.638,2.143-0.936c0.688-0.291,1.329-0.562,1.88-0.794
		c1.104-0.455,1.848-0.741,1.848-0.741c0.061-0.022,0.129,0.007,0.151,0.067c0.022,0.056-0.003,0.118-0.056,0.146
		c0,0-0.711,0.363-1.787,0.879c-0.54,0.255-1.17,0.552-1.846,0.869c-0.679,0.309-1.404,0.639-2.129,0.969
		c-0.729,0.318-1.458,0.638-2.142,0.938s-1.331,0.561-1.88,0.792c-1.104,0.457-1.85,0.741-1.85,0.741
		c-0.06,0.023-0.127-0.008-0.149-0.068C302.833,440.04,302.857,439.978,302.91,439.951z"/>
	<polygon fill="#FFFFFF" points="301.911,434.452 291.188,432.233 290.947,431.565 292.426,431.455 302.562,433.569 	"/>
	<polygon fill="#FFFFFF" points="301.803,434.67 313.764,429.194 314.289,428.069 312.188,428.689 300.714,433.942 	"/>
	<path fill="#303A3E" d="M303.639,433.113c0,0,0.552-0.304,1.393-0.727c0.423-0.208,0.911-0.462,1.444-0.711
		c0.531-0.251,1.1-0.519,1.667-0.787c0.573-0.257,1.145-0.515,1.682-0.755c0.537-0.241,1.045-0.45,1.479-0.636
		c0.869-0.364,1.457-0.588,1.457-0.588c0.06-0.023,0.127,0.007,0.15,0.067c0.021,0.056-0.002,0.116-0.053,0.144
		c0,0-0.553,0.302-1.395,0.725c-0.423,0.208-0.911,0.46-1.442,0.712c-0.532,0.252-1.101,0.521-1.667,0.788
		c-0.573,0.258-1.146,0.516-1.682,0.757c-0.536,0.242-1.045,0.448-1.479,0.635c-0.868,0.365-1.458,0.587-1.458,0.587
		c-0.06,0.022-0.127-0.008-0.149-0.067C303.564,433.201,303.588,433.141,303.639,433.113z"/>
	<path fill="#303A3E" d="M292.279,431.834c0,0,0.481,0.056,1.197,0.174c0.357,0.064,0.777,0.125,1.221,0.215
		c0.444,0.089,0.919,0.184,1.393,0.277c0.472,0.106,0.943,0.211,1.385,0.311c0.442,0.1,0.852,0.211,1.203,0.297
		c0.704,0.182,1.167,0.323,1.167,0.323c0.062,0.02,0.097,0.084,0.078,0.146c-0.017,0.056-0.07,0.089-0.126,0.083
		c0,0-0.482-0.06-1.199-0.177c-0.355-0.063-0.774-0.127-1.219-0.214c-0.444-0.089-0.918-0.183-1.394-0.276
		c-0.472-0.105-0.942-0.211-1.386-0.309c-0.441-0.099-0.85-0.212-1.202-0.297c-0.702-0.183-1.166-0.326-1.166-0.326
		c-0.062-0.02-0.097-0.084-0.077-0.145C292.171,431.861,292.225,431.827,292.279,431.834z"/>
	<g>
		<path fill="#1C1318" d="M369.195,477.822c-1.673-0.845,0.287-2.514,0.287-2.514l21.124-9.848c0,0,0.839-0.241,1.607-0.221
			c0,0,2.504,0.645,5.509,1.716c1.682,0.738,0.736,1.944,0.736,1.944c0.542-2.006-1.703-0.823-1.703-0.823l-20.238,9.434
			c0,0-1.879,1.601-0.275,2.408L369.195,477.822z"/>
	</g>
	<g opacity="0.51">
		<path fill="#946386" d="M394.312,468.401c0,0-1.03,0.515-2.577,1.286c-0.777,0.375-1.685,0.813-2.656,1.284
			c-0.976,0.46-2.018,0.953-3.059,1.444c-1.046,0.48-2.093,0.963-3.073,1.413c-0.984,0.442-1.904,0.855-2.692,1.208
			c-1.584,0.689-2.641,1.149-2.641,1.149c-0.06,0.025-0.128-0.002-0.153-0.062c-0.024-0.058,0-0.123,0.055-0.15
			c0,0,1.031-0.514,2.577-1.284c0.777-0.377,1.686-0.815,2.657-1.284c0.976-0.462,2.017-0.954,3.058-1.445
			c1.047-0.482,2.092-0.963,3.073-1.414c0.984-0.442,1.903-0.855,2.692-1.21c1.584-0.688,2.641-1.146,2.641-1.146
			c0.06-0.025,0.127,0.002,0.153,0.061C394.393,468.308,394.367,468.374,394.312,468.401z"/>
	</g>
	<g opacity="0.51">
		<path fill="#946386" d="M389.696,466.284c0,0-1.031,0.515-2.577,1.286c-0.778,0.376-1.684,0.814-2.656,1.284
			c-0.977,0.461-2.018,0.953-3.059,1.445c-1.046,0.48-2.093,0.962-3.073,1.412c-0.986,0.442-1.905,0.854-2.692,1.209
			c-1.585,0.689-2.642,1.147-2.642,1.147c-0.058,0.025-0.127-0.001-0.153-0.061c-0.024-0.057,0-0.122,0.056-0.149
			c0,0,1.03-0.515,2.577-1.285c0.777-0.376,1.685-0.814,2.657-1.284c0.976-0.461,2.017-0.953,3.058-1.446
			c1.047-0.481,2.093-0.962,3.072-1.413c0.986-0.443,1.904-0.854,2.692-1.21c1.585-0.688,2.642-1.146,2.642-1.146
			c0.06-0.025,0.128,0.001,0.153,0.061C389.776,466.191,389.751,466.257,389.696,466.284z"/>
	</g>
	<g>
		<path fill="#1C1318" d="M380.528,482.398c-1.674-0.844,0.287-2.513,0.287-2.513l19.798-9.221c0,0,0.838-0.242,1.606-0.222
			c0,0,2.505,0.644,5.51,1.716c1.682,0.737,0.737,1.944,0.737,1.944c0.541-2.007-1.704-0.824-1.704-0.824l-18.912,8.809
			c0,0-1.878,1.6-0.275,2.408L380.528,482.398z"/>
	</g>
	<g opacity="0.56">
		<path fill="#946386" d="M404.215,473.562c0,0-1.03,0.516-2.577,1.286c-0.777,0.376-1.685,0.814-2.657,1.285
			c-0.976,0.46-2.016,0.952-3.058,1.444c-1.046,0.48-2.092,0.961-3.073,1.413c-0.986,0.441-1.905,0.854-2.692,1.208
			c-1.584,0.689-2.641,1.147-2.641,1.147c-0.06,0.025-0.129-0.001-0.153-0.06c-0.024-0.058,0-0.123,0.055-0.151
			c0,0,1.03-0.514,2.577-1.285c0.777-0.375,1.685-0.813,2.656-1.284c0.977-0.46,2.018-0.953,3.058-1.445
			c1.047-0.48,2.094-0.962,3.073-1.414c0.986-0.442,1.905-0.854,2.692-1.208c1.585-0.688,2.642-1.146,2.642-1.146
			c0.059-0.025,0.128,0.001,0.153,0.06C404.295,473.469,404.27,473.534,404.215,473.562z"/>
	</g>
	<g opacity="0.56">
		<path fill="#946386" d="M400.021,471.11c0,0-1.031,0.514-2.577,1.286c-0.777,0.376-1.686,0.814-2.657,1.283
			c-0.977,0.462-2.018,0.953-3.06,1.444c-1.045,0.482-2.092,0.963-3.072,1.414c-0.985,0.442-1.904,0.854-2.691,1.209
			c-1.585,0.688-2.643,1.147-2.643,1.147c-0.059,0.025-0.127-0.001-0.152-0.061c-0.025-0.057,0-0.122,0.056-0.149
			c0,0,1.03-0.515,2.576-1.286c0.777-0.375,1.685-0.814,2.656-1.284c0.976-0.462,2.018-0.953,3.06-1.445
			c1.045-0.481,2.092-0.963,3.072-1.413c0.985-0.443,1.905-0.856,2.692-1.21c1.585-0.688,2.642-1.146,2.642-1.146
			c0.059-0.026,0.127,0.001,0.153,0.062C400.1,471.016,400.075,471.082,400.021,471.11z"/>
	</g>
	<path fill="#F2C48E" d="M420.938,480.634l-19.964,9.086c-0.388,0.175-0.391,0.724-0.006,0.903l4.367,2.054
		c0.133,0.063,0.285,0.064,0.419,0.003l19.965-9.086c0.388-0.176,0.39-0.724,0.006-0.904l-4.368-2.054
		C421.225,480.574,421.072,480.572,420.938,480.634z"/>
	<g opacity="0.51">
		<path fill="#FFFFFF" d="M402.62,490.513c0,0,0.299,0.132,0.82,0.36c0.261,0.115,0.577,0.254,0.941,0.412
			c0.18,0.08,0.373,0.165,0.577,0.254c0.196,0.072,0.451,0.239,0.552,0.207c0.048,0,0.169-0.072,0.286-0.123
			c0.115-0.055,0.231-0.11,0.351-0.167c0.238-0.111,0.484-0.228,0.737-0.347c0.506-0.238,1.04-0.487,1.593-0.746
			c1.108-0.51,2.291-1.055,3.473-1.598c1.187-0.535,2.375-1.068,3.487-1.568c1.117-0.491,2.158-0.951,3.052-1.344
			c1.797-0.768,2.993-1.278,2.993-1.278c0.059-0.025,0.128,0.002,0.152,0.061c0.026,0.058,0,0.124-0.057,0.15
			c0,0-1.171,0.567-2.93,1.416c-0.882,0.416-1.914,0.901-3.018,1.42c-1.107,0.511-2.291,1.056-3.472,1.601
			c-1.188,0.533-2.375,1.066-3.488,1.567c-0.558,0.247-1.096,0.486-1.608,0.712c-0.255,0.112-0.505,0.223-0.746,0.327
			c-0.12,0.053-0.238,0.104-0.354,0.155c-0.119,0.042-0.21,0.118-0.408,0.146c-0.173,0.027-0.362-0.067-0.443-0.11
			c-0.104-0.052-0.206-0.102-0.307-0.151c-0.198-0.1-0.387-0.194-0.563-0.283c-0.355-0.178-0.664-0.333-0.92-0.461
			c-0.508-0.256-0.799-0.401-0.799-0.401c-0.057-0.029-0.08-0.1-0.052-0.156C402.497,490.512,402.563,490.488,402.62,490.513z"/>
	</g>
	<g opacity="0.29">
		<path fill="#010101" d="M404.288,488.694c0,0,0.925-0.495,2.33-1.189c0.707-0.34,1.522-0.756,2.411-1.167
			c0.888-0.414,1.836-0.854,2.782-1.296c0.956-0.424,1.91-0.848,2.806-1.245c0.896-0.398,1.743-0.743,2.463-1.051
			c1.448-0.604,2.426-0.978,2.426-0.978c0.092-0.036,0.195,0.011,0.23,0.103c0.033,0.085-0.005,0.18-0.082,0.222
			c0,0-0.925,0.492-2.33,1.188c-0.706,0.34-1.522,0.753-2.411,1.167c-0.888,0.413-1.835,0.855-2.781,1.297
			c-0.956,0.425-1.91,0.849-2.805,1.247c-0.894,0.4-1.744,0.742-2.464,1.052c-1.446,0.604-2.426,0.976-2.426,0.976
			c-0.093,0.034-0.195-0.012-0.231-0.104C404.174,488.83,404.212,488.735,404.288,488.694z"/>
	</g>
	<path fill="#A78563" d="M411.74,486.437l-8.062-4.225c-0.228-0.117-0.216-0.444,0.019-0.546l1.82-0.782
		c0.083-0.036,0.178-0.032,0.257,0.009l8.061,4.225c0.227,0.116,0.217,0.444-0.019,0.546l-1.819,0.781
		C411.914,486.48,411.82,486.477,411.74,486.437z"/>
	<g opacity="0.51">
		<path fill="#FFFFFF" d="M413.151,485.317c0,0-0.463,0.247-1.171,0.587c-0.046,0.021-0.093,0.044-0.142,0.066
			c-0.081,0.034-0.177,0.047-0.269,0.028c-0.044-0.007-0.1-0.029-0.128-0.045l-0.073-0.035l-0.149-0.072
			c-0.203-0.096-0.417-0.198-0.636-0.312c-0.437-0.223-0.902-0.461-1.368-0.698c-0.461-0.248-0.921-0.496-1.353-0.729
			c-0.432-0.234-0.825-0.468-1.169-0.659c-0.679-0.394-1.122-0.675-1.122-0.675c-0.055-0.034-0.07-0.105-0.036-0.16
			c0.03-0.05,0.093-0.066,0.144-0.045c0,0,0.483,0.204,1.194,0.539c0.352,0.173,0.769,0.363,1.206,0.585
			c0.438,0.224,0.902,0.46,1.369,0.698c0.461,0.248,0.92,0.496,1.354,0.729c0.217,0.113,0.421,0.233,0.617,0.344
			c0.081,0.047,0.16,0.092,0.237,0.136c0.011,0.005,0.021,0.006,0.035,0.002l0.135-0.052c0.734-0.28,1.232-0.446,1.232-0.446
			c0.061-0.021,0.127,0.014,0.147,0.073C413.225,485.232,413.201,485.291,413.151,485.317z"/>
	</g>
</g>
<g>
	<path fill="#4E5155" d="M362.166,195.23c2.222-12.784,49.958-74.604,34.808-86.7c-12.146-9.849-29.2,2.271-29.2,2.271l-4.6,16.978
		c0,0,19.93-19.052,28.471-12.127c8.542,6.926-29.774,58.461-29.774,58.461L362.166,195.23z"/>
	<g opacity="0.35">
		<path fill="#202224" d="M367.2,169.148l0.294,18.854c0.56-3.216,3.961-9.249,8.5-16.669l1.912-20.435
			C372.513,159.502,367.793,165.73,367.2,169.148z"/>
	</g>
	<g>
		<path fill="#686B71" d="M397.434,139.253c4.515-10.147,9.037-23.284-1.094-31.356c-10.129-8.072-30.021,14.509-30.021,14.509
			c0.096,2.904-0.665,10.496-0.422,10.499c3.824-3.332,19.521-27.699,29.651-16.145c10.13,11.555-24.766,52.778-30.444,65.811
			l-0.19,13.755C366.42,187.667,387.952,160.56,397.434,139.253z"/>
	</g>
	<g opacity="0.37">
		<path fill="#FFFFFF" d="M379.25,116.16c0,0,0.198-0.137,0.573-0.395c0.381-0.258,0.937-0.63,1.681-1.055
			c0.743-0.424,1.663-0.916,2.771-1.385c1.109-0.466,2.416-0.904,3.924-1.104c1.493-0.198,3.252-0.137,4.915,0.644
			c0.826,0.381,1.595,0.946,2.248,1.628c0.662,0.691,1.191,1.455,1.664,2.342c0.097,0.211,0.199,0.387,0.294,0.646l0.145,0.367
			l0.112,0.357c0.149,0.478,0.243,0.967,0.32,1.458c0.141,0.985,0.152,1.979,0.092,2.964c-0.128,1.973-0.55,3.913-1.099,5.796
			c-1.107,3.767-2.697,7.331-4.327,10.581c-1.646,3.243-3.354,6.17-4.868,8.645c-0.754,1.239-1.484,2.348-2.133,3.333
			c-0.648,0.984-1.227,1.832-1.706,2.528c-0.965,1.389-1.55,2.163-1.55,2.163c-0.115,0.153-0.332,0.184-0.484,0.069
			c-0.147-0.11-0.18-0.315-0.081-0.467c0,0,0.524-0.8,1.415-2.227c0.446-0.712,0.982-1.581,1.584-2.584
			c0.605-1.002,1.263-2.148,1.988-3.391c1.439-2.494,3.047-5.445,4.598-8.68c0.782-1.614,1.546-3.302,2.251-5.042
			c0.706-1.738,1.361-3.526,1.885-5.343c0.514-1.817,0.919-3.664,1.046-5.479c0.128-1.816-0.046-3.585-0.785-5.072
			c-0.365-0.711-0.841-1.431-1.376-2.002c-0.539-0.581-1.156-1.045-1.819-1.385c-1.333-0.686-2.835-0.806-4.191-0.671
			c-1.367,0.132-2.606,0.512-3.686,0.887c-1.077,0.388-1.991,0.815-2.733,1.187c-0.74,0.376-1.313,0.697-1.698,0.919
			c-0.387,0.229-0.594,0.349-0.594,0.349l-0.004,0.002c-0.164,0.096-0.376,0.042-0.474-0.123
			C379.056,116.464,379.103,116.263,379.25,116.16z"/>
	</g>
	<path opacity="0.24" fill="#3E4147" d="M367.722,200.072l-83.834-45.585c-4.328-1.699-10.899-3.068-18.677-1.583
		c-5.06,0.965-15.647,3.808-21.21,6.964c-8.847,5.019-14.737,12.891-14.737,16.404c0,1.841,1.098,3.358,3.024,4.489l86.895,34.083
		L367.722,200.072z"/>
	<ellipse fill="#502B2B" cx="338.867" cy="201.687" rx="31.118" ry="18.59"/>
	<ellipse fill="#F59092" cx="338.867" cy="96.676" rx="41.186" ry="24.604"/>
	<g>
		<path fill="#4E5155" d="M379.714,99.597l-10.062,104.606l0.334-2.516c0,10.268-13.932,18.59-31.118,18.59
			c-17.188,0-31.118-8.322-31.118-18.59l0.146,1.649L297.833,98.729l-0.152-2.054c0,13.589,18.44,24.604,41.187,24.604
			s41.186-11.015,41.186-24.604L379.714,99.597z"/>
	</g>
	<ellipse fill="#494C50" cx="339.141" cy="95.848" rx="37.396" ry="21.232"/>
	<g>
		<path fill="#301F2B" d="M339.141,117.079c15.514,0,28.818-5.362,34.481-13.001c-5.663-7.638-18.968-13.001-34.481-13.001
			c-15.512,0-28.816,5.363-34.48,13.001C310.324,111.716,323.629,117.079,339.141,117.079z"/>
	</g>
	<g opacity="0.67">
		<path fill="#1C1319" d="M339.141,93.448c14.696,0,27.407,4.814,33.521,11.815c0.339-0.39,0.663-0.783,0.961-1.186
			c-5.663-7.638-18.968-13.001-34.481-13.001c-15.512,0-28.816,5.363-34.48,13.001c0.298,0.403,0.622,0.796,0.962,1.186
			C311.734,98.263,324.445,93.448,339.141,93.448z"/>
	</g>
	<g opacity="0.45">
		<path fill="#686B71" d="M343.305,82.48c14.333,0,26.777,4.58,33.054,11.301c-1.83-10.755-17.793-19.165-37.218-19.165
			c-20.652,0-37.396,9.505-37.396,21.232c0,3.588,1.573,6.966,4.343,9.929c-0.116-0.679-0.179-1.368-0.179-2.065
			C305.909,91.985,322.65,82.48,343.305,82.48z"/>
	</g>
	<g opacity="0.56">
		<path fill="#FFFFFF" d="M348.74,75.646c0,0-0.758-0.089-2.076-0.204c-1.321-0.123-3.213-0.226-5.479-0.262
			c-0.567-0.008-1.158-0.009-1.77,0c-0.586,0.009-1.244,0.045-1.892,0.068c-1.32,0.024-2.666,0.172-4.071,0.27
			c-1.402,0.167-2.859,0.312-4.319,0.575c-1.468,0.213-2.938,0.546-4.406,0.879c-0.729,0.187-1.458,0.374-2.184,0.559
			c-0.715,0.222-1.428,0.443-2.135,0.662c-1.398,0.482-2.771,0.968-4.056,1.544c-0.655,0.26-1.271,0.575-1.879,0.871
			c-0.305,0.148-0.606,0.293-0.904,0.438c-0.288,0.162-0.572,0.321-0.853,0.479c-1.137,0.608-2.141,1.298-3.067,1.932
			c-0.444,0.341-0.871,0.668-1.277,0.978c-0.404,0.312-0.75,0.654-1.096,0.95c-0.17,0.151-0.335,0.298-0.495,0.438
			c-0.154,0.146-0.288,0.3-0.425,0.442c-0.271,0.287-0.52,0.55-0.743,0.788c-0.436,0.487-0.729,0.909-0.954,1.179
			c-0.218,0.275-0.334,0.423-0.334,0.423l-0.021,0.026c-0.109,0.139-0.311,0.162-0.448,0.053c-0.132-0.104-0.16-0.293-0.067-0.429
			c0,0,0.108-0.162,0.312-0.463c0.101-0.151,0.227-0.337,0.375-0.557c0.156-0.212,0.302-0.486,0.533-0.735
			c0.219-0.26,0.462-0.547,0.727-0.86c0.134-0.155,0.267-0.324,0.418-0.486c0.157-0.155,0.32-0.315,0.488-0.481
			c0.341-0.327,0.685-0.703,1.086-1.049c0.409-0.338,0.84-0.694,1.287-1.066c0.936-0.69,1.956-1.438,3.108-2.105
			c0.285-0.173,0.574-0.347,0.867-0.524c0.301-0.159,0.606-0.321,0.916-0.484c0.616-0.33,1.25-0.663,1.918-0.942
			c1.315-0.612,2.716-1.149,4.151-1.653c0.725-0.229,1.455-0.459,2.189-0.691c0.743-0.195,1.49-0.391,2.236-0.587
			c0.746-0.194,1.509-0.321,2.26-0.483c0.75-0.169,1.507-0.276,2.256-0.395c1.496-0.267,2.984-0.375,4.422-0.524
			c1.446-0.085,2.854-0.184,4.156-0.162c0.662,0,1.277-0.014,1.924-0.004c0.621,0.013,1.222,0.035,1.797,0.063
			c2.304,0.101,4.209,0.359,5.538,0.544c0.664,0.092,1.184,0.189,1.538,0.251c0.352,0.065,0.539,0.099,0.539,0.099h0.004
			c0.173,0.034,0.288,0.201,0.256,0.375C349.061,75.552,348.906,75.665,348.74,75.646z"/>
	</g>
	<g>
		<path fill="#4E5155" d="M379.714,99.597l-10.062,104.606l0.334-2.516c0,10.268-13.932,18.59-31.118,18.59
			c-17.188,0-31.118-8.322-31.118-18.59l0.146,1.649L297.833,98.729l-0.152-2.054c0,13.589,18.44,24.604,41.187,24.604
			s41.186-11.015,41.186-24.604L379.714,99.597z"/>
	</g>
	<path fill="#F59092" d="M338.862,142.241c-17.284,0-32.319-6.209-38.301-15.139l1.369,14.234
		c8.379,7.057,21.915,11.588,36.932,11.588c15.153,0,28.51-4.416,36.815-11.371l1.376-14.302
		C371.007,136.043,356.043,142.241,338.862,142.241z"/>
	<path fill="#F59092" d="M338.862,167.148c-15.116,0-28.511-5.177-35.636-12.341l1.247,12.963
		c8.439,5.928,20.81,10.458,34.389,10.458c13.699,0,25.917-4.441,34.276-10.272l1.257-13.074
		C367.25,161.967,353.908,167.148,338.862,167.148z"/>
	<g>
		<path fill="#37393C" d="M364.396,212.381c0,0-0.145,0.126-0.418,0.363c-0.273,0.236-0.655,0.594-1.229,1.004
			c-0.554,0.432-1.245,0.895-2.054,1.414c-0.413,0.244-0.844,0.521-1.315,0.781c-0.477,0.248-0.971,0.527-1.507,0.776
			c-1.064,0.51-2.237,1.03-3.515,1.471c-1.269,0.473-2.64,0.869-4.07,1.228c-1.433,0.336-2.925,0.655-4.46,0.849
			c-0.383,0.052-0.768,0.103-1.154,0.155c-0.387,0.038-0.775,0.074-1.164,0.112c-0.778,0.086-1.562,0.118-2.346,0.163
			c-0.791,0.034-1.556,0.031-2.364,0.043c-0.769-0.016-1.521-0.019-2.31-0.068c-1.558-0.069-3.062-0.233-4.52-0.446
			c-1.459-0.198-2.854-0.494-4.163-0.811c-1.313-0.304-2.529-0.7-3.646-1.07c-1.11-0.391-2.113-0.79-2.982-1.191
			c-0.872-0.39-1.615-0.77-2.219-1.093c-0.606-0.32-1.065-0.604-1.376-0.8c-0.312-0.193-0.478-0.295-0.478-0.295
			c-0.226-0.14-0.297-0.435-0.157-0.661c0.131-0.211,0.395-0.287,0.613-0.184l0.021,0.01c0,0,0.171,0.081,0.492,0.234
			c0.161,0.077,0.358,0.171,0.59,0.282c0.235,0.104,0.507,0.223,0.811,0.355c0.606,0.265,1.35,0.572,2.219,0.879
			c0.864,0.316,1.86,0.618,2.945,0.94c1.095,0.292,2.281,0.598,3.557,0.845c1.271,0.255,2.622,0.469,4.027,0.633
			c0.701,0.095,1.42,0.146,2.144,0.214c0.728,0.042,1.466,0.097,2.197,0.118c0.725,0.04,1.499,0.038,2.265,0.047
			c0.723-0.02,1.499-0.021,2.245-0.062c0.752-0.047,1.507-0.062,2.255-0.142c0.373-0.032,0.747-0.066,1.119-0.098
			c0.37-0.046,0.74-0.092,1.108-0.138c1.472-0.187,2.91-0.434,4.293-0.725c1.374-0.319,2.703-0.639,3.934-1.036
			c0.623-0.182,1.213-0.396,1.785-0.601c0.581-0.187,1.117-0.427,1.645-0.628c1.041-0.436,1.979-0.874,2.796-1.29
			c0.809-0.429,1.514-0.82,2.054-1.175c0.551-0.334,0.992-0.642,1.287-0.849c0.297-0.206,0.455-0.316,0.455-0.316
			c0.219-0.15,0.519-0.097,0.67,0.122C364.617,211.948,364.58,212.223,364.396,212.381z"/>
	</g>
	<g opacity="0.67">
		<path fill="#FFFFFF" d="M372.806,110.311c0,0-0.165,0.14-0.475,0.399c-0.155,0.13-0.346,0.29-0.57,0.479
			c-0.112,0.094-0.232,0.196-0.361,0.304c-0.138,0.101-0.284,0.208-0.437,0.323c-0.311,0.227-0.652,0.479-1.026,0.752
			c-0.378,0.265-0.798,0.527-1.242,0.822c-0.439,0.302-0.929,0.583-1.445,0.882c-0.259,0.149-0.524,0.302-0.796,0.458
			c-0.278,0.144-0.563,0.291-0.854,0.439c-0.581,0.299-1.188,0.612-1.836,0.892c-0.642,0.294-1.305,0.6-2.004,0.867
			c-0.693,0.284-1.408,0.569-2.154,0.82c-0.372,0.13-0.747,0.26-1.127,0.392c-0.385,0.118-0.772,0.234-1.163,0.353
			c-0.392,0.116-0.786,0.233-1.184,0.351c-0.403,0.103-0.808,0.208-1.215,0.312c-0.811,0.225-1.645,0.395-2.486,0.569
			c-1.678,0.352-3.4,0.624-5.128,0.835c-1.73,0.203-3.468,0.333-5.181,0.408c-1.711,0.058-3.398,0.069-5.025,0.006
			c-1.635-0.053-3.204-0.185-4.689-0.347c-1.486-0.164-2.884-0.371-4.167-0.6c-2.569-0.447-4.667-1.025-6.126-1.445
			c-0.728-0.218-1.295-0.404-1.679-0.535c-0.385-0.131-0.591-0.201-0.591-0.201c-0.168-0.057-0.258-0.239-0.201-0.406
			c0.055-0.16,0.224-0.25,0.386-0.208l0.007,0.002c0,0,0.208,0.057,0.597,0.16c0.386,0.11,0.959,0.246,1.685,0.43
			c0.729,0.173,1.616,0.377,2.64,0.575c1.022,0.204,2.185,0.393,3.452,0.585c2.534,0.384,5.524,0.631,8.72,0.696
			c1.604,0.042,3.258-0.008,4.936-0.072c1.679-0.081,3.38-0.217,5.072-0.424c1.693-0.207,3.381-0.458,5.025-0.795
			c0.821-0.168,1.64-0.33,2.435-0.534c0.4-0.095,0.797-0.19,1.191-0.287c0.391-0.108,0.778-0.217,1.162-0.325
			c0.385-0.11,0.767-0.219,1.143-0.326c0.373-0.121,0.743-0.242,1.107-0.36c0.737-0.223,1.442-0.48,2.129-0.738
			c0.692-0.24,1.346-0.518,1.98-0.786c0.642-0.254,1.241-0.542,1.818-0.816c0.287-0.138,0.57-0.272,0.846-0.403
			c0.27-0.144,0.533-0.283,0.79-0.42c0.518-0.268,1.011-0.519,1.453-0.79c0.444-0.265,0.87-0.503,1.249-0.742
			c0.373-0.246,0.716-0.472,1.024-0.676c0.312-0.199,0.585-0.393,0.819-0.57c0.236-0.173,0.438-0.321,0.601-0.44
			c0.325-0.239,0.5-0.366,0.5-0.366c0.143-0.105,0.343-0.074,0.448,0.069C372.958,110.013,372.934,110.203,372.806,110.311z"/>
	</g>
	<g opacity="0.77">
		<path fill="#101111" d="M372.106,105.642c0,0-0.145,0.154-0.415,0.441c-0.136,0.145-0.303,0.323-0.498,0.532
			c-0.1,0.104-0.199,0.22-0.32,0.335c-0.125,0.114-0.259,0.234-0.4,0.361c-0.284,0.256-0.6,0.539-0.942,0.845
			c-0.357,0.281-0.745,0.585-1.158,0.909c-0.405,0.339-0.878,0.634-1.361,0.974c-0.243,0.165-0.49,0.34-0.754,0.502
			c-0.267,0.158-0.537,0.319-0.815,0.484c-0.278,0.164-0.562,0.332-0.853,0.503c-0.298,0.156-0.599,0.315-0.909,0.475
			c-0.309,0.16-0.623,0.322-0.943,0.486c-0.327,0.147-0.658,0.297-0.995,0.45c-0.337,0.152-0.68,0.305-1.024,0.46
			c-0.354,0.139-0.711,0.279-1.071,0.421c-0.362,0.14-0.728,0.28-1.097,0.423c-0.375,0.124-0.753,0.25-1.136,0.377
			c-0.383,0.124-0.766,0.26-1.157,0.377c-0.394,0.111-0.789,0.223-1.188,0.336c-0.792,0.242-1.611,0.425-2.434,0.611
			c-0.821,0.203-1.659,0.346-2.498,0.503c-0.837,0.17-1.687,0.277-2.535,0.397c-0.847,0.131-1.701,0.191-2.55,0.277
			c-0.849,0.095-1.696,0.124-2.538,0.174c-0.84,0.062-1.676,0.057-2.5,0.065c-0.416,0.001-0.827,0.004-1.236,0.006
			c-0.402-0.009-0.801-0.017-1.196-0.026c-1.618-0.044-3.152-0.169-4.615-0.326c-1.461-0.156-2.832-0.369-4.094-0.599
			c-2.521-0.452-4.575-1.045-6.003-1.471c-0.712-0.219-1.266-0.414-1.641-0.549s-0.576-0.208-0.576-0.208
			c-0.251-0.089-0.38-0.364-0.29-0.613c0.083-0.235,0.33-0.364,0.565-0.306l0.014,0.004c0,0,0.201,0.05,0.583,0.145
			c0.377,0.1,0.939,0.221,1.648,0.389c1.422,0.327,3.471,0.715,5.945,1.03c1.238,0.159,2.583,0.29,4.007,0.394
			c1.421,0.103,2.938,0.152,4.479,0.168c0.394,0,0.791,0,1.192-0.001c0.393-0.012,0.787-0.023,1.185-0.034
			c0.801-0.026,1.61-0.042,2.426-0.105c0.813-0.056,1.637-0.088,2.455-0.188c0.822-0.09,1.648-0.153,2.466-0.287
			c0.819-0.122,1.645-0.209,2.453-0.371c0.812-0.146,1.624-0.277,2.415-0.467c0.795-0.174,1.585-0.344,2.354-0.555
			c0.386-0.099,0.77-0.199,1.15-0.297c0.38-0.102,0.75-0.227,1.122-0.337c0.37-0.112,0.738-0.225,1.102-0.336
			c0.358-0.126,0.713-0.251,1.065-0.375c0.351-0.123,0.699-0.243,1.043-0.363c0.337-0.137,0.67-0.271,0.999-0.403
			c0.329-0.134,0.652-0.265,0.972-0.394c0.312-0.145,0.62-0.286,0.922-0.426c0.305-0.138,0.604-0.274,0.896-0.408
			c0.286-0.147,0.564-0.293,0.839-0.436s0.543-0.282,0.806-0.419c0.261-0.14,0.501-0.298,0.747-0.436
			c0.482-0.289,0.96-0.537,1.367-0.829c0.417-0.279,0.808-0.541,1.169-0.783c0.339-0.261,0.65-0.5,0.934-0.717
			c0.57-0.413,0.998-0.84,1.299-1.086c0.298-0.26,0.458-0.398,0.458-0.398c0.2-0.175,0.503-0.155,0.679,0.045
			C372.28,105.182,372.271,105.462,372.106,105.642z"/>
	</g>
	<path opacity="0.15" fill="#FFFFFF" d="M352.581,102.569c3.166-2.373-4.907-6.33-18.677-6.33c-13.771,0-19.627,5.54-19.627,9.021
		c0,3.483,4.274,7.914,18.202,7.914c13.929,0,13.454-3.007,11.397-4.114c-2.06-1.108-9.498-1.108-7.758-4.274
		c0.871-1.583,5.104-2.452,8.607-2.315C348.229,102.61,350.998,103.758,352.581,102.569z"/>
	<path opacity="0.1" fill="#FFFFFF" d="M353.215,83.682c3.375-19.837-12.241-32.605-11.819-47.694
		c0.422-15.089,10.341-23.109,8.864-25.747c-1.478-2.638-22.054,2.005-22.37,25.325c-0.21,15.367,5.538,36.873,6.103,51.807
		c0.291,7.731-6.103,14.565-4.836,16.148C330.422,105.103,349.838,103.52,353.215,83.682z"/>
	<g opacity="0.07">
		<path fill="#FFFFFF" d="M338.867,121.28c-3.987,0-7.839-0.345-11.486-0.977l6.312,99.714c1.684,0.168,3.411,0.26,5.174,0.26
			c8.457,0,16.119-2.018,21.728-5.288l6.964-100.671C360.141,118.625,350.026,121.28,338.867,121.28z"/>
	</g>
	<g opacity="0.07">
		<path fill="#FFFFFF" d="M341.963,121.204l3.993,98.583c2.372-0.332,4.637-0.824,6.766-1.458l1.701-98.869
			C350.531,120.41,346.342,121.009,341.963,121.204z"/>
	</g>
	<g opacity="0.12">
		<path fill="#FFFFFF" d="M307.748,201.687c0,0.077,0.009,0.153,0.01,0.231l0.137,1.418L307.748,201.687z"/>
		<path fill="#FFFFFF" d="M305.049,110.712c-4.039-3.466-6.618-7.58-7.22-12.03l0.004,0.047l9.925,103.188
			c-0.001-0.078-0.01-0.154-0.01-0.231l0.146,1.649l-0.137-1.418c0.09,4.423,2.762,8.475,7.162,11.64
			c-0.007-0.126-0.013-0.254-0.017-0.382L305.049,110.712z"/>
		<path fill="#FFFFFF" d="M297.829,98.682l-0.148-2.006C297.681,97.352,297.74,98.02,297.829,98.682z"/>
		<polygon fill="#FFFFFF" points="315.057,214.77 314.951,213.58 314.942,213.573 		"/>
		<path fill="#FFFFFF" d="M314.903,213.176l0.039,0.397c0.003,0.002,0.006,0.005,0.009,0.007l-0.059-0.663
			C314.893,213.004,314.901,213.089,314.903,213.176z"/>
		<path fill="#FFFFFF" d="M314.903,213.176c0.004,0.127,0.01,0.255,0.017,0.382c0.007,0.005,0.016,0.01,0.022,0.015L314.903,213.176
			z"/>
	</g>
</g>
</svg>
