<?xml version="1.0" encoding="utf-8"?>
<!-- Generator: Adobe Illustrator 16.0.0, SVG Export Plug-In . SVG Version: 6.00 Build 0)  -->
<!DOCTYPE svg PUBLIC "-//W3C//DTD SVG 1.1//EN" "http://www.w3.org/Graphics/SVG/1.1/DTD/svg11.dtd">
<svg version="1.1" id="Layer_1" xmlns="http://www.w3.org/2000/svg" xmlns:xlink="http://www.w3.org/1999/xlink" x="0px" y="0px"
	 width="930px" height="820px" viewBox="0 0 930 820" enable-background="new 0 0 930 820" xml:space="preserve">
<path opacity="0.9" fill="#FFFFFF" d="M528.462,350.744c-0.674-1.163-1.45-2.27-2-3.5c-0.333-0.747-1.405-0.917-2.052-0.538
	c-0.763,0.446-0.871,1.306-0.538,2.052c0.549,1.231,1.325,2.338,2,3.5C526.842,353.931,529.435,352.421,528.462,350.744z"/>
<path fill="#EF9EAC" d="M574.363,327.667c-0.212-3.873-7.494-9.279-10.637-10.933c-2.388-1.256-3.373-0.325-2.977,2.891
	c0.25,2.029,4.276,4.646,4.367,6.625c0.066,1.43,1.565,2.257,2.229,3.646c-0.861,1.949-2.184,4.026-3.416,5.835
	c-0.447,0.47-0.881,0.912-1.258,1.316c-0.584,0.626-0.912,1.28-1.07,1.926c-1.04,0.313-2.357,0.303-4.135,0.183
	c-4.9-0.33-7.266-4.28-11.198-6.734c-3.454-2.155-7.457,2.069-5.473,5.473c1.251,2.145,3.109,3.799,4.486,5.88
	c0.268,0.404,0.349,0.76,0.293,1.077c-1.371,0.348-2.473,1.486-3.802,2.282c-0.74-0.32-1.575-0.479-2.47-0.471
	c-2.165,0.018-3.848,1.848-5.515,1.944c-0.17-0.228-0.319-0.423-0.433-0.556c-0.945-1.111-2.135-1.67-3.423-1.844
	c-0.11-0.797-0.195-1.604-0.293-2.41c-0.595-4.939,0.896-9.689,1.283-14.579c0.082-0.154,0.158-0.309,0.246-0.461
	c0.302-0.524,1.439-1.577,1.17-2.007c0.73-4.763,3.313-9.524,2.285-14.25c-0.165-0.759-2.91-2.005-3.5-2
	c-0.157-0.148-2.103,1.382-2.352,1.304c-6.827-2.143-7.759,8.391-6.178,12.845c0.29,0.818,0.503,1.611,0.651,2.386
	c-0.129,0.371-0.227,0.767-0.247,1.216c-0.154,3.354-0.929,6.597-1.304,9.897c-0.44,1.203-0.919,2.429-1.393,3.704
	c-1.525,4.106-4.974,7.335-5.304,11.773c-0.206,2.773,2.913,4.998,4.829,6.407c3.029,2.228,8.662,4.294,11.447,7.688
	c0.325,4.039-0.933,9.019-0.901,12.654c0.045,5.208,7.643,5.095,8,0c0.218-3.103,0.632-6.971,2.191-9.941
	c0.552-0.174,1.196-0.31,1.964-0.395c5.193-0.574,9.267,0.086,13.779-3.066c3.43-2.396,5.903-6.713,6.879-10.699
	c0.287-1.173,0.438-2.353,0.624-3.529c1.094-2.772,2.502-5.374,4-7.921c2.01-1.693,3.408-4.126,4.428-6.847
	c0.49-0.688,0.959-1.396,1.396-2.135c1.225-0.051,2.373-0.637,2.942-1.948C577.854,330.961,575.906,329.523,574.363,327.667z"/>
<path opacity="0.8" fill="#EF2652" d="M501.854,461.575c0.098-4.101,0.794-8.694-2.833-11.389c-3.415-2.537-10.791-0.627-14.55-0.25
	c-7.347,0.737-14.828-0.237-22.137-0.936c-4.07-0.39-4.872,4.546-2.503,6.858c-0.286,0.53-0.467,1.138-0.497,1.808
	c-0.139,3.077-0.046,6.14,0.018,9.218c0.058,2.777-0.887,5.935-0.338,8.643c0.915,4.516,5.971,4.065,9.487,3.727
	c6.33-0.611,12.809-0.01,19.166-0.26c4.102-0.16,9.743,1.419,12.688-2.178C503.196,473.347,501.754,465.771,501.854,461.575z"/>
<path opacity="0.8" fill="#EF2652" d="M519,436.001c-0.03-5.157-8.03-5.16-8,0c0.005,0.817-0.033,1.63-0.092,2.44
	c-1.025,0.146-2.008,0.717-2.695,1.874c-1.052,1.77-3.279,2.403-4.256,4.243c-1.09,2.055-1.495,3.896-1.603,6.213
	c-0.319,6.853-0.021,13.858-0.021,20.729c-0.001,4.384,7.242,5.628,7.857,1.063c0.376-2.793,2.172-4.233,3.814-6.364
	c1.987-2.578,2.989-5.743,3.74-8.876c0.826-3.447,0.709-6.99,0.61-10.504C518.254,443.185,519.021,439.63,519,436.001z"/>
<path opacity="0.8" fill="#29ACED" d="M507.667,431.001c-3.572,0.476-7.168,0.081-10.763,0.331
	c-3.406,0.237-6.745,0.656-10.168,0.68c-3.374,0.022-6.68,0.11-10.006-0.56c-2.682-0.54-5.23-0.681-7.794,0.357
	c-2.282,0.925-3.903,3.492-2.391,5.876c-0.56-0.881-1.862,1.03-2.585,1.647c-1.076,0.918-2.241,1.723-3.29,2.673
	c-3.377,3.059,0.63,7.794,4.24,6.512c0.305,0.198,0.646,0.369,1.025,0.507c7.751,2.821,17.218-1.126,25.228-0.759
	c8.137,0.374,16.488-3.321,19.957-11.246C512.161,434.643,511.036,430.553,507.667,431.001z"/>
<path opacity="0.8" fill="#FFFFFF" d="M375.769,487.48c-1.208-3.882-4.213-6.665-8.358-6.962c-3.627-0.26-8.59,0.455-12.146,1.537
	c-0.865-0.181-1.723-0.379-2.126-0.694c-4.334-3.389-10.291-0.349-9.193,5.351c1.025,5.319,0.276,10.768,0.625,16.144
	c0.219,3.379,1.1,6.484,4.268,8.209c3.906,2.128,9.427,1.247,13.661,1.186c3.4-0.05,7.2,0.499,9.833-2.249
	c3.037-3.171,3.58-7.131,3.487-11.366C375.743,495.125,376.824,490.872,375.769,487.48z"/>
<path opacity="0.8" fill="#C49239" d="M634.134,431.844c-0.27,0.198-3.849,2.104-1.893,1.865c-1.444,0.177-3.075,0.034-4.537,0.129
	c-1.719,0.111-3.437,0.231-5.153,0.364c-0.521-1.316-1.696-2.339-3.551-2.314c-11.393,0.149-22.854,2.877-34.246,1.697
	c-0.9-0.263-1.871-0.371-2.92-0.363c-0.038,0-0.072,0.011-0.109,0.012c-0.423-0.285-0.935-0.479-1.558-0.512
	c-3.565-0.183-6.743-1.465-10.271-0.261c-1.596,0.545-3.071,1.391-4.479,2.357c-1.799-1.388-4.23-2.04-6.791-1.951
	c-11.771,0.407-23.547-0.467-35.291,0.854c-3.447,0.388-7.454,2.905-7,7c0.345,3.11,0.072,6.219,0.433,9.331
	c0.405,3.506,1.968,7.498,1.172,11.019c-0.016,0.07-1.744,1.802-1.798,1.857c-1.458,1.508-2.689,3.188-3.643,5.051
	c-0.655,1.281-0.979,2.439-2.033,3.44c-1.424,1.35-2.92,2.24-4.025,3.938c-0.896,1.375-1.422,2.804-1.641,4.197
	c-6.694-0.075-13.313,0.669-19.965,1.333c-0.203,0.021-0.406,0.034-0.609,0.054c-5.775-0.476-11.338-2.266-17.125-2.197
	c-2.933,0.035-5.765,0.869-8.723,0.774c-0.071-0.002-0.138-0.002-0.208-0.003c0.165-6.477-0.781-12.855-1.335-19.294
	c-0.45-5.227,0.242-10.097,1.744-14.988c0.974-0.543,1.395-1.753,1.167-2.844c-0.12-0.575-0.341-1.063-0.585-1.597
	c-0.72-1.57-2.468-1.494-3.617-0.634c-0.226-0.168-0.517-0.271-0.875-0.271H446c-0.526,0-0.904,0.226-1.144,0.549
	c-1.132-0.23-2.254-0.499-3.358-0.793c-1.389-0.369-2.417,0.383-2.861,1.402c-0.647-0.278-1.304-0.528-1.972-0.735
	c-3.088-0.957-4.398,3.87-1.329,4.822c0.184,0.057,0.375,0.139,0.562,0.207c0.065,0.231,0.184,0.446,0.376,0.608
	c1.352,1.141,2.988,1.865,4.333,3c0.463,0.391,1.068,0.538,1.601,0.338c0.848,0.779,1.606,1.599,2.184,2.424
	c0.604,0.863,1.07,1.833,1.54,2.772c0.273,0.549,0.505,1.115,0.707,1.693c-0.23,0.276-0.434,0.569-0.624,0.873
	c-2.075,2.09-7.118,2.448-9.246,0.738c-0.639-0.514-1.339-0.734-2.007-0.676c-0.058-0.458-0.167-0.921-0.35-1.389
	c-0.436-1.114-1.39-1.628-2.349-1.677c-0.021-0.772-0.05-1.547-0.062-2.324c-0.028-1.933-3.028-1.936-3,0
	c0.022,1.536,0.164,3.099,0.101,4.643c-0.154,0.163-0.292,0.359-0.38,0.625c-0.933,2.788-3.048,5.891-6.221,6.232
	c-0.509,0.055-0.879,0.313-1.117,0.653c-0.44,0-0.88,0.008-1.311,0.027c0.001-0.005,0.004-0.011,0.005-0.016
	c0.732-2.729-3.16-4.418-4.569-1.927c-0.629,1.112-1.198,1.396-1.739,1.222c-0.344-0.306-0.701-0.598-1.083-0.889
	c-0.308-0.374-0.614-0.82-0.926-1.267c-0.051-0.073-0.111-0.132-0.164-0.201c1.488-0.411,1.349-2.938-0.429-2.938
	c-0.514,0-0.887,0.214-1.127,0.524c-0.068-0.008-0.132-0.024-0.206-0.024c-0.363,0-0.657,0.105-0.884,0.276
	c-0.609-0.232-1.354-0.387-1.539-0.941c-0.214-0.644-0.605-1.083-1.069-1.361c1.505-3.429,3.47-6.615,5.317-9.878
	c0.313-0.553,0.395-1.09,0.321-1.578c2.876-1.039,1.565-5.673-1.477-4.762c-2.163,0.648-3.908,1.029-5.758,1.906
	c-0.499-0.236-1.014-0.435-1.564-0.591c-2.523-0.718-5.418-0.719-8.013-0.571c-1.287,0.073-2.092,0.896-2.345,1.858
	c-2.613-0.799-5.37-1.227-8.143-1.555c-2.938-0.347-5.57-0.232-8.483,0.371c-2.62,0.543-5.069,2.348-7.819,1.861
	c-6.089-1.076-10.799-1.8-16.892-0.354c-0.574,0.137-1.577,0.462-2.749,0.815c-2.404-0.406-4.912-0.444-7.343-0.157
	c-0.02-0.002-0.041-0.005-0.06-0.007c0,0.005,0.001,0.009,0.002,0.014c-0.222,0.026-0.446,0.043-0.667,0.075
	c-0.283,0.041-0.518,0.124-0.73,0.225c-2.614-2.013-5.637-1.686-7.908-0.18c-3.085-0.961-6.108,0.554-8.075,3.174
	c-11.788,15.697-19.873,33.697-27.663,51.688c-0.232,0.189-0.444,0.432-0.618,0.751c-1.497,2.747-3.27,5.313-5.011,7.902
	c-0.411,0.288-0.742,0.728-0.906,1.355c-0.672,1.019-1.332,2.045-1.958,3.094c-1.722,2.878-2.811,6.126-3.849,9.312
	c-1.96,3.122-4.077,6.167-5.942,9.337c-0.748,1.271-0.129,3.421,1.494,3.673c4.638,0.719,8.733-0.803,13.331-1.077
	c1.018-0.061,1.749-0.627,2.135-1.357c6.921-0.054,13.791-0.301,20.699-0.97c4.164-0.403,9.198,0.189,13.701-0.44
	c0.394,0.57,1.042,0.964,1.965,0.934c3.975-0.133,7.829-0.939,11.771-1.388c4.621-0.525,9.417-0.42,14.062-0.445
	c0.728-0.004,1.282-0.27,1.681-0.666c6.279,0.312,12.581,0.025,18.838-0.566c0.376,0.788,1.11,1.353,2.147,1.224
	c1.002-0.124,2.025-0.249,3.055-0.379c2.03-0.123,4.109-0.01,6.111-0.183c3.807-0.328,7.564-0.99,11.386-1.216
	c6.813-0.402,13.694-0.439,20.518-0.714c12.321-0.496,24.557,0.989,36.726-1.344c18.859,0.329,37.568-1.138,56.441-1.684
	c6.402-0.185,14.829,2.018,20.23-1.798c0.269,0.093,0.545,0.176,0.838,0.233c10.565,2.066,22.056,0.615,32.664-0.592
	c2.897-0.33,5.809-0.307,8.685-0.539c1.169,1.043,2.657,1.714,4.347,1.714c5.34,0,10.264-0.559,15.498-1.604
	c4.618-0.921,9.545-0.098,14.121,0.681c0.823,0.14,1.586,0.206,2.307,0.218c-1.511,0.593-3.578,1.608-5.517,2.36
	c-0.833-0.675-1.914-1.132-3.243-1.23c-0.734-0.055-1.428-0.035-2.097,0.038c-12.552,0.214-25.063,1.385-37.633,1.504
	c-8.924,0.084-17.915,0.869-26.871,1.27c-0.869-1.092-2.247-1.76-4.149-1.562c-2.598,0.271-5.152,0.619-7.669,1.229
	c-2.219,0.052-4.46-0.127-6.724-0.226c-4.211-0.183-8.418,0.434-12.601,0.953c-6.402-3.191-13.985-1.662-20.757-0.484
	c-1.896,0.329-3.818,0.583-5.751,0.799c-0.878-0.844-2.122-1.36-3.749-1.271c-2.432,0.134-4.812,0.552-7.212,0.946
	c-0.953,0.156-1.728,0.581-2.336,1.167c-2.274,0.061-4.539,0.095-6.786,0.116c-5.54-0.029-11.07,0.165-16.691,0.683
	c-10.782,0.992-21.4,1.004-32.215,0.977c-5.585-0.014-11.042,0.716-16.499,1.409c-0.589-0.191-1.256-0.301-2.011-0.298
	c-5.353,0.023-10.655,0.262-15.964,0.972c-0.879,0.118-1.8,0.302-2.742,0.503c-0.657-0.289-1.421-0.462-2.294-0.475
	c-7.124-0.105-14.207-1.094-21.212,0.696c-0.943,0.241-1.696,0.653-2.286,1.174c-12.369,0.044-24.702,0.483-37.095,0.622
	c-7.153,0.08-14.27,0.232-21.408,0.758c-4.533,0.334-11.311-1.416-13.721,3.97c-1.544,3.45-1.797,9.331,0.472,12.557
	c3.372,4.794,9.87,3.132,14.595,1.743c6.231-1.831,13.516-0.706,19.986-1.25c7.372-0.619,14.465,0.438,21.789,0.184
	c3.369-0.117,6.433-1.2,9.607-2.182c3.201-0.989,6.478,0.744,9.617,1.257c7.652,1.248,16.581-0.483,24.317-0.863
	c16.164-0.792,32.327-1.626,48.448-3.083c6.021-0.544,12.08-1.174,18.146-1.705c0.907,1.279,2.344,2.101,4.243,1.873
	c3.274-0.393,6.488-0.627,9.651-1.072c4.189-0.168,8.414-0.076,12.567-0.437c7.602-0.659,15.086-1.03,22.719-1.202
	c3.363-0.075,6.586-0.203,9.916-0.724c1.574-0.245,3.139-0.598,4.706-0.883c-0.825-0.765-0.536-0.744,0.864,0.063
	c0.546,0.275,1.121,0.466,1.724,0.57c4.918,1.252,10.146-0.166,15.103-0.315c15.717-0.473,31.34-0.023,47.051-1.156
	c7.882-0.568,15.726-1.183,23.632-1.319c3.349-0.058,6.691,0.097,10.039,0.071c3.805-0.028,7.258-1.828,11.028-1.846
	c3.043-0.015,5.44-2.492,5.5-5.5c0.054-2.722-0.02-5.271-0.446-7.962c-0.36-2.276-2.459-3.627-4.606-3.919
	c6.162-2.114,7.166-10.479,8.865-17.1c2.807-10.929,6.29-21.687,9.106-32.622c1.419-5.509,2.71-11.047,4.109-16.56
	c1.419-5.588,3.959-10.354,6.139-15.651C646.699,434.202,638.883,428.34,634.134,431.844z M377.09,482.28
	c-1.312,4.258-0.805,8.842-0.612,13.299c0.023,0.54,0.452,3.83,0.813,7.224c-0.271,0.371-0.447,0.841-0.458,1.419
	c-0.05,2.449-0.409,4.867-0.716,7.291c-1.949,0.771-4.427,0.863-6.117,0.875c-1.549,0.011-2.38,1.167-2.42,2.373
	c-0.516,0.02-1.029,0.056-1.546,0.066c-7.72,0.163-15.374-0.504-22.863-2.101c0.09-0.25,0.154-0.521,0.163-0.83
	c0.093-11.892-0.178-23.705,1.411-35.502c0.005-0.034-0.002-0.064,0.001-0.098c2.499-1.445,5.108-2.226,7.196-4.315
	c0.106-0.106,0.206-0.222,0.303-0.341c0.03-0.005,0.057-0.002,0.087-0.008c2.419-0.43,5.977-0.28,8.161-1.843
	c5.328,1.72,11.502-0.72,16.246,2.59c0.295,0.206,0.593,0.33,0.886,0.387c0.001,0.008,0.003,0.015,0.005,0.021
	c-0.342,0.983-0.591,2.001-0.629,3.1C376.93,477.887,376.954,480.052,377.09,482.28z M432.784,509.82
	c-2.082,0.205-4.084,0.694-6.171,1.195c-3.358,0.806-6.875,0.318-10.277,0.961c-0.833,0.157-1.373,0.754-1.626,1.474
	c-2.524-0.072-5.048-0.115-7.572,0.056c-0.23-1.855-0.167-3.778-0.303-5.618c-0.259-3.498-1.104-6.924-1.539-10.399
	c-0.096-0.763-0.083-1.704-0.082-2.684c0.378-0.295,0.688-0.708,0.865-1.252c0.311-0.959,0.475-1.937,0.597-2.922
	c2.186-1.02,4.029-2.996,6.288-3.909H418c0.305,0,0.556-0.081,0.765-0.206c0.224,0.096,0.463,0.173,0.735,0.206
	c4.059,0.495,8.038,0.283,11.732,2.25c0.028,0.015,0.055,0.027,0.083,0.042c-0.244,0.116-0.489,0.235-0.744,0.383
	c-0.442,0.255-0.75,0.585-0.949,0.95c-0.007-0.003-0.016-0.004-0.023-0.007c-0.083-0.035-0.171-0.065-0.266-0.085
	c-0.104-0.021-0.215-0.033-0.334-0.033h-1.5c-1.935,0-1.935,3,0,3h1.5c0.16,0,0.301-0.026,0.435-0.064
	c0.029-0.008,0.058-0.018,0.085-0.027c0.125-0.044,0.24-0.099,0.34-0.171c0.435,0.603,1.12,1.044,1.974,1.096
	c0.746,0.045,1.601-0.14,2.367-0.171c0.198,0.497,0.171,1.395,0.278,2.224c0.016,0.125,0.034,0.249,0.051,0.374
	c-0.013,0.078-0.027,0.155-0.029,0.24c-0.059,2.702-0.789,5.499,0.103,8.086C433.977,506.491,433.379,508.185,432.784,509.82z
	 M618.438,465.063c-0.829,0.109-7.043-3.824-7.834-3.598c-1.208-0.701,1.357,1.767,0.045,2.469c0.633-0.338,1.56-1.323,1.164-1.184
	c-0.222,0.009-3.31-3.125-3.479-3.113c-1.491,0.104-1.845,4.811-3.186,5.464c-2.118,1.033-8.349-1.515-6.814,0.212
	c-3.294,1.648-4.824,0.648-8.521,1.125c-0.241,0.031,3.88,7.199,3.645,7.245c-0.088-0.224,4.31-9.353,4.168-9.558
	c-0.688-0.991-3.66,4.346-4.675,3.688c-0.094-0.061-2.387,2.81-2.485,2.756c0.013-0.18,0.547-0.405,0.563-0.583
	c0.051-0.604,1.874-1.136,1.893-1.742c0.012-0.385-2.311-0.773-2.414-1.128c0.691-1.229,13.925-0.82,14.643-2.015
	c1.67-2.781-3.623-0.753-0.874-2.555c0.078,0.01-5.282-3.898-5.212-3.858c2.188,1.25,3.811,6.102,6.086,6.413
	c1.319,0.181,5.516-6.023,6.271-4.867c0.841,1.287,2.345-0.001,3.552,0.013c0.027,0.027,0.053,0.064,0.08,0.092
	c-1.164,0.126-11.16-1.222-10.384-0.701C604.671,460.075,617.75,465.188,618.438,465.063z"/>
<path opacity="0.8" fill="#34352C" d="M374.333,480.501c-4.32,0.082-9.329,1.173-14.224,1.62c0.048-0.783-0.429-1.611-1.442-1.62
	c-2.735-0.024-5.75-0.649-8.395,0.287c-0.341,0.12-0.643,0.27-0.914,0.439c-0.429-0.157-0.854-0.323-1.267-0.521
	c-0.518-0.248-1.158-0.196-1.627,0.094c-0.655-0.452-1.606-0.457-2.092,0.444c-1.589,2.946-0.657,4.835,1.576,6.021
	c0,0.029,0,0.06,0,0.09c-1.919,2.521-0.955,8.076-0.779,11.625c-0.162,1.679-0.33,3.367-0.481,5.08
	c-0.434,4.885,1.232,7.516,6.059,8.514c3.358,0.695,7.159,0.713,10.842,0.523c3.363,1.149,6.728,1.8,9.801,0.193
	c0.783-0.409,1.333-1.093,1.721-1.938c0.539-0.172,0.999-0.612,1.058-1.352c0.063-0.782,0.064-1.491,0-2.161v-6.434
	c1.028-5.831,1.386-12.077,0.132-17.904c0.012,0,0.023-0.001,0.035-0.001C376.266,483.464,376.269,480.464,374.333,480.501z
	 M363.399,508.632c0.275-0.088,0.553-0.169,0.823-0.271c1.701-0.397,3.198-0.985,4.201-1.732c0.027-0.02,0.041-0.045,0.066-0.065
	l0.021,0.023C367.38,507.673,365.494,508.291,363.399,508.632z"/>
<path opacity="0.8" fill="#ADC13A" d="M375.167,474.334c-0.011-0.09-0.029-0.182-0.053-0.273c0.022-0.766-0.458-1.553-1.447-1.56
	c-8.139-0.054-18.249-1.707-25.757,2.205c-0.671,0.35-0.885,1.249-0.607,1.92c-0.302-0.021-0.604-0.03-0.904-0.071
	c-1.891-0.257-2.708,2.633-0.798,2.893c3.406,0.463,6.845,0.244,10.282-0.268C364.349,480.404,375.919,480.39,375.167,474.334z"/>
<path opacity="0.8" fill="#3CB3BF" d="M430.287,496.896c-0.027-0.056-0.067-0.095-0.097-0.147c1.387-0.469,1.214-2.888-0.523-2.915
	c-1.451-0.022-2.882-0.311-4.333-0.333c-0.571-0.009-0.969,0.249-1.203,0.613c-2.612-0.551-5.058-1.11-7.863-0.56
	c-2.783,0.547-3.866,3.794-6.371,4.488c-0.41,0.052-0.82,0.103-1.23,0.125c-1.938,0.104-1.928,2.878,0,3
	c0.911,0.058,1.696-0.043,2.425-0.279c0.245-0.041,0.488-0.089,0.731-0.137c-0.029,0.041-0.059,0.075-0.088,0.118
	c-0.044,0.006-0.089,0.012-0.134,0.018c-1.36,0.186-1.36,2.141-0.358,2.741c0.931,0.558,2.336,1.174,3.962,1.72
	c-0.013,0.256,0.031,0.51,0.145,0.735c-0.913,0.732-1.9,1.332-3.082,1.804c-1.445,0.577-1.425,3.098,0.399,2.946
	c5.393-0.447,10.58-2.18,16-2.333c1.752-0.049,1.908-2.398,0.491-2.898c0.185-0.12,0.353-0.275,0.471-0.512
	c0.135-0.271,0.268-0.559,0.399-0.854c0.097-0.152,0.188-0.311,0.268-0.479c0.082-0.173,0.127-0.357,0.152-0.542
	C431.364,500.804,431.847,498.055,430.287,496.896z M418.899,506.895c0.053-0.058,0.108-0.109,0.161-0.167
	c0.088-0.096,0.159-0.201,0.219-0.312c0.277,0.053,0.553,0.103,0.832,0.147c0.05,0.022,0.101,0.046,0.152,0.068
	C419.809,506.719,419.354,506.807,418.899,506.895z M419.794,498.951c-0.672,0.259-1.487,0.62-2.343,0.925
	c-0.028-0.184-0.085-0.362-0.171-0.528c1.367-0.388,2.736-0.765,4.121-1.049C420.862,498.523,420.326,498.746,419.794,498.951z"/>
<path opacity="0.8" fill="#3CB3BF" d="M427,488.167c-0.002,0-0.005,0.001-0.007,0.001c-0.166-0.3-0.465-0.533-0.927-0.614
	c-5.967-1.048-12.71-1.052-17.126,3.719c-1.312,1.417,0.804,3.544,2.121,2.121c3.643-3.935,9.303-3.808,14.208-2.947
	c0.169,0.029,0.327,0.026,0.478,0.008c0.225,0.411,0.642,0.713,1.254,0.713C428.935,491.167,428.935,488.167,427,488.167z"/>
<path opacity="0.9" fill="#B5307C" d="M490.055,418.018c-0.512-1.409-0.99-2.812-1.453-4.218c0.216-4.984-0.9-9.715-1.087-14.789
	c-0.062-1.662-0.778-2.889-1.8-3.693c0.075-0.097,0.229-0.302,0.258-0.339c0.313-0.392,0.627-0.784,0.895-1.208
	c0.579-0.925,0.199-2.199-0.719-2.736c-0.962-0.564-2.158-0.205-2.736,0.717c-0.063,0.101-0.131,0.198-0.198,0.295
	c-0.054,0.067-0.249,0.329-0.282,0.372c-0.313,0.392-0.627,0.784-0.895,1.208c-0.113,0.182-0.181,0.379-0.224,0.58
	c-0.884,0.08-1.739,0.365-2.45,0.855c-2.033-0.077-4.086,0.762-6.075-0.243c-3.566-1.801-7.177,0.459-7.523,4.317
	c-0.185,2.055-0.689,4.063-0.875,6.125c-0.07,0.782,0.019,1.467,0.226,2.058c-0.385,0.476-0.705,1.049-0.922,1.738
	c-0.962,3.053-1.752,6.236-1.891,9.446c-1.705,1.472-2.25,3.731-1.784,5.799c-0.745,0.222-1.363,0.83-1.379,1.834
	c-0.018,1.152-0.115,2.382-0.341,3.588c-0.968,1.74-1.521,3.886-2.511,5.402c-0.526,0.807-0.303,1.673,0.237,2.273
	c0.492,1.165,2.084,1.927,3.279,0.775c2.188-2.107,5.183-6.098,4.6-9.397c1.815,0.619,3.897,0.339,5.766,0.4
	c2.186,0.072,4.241,0.186,6.339-0.092c1.53,0.762,3.035,1.41,4.757,1.55c0.599,0.049,2.62-0.555,2.852-0.433
	c3.579,1.883,8.288,1.301,8.671-2.491C493.059,425.025,490.959,420.508,490.055,418.018z"/>
<path opacity="0.7" d="M465.071,383.719c-0.444,1.386-1.792,2.279-2.872,3.161c-1.107,0.905-1.996,1.88-2.824,3.043
	c-0.61,0.856-0.648,2.04-0.01,2.878c1.134,1.489,2.292,2.261,2.956,4.105c0.794,2.21,3.668,1.697,3.929-0.531
	c0.326-2.784,0.299-5.591,0.625-8.375c0.002-0.02-0.001-0.036,0.001-0.055c0.87-0.86,1.622-1.821,2.053-3.164
	C469.718,382.318,465.855,381.271,465.071,383.719z"/>
<path opacity="0.7" d="M464.305,403.992c0.814-1.154,0.301-3.225-1.555-3.242c-3.105-0.029-6.029-0.243-8.968-1.304
	c-1.264-0.456-2.5,0.713-2.532,1.929c-0.095,0.482-0.088,0.926,0.001,1.338c-0.641,0.133-1.212,0.574-1.43,1.381
	c-0.267,0.993-0.338,1.599,0.026,2.392c0.248,3.336,0.928,6.056,2.216,9.409c1.432,3.729,0.384,8.048,1.758,11.887
	c0.607,1.697,3.459,2.108,3.857,0c0.88-4.666,2.341-9.139,3.875-13.625c0.14-0.408,0.294-1.303,0.441-2.319
	c0.585-0.222,1.082-0.676,1.184-1.306c0.067-0.415,0.175-0.814,0.313-1.212c0.01-0.027,0.089-0.22,0.119-0.3
	c0.078-0.171,0.158-0.342,0.241-0.51c0.318-0.643,0.328-1.369,0.021-1.959C464.576,405.878,464.74,404.77,464.305,403.992z"/>
<path opacity="0.7" d="M502.867,414.462c-0.094-3.736,3.032-10.601,0.984-14.097c-1.933-3.3-7.804-1.428-10.717-2.967
	c-0.647-0.342-1.324-0.313-1.875-0.038c-0.055-0.804-0.104-1.61-0.153-2.418c0.833,0.048,1.671-0.366,1.947-1.411
	c0.892-3.378,3.331-6.206,4.088-9.588c0.212-0.948-0.124-2.147-0.857-2.812c-1.451-1.313-2.763-2.55-3.933-4.142
	c-0.244-0.332-0.577-0.581-0.94-0.748c1.001-2.213-2.321-4.104-3.513-1.877c-0.446,0.833-0.825,1.466-1.346,1.768
	c-0.033,0.02-0.047,0.028-0.068,0.042c-0.027,0.002-0.074,0.012-0.176,0.043c0.014-0.004-0.417,0.084-0.398,0.093
	c-0.509,0.06-1.025,0.062-1.535,0.064c-0.766,0.004-1.304,0.359-1.614,0.856c-0.136-0.206-0.269-0.425-0.409-0.616
	c-0.405-0.555-0.934-0.832-1.463-0.906c0.027-0.997-0.025-1.937-0.705-2.996c-0.714-1.114-2.262-1.896-3.691-1.888
	c-1.036-1.432-3.791-1.098-3.617,1.05c0.013,0.156,0.03,0.315,0.045,0.473c-0.227,0.558-0.212,1.203,0.197,1.789
	c0.015,0.118,0.031,0.237,0.046,0.355c-0.12,0.675-0.169,1.375-0.175,2.085c-0.563-1.94-3.901-1.315-3.863,0.798
	c0.02,1.123,0.08,2.236,0.171,3.342c-0.224,6.149-2.476,14.035,5.298,15.587c0.855,0.171,1.822-0.09,2.258-0.919
	c0.5-0.952,0.977-1.59,1.465-2.048c0.698,0.956,2.053,1.46,2.973,0.327c0.619-0.761,1.116-1.475,1.514-2.18
	c0.181-0.065,0.366-0.137,0.559-0.216c1.479-0.609,2.089-1.97,2.304-3.466c0.077-0.54,0.091-1.108,0.075-1.688
	c0.225,0.628,0.426,1.269,0.562,1.938c0.764,3.761,0.767,7.697,1.136,11.51c0.662,6.815,0.73,14.169,3.125,20.631
	c1.334,3.603,0.61,7.622,5.078,8.521c1.323,0.266,2.41,0.254,3.311,0.03c0.229,0.856,0.994,1.506,1.924,1.506
	c1.077,0,2.017-0.91,2-2c-0.01-0.646-0.087-1.281-0.18-1.919c-0.032-0.221-0.066-0.44-0.102-0.66
	c-0.024-0.145-0.048-0.289-0.071-0.434c-0.036-0.25-0.043-0.287-0.022-0.112c-0.008-0.062-0.024-0.12-0.035-0.181
	C503.388,421.806,502.942,417.469,502.867,414.462z"/>
<path opacity="0.7" d="M537.117,386.475c-1.339-1.846-4.325-3.766-6.366-2.319c-0.028-0.146-0.037-0.287-0.072-0.437
	c-0.593-2.51-4.45-1.445-3.857,1.063c0.298,1.26,0.187,2.86,0.469,4.186c-0.302,0.669-0.295,1.489,0.296,2.197
	c1.563,1.874,3.607,2.688,5.426,4.201c1.521,1.265,2.683,2.959,4.707,3.438c0.979,0.231,2.27-0.295,2.46-1.397
	C540.848,393.524,539.393,389.611,537.117,386.475z"/>
<path fill="none" stroke="#020202" stroke-width="3" stroke-miterlimit="10" d="M558.001,320.183c0,0-15.19,2.317-19.001-3.683"/>
<path fill="none" stroke="#020202" stroke-width="2" stroke-miterlimit="10" d="M556.303,325.001c0,0-15.854,3.007-18.053-4.378"/>
<polygon fill="none" stroke="#070707" stroke-width="2" stroke-miterlimit="10" points="546.869,298.861 555.204,298.861 
	552.834,303.243 548.258,302.5 "/>
<line fill="none" stroke="#070707" stroke-miterlimit="10" x1="548.258" y1="302.5" x2="546.869" y2="310.49"/>
<line fill="none" stroke="#070707" stroke-miterlimit="10" x1="550.359" y1="302.842" x2="549.304" y2="310.49"/>
<line fill="none" stroke="#070707" stroke-miterlimit="10" x1="552.469" y1="303.184" x2="551.425" y2="311.981"/>
<path fill="#FCF50B" d="M586.354,276.426"/>
<path fill="#F9F9F7" d="M576.991,263.833l-5.99,24.977c0,0,3.854-4.34,5.631-11.143
	C577.713,273.531,577.181,267.487,576.991,263.833z"/>
<path fill="none" stroke="#111111" stroke-width="0.25" stroke-miterlimit="10" stroke-opacity="0.3" d="M575.5,244.375
	c0,0,10.269,11.096,9.468,30.86"/>
<path fill="#C49239" d="M297.333,570.331c-0.161,10.068-2.506,19.932-2.667,30c-0.083,5.162,7.917,5.153,8,0
	c0.161-10.068,2.506-19.932,2.667-30C305.416,565.169,297.416,565.178,297.333,570.331z"/>
<path fill="none" stroke="#070707" stroke-width="3" stroke-miterlimit="10" d="M540.342,307.625
	c-1.711,5.335-5.675,20.042,4.949,20.042c11.376,0,13.042-1.54,13.042-14.542C558.333,313.125,548.351,315.249,540.342,307.625z"/>
<path fill="none" stroke="#070700" stroke-width="3" stroke-miterlimit="10" d="M540.333,305.166l-0.022-6.305
	c0,0-5.592-4.58-6.905-11.236c-2.668-13.522-1.285-35.613,15.436-45.27c0.488-0.281,3.653-1.967,6.784-2.73
	c3.525-0.859,7.057-0.785,7.625-0.75c8.733,0.546,16.212,6.088,19.765,11.323c11.326,16.688-0.474,49.328-15.438,53.045
	l-7.643,8.371"/>
<path fill="none" stroke="#070707" stroke-width="2" stroke-miterlimit="10" d="M549.304,299.785
	c8.902-23.583,1.029-32.784,1.029-32.784"/>
<path fill="none" stroke="#070707" stroke-width="2" stroke-miterlimit="10" d="M569.667,272.667
	c-2.459,1.914-10.75,4.578-14.463,16.333c-1.076,3.405-1.604,4.761-1.658,10.785"/>
<polyline opacity="0.5" fill="none" stroke="#28281E" stroke-miterlimit="10" points="551,267.001 551.628,264.625 553.875,267.001 
	556.125,265.25 557.25,267.001 559.934,262.5 560.647,268.337 562.625,265.25 563.375,268.337 564.75,267.313 565.25,269.375 
	567.5,267.313 568.25,270.625 570.5,268.875 569.667,272.125 "/>
<path fill="none" stroke="#F7F006" stroke-width="3" stroke-miterlimit="10" d="M528.677,198.482"/>
<path fill="none" stroke="#070700" stroke-width="0.5" stroke-miterlimit="10" stroke-opacity="0.3" d="M565.625,240.375
	c0,0-22.739,4.344-27.441,24.437c-1.121,4.785-2.567,12.319-1.356,20.279c0.689,4.528,3.038,9.033,4.798,13.652"/>
<polyline fill="none" stroke="#070700" stroke-width="0.25" stroke-miterlimit="10" stroke-opacity="0.3" points="550.667,267.001 
	551.425,263.917 553.546,265.917 555.917,264.584 557.167,265.459 559.934,261.334 561.084,266.167 562.501,264.168 
	563.501,267.001 564.751,266.334 565.501,268.073 567.501,266.501 568.584,269.667 571.001,268.073 570.5,272.125 "/>
<polyline fill="none" stroke="#070700" stroke-width="0.25" stroke-miterlimit="10" stroke-opacity="0.3" points="551.425,267.001 
	551.425,265.834 553.546,267.313 555.834,265.834 557.167,267.313 559.584,264.251 560.334,268.834 561.797,266.543 563,268.834 
	564.299,267.648 565.25,269.375 567.167,268.337 568.001,271.084 569.667,270.167 "/>
<path fill="#2C0BB7" stroke="#000000" stroke-width="3" stroke-miterlimit="10" d="M449.968,338.667L445,345.673
	c0,0,26.463,10.431,27.13,16.265l-0.296-14.438C471.834,347.5,460.436,350.341,449.968,338.667z"/>
<path fill="#2C0BB7" stroke="#000000" stroke-width="3" stroke-miterlimit="10" d="M497,332.667c2.403-3.505-3,14.333-3,14.333
	c-6.5,2.5-16.833,13.833-16.833,13.833v-13.166C477.167,347.667,495.167,335.341,497,332.667z"/>
<path opacity="0.9" fill="#B5307C" stroke="#000000" stroke-width="3" stroke-miterlimit="10" d="M481.49,358.5
	c3.322-2.833,10.177-2.667,12.01,0.333s-6,21.834-10.25,15.834s-13.75-6.5-15.5-2.167s-16.083,9.667-15.417,3.833
	s-3.083-14.749-3.083-14.749c2.667-9.396,19.417-2.584,19.417-2.584l1.933,0.383v1.951l-0.85,0.604l-0.86-1.104"/>
<polyline points="468.89,357.884 477.167,357.884 477.167,369 471.125,369 469.688,358.54 "/>
<path d="M470.003,360.833c0,0-0.776-0.235-1.92-0.336c-2.331-0.205-6.183,0.146-8.083,4.17c-2.833,6,9.982-3.986,10.361-1.226"/>
<path d="M470.6,365.176c0.022,0.163-9.433,5.324-8.433,3.824s7.521-6.053,7.521-6.053l0.912-1.01"/>
<path d="M477.167,363.441c0,0,11,1.936,9.917,4.247c-1.084,2.312-9.25,0-9.25,0"/>
<polyline points="477.167,361.938 482.162,359.333 477.167,357.884 "/>
<polyline fill="#2C0BB7" stroke="#000000" stroke-width="3" stroke-miterlimit="10" points="462.093,378.902 422.667,409.001 
	415.167,441.834 433.667,433.334 434.333,419.001 448.5,406.334 452.5,397.834 464.097,398.688 455.988,390.764 467.482,376.323 
	462.093,378.902 "/>
<path fill="none" stroke="#000000" stroke-width="3" stroke-miterlimit="10" d="M468.89,372.625
	c1.89,27.151-17.056,72.042-14.556,64.042s-3-23.166-3-23.166l0,0"/>
<polyline fill="none" stroke="#000000" stroke-width="3" stroke-miterlimit="10" points="467.5,380.667 457.5,391.001 
	466.099,398.688 "/>
<path fill="none" stroke="#000000" stroke-width="3" stroke-miterlimit="10" d="M464.977,400.501L447,398.688l4.333,3.813
	L447,403.167l5.776,14.951"/>
<path fill="none" stroke="#000000" stroke-width="3" stroke-miterlimit="10" d="M481.334,374.063c0,0,4.666,15.125,5,15.614
	c0.333,0.489,1.879,26.49,7.439,40.823"/>
<polyline fill="none" stroke="#000000" stroke-width="3" stroke-miterlimit="10" points="485.5,389.678 477.167,397.834 
	467.5,392.834 "/>
<polyline fill="none" stroke="#000000" stroke-width="3" stroke-miterlimit="10" points="477.167,397.834 474.167,406.943 
	479.665,404.282 474.167,413.167 479.665,417.167 474.167,422.334 479.665,426.334 476.5,430.501 "/>
<polyline points="479.665,373 475.354,398.258 479.447,394.083 "/>
<polygon points="469.291,372.625 470.361,371.292 473.822,370.167 475.838,395.835 475.523,397.04 "/>
<path fill="#2C0BB7" stroke="#000000" stroke-width="3" stroke-miterlimit="10" d="M504.167,409.167l21.667,23l4.5-0.833
	l11.166-25.667c0,0-6.333-10.833-16.333-13.666s-2.5,33.666-5.686,22.167s-21.093-29.863-21.093-29.863L492,396.576l12.796,2.111
	L504.167,409.167"/>
<path fill="none" stroke="#000000" stroke-width="3" stroke-miterlimit="10" d="M526.5,391.334v-10.667
	c0,0,12.166,3.667,13.5,10.667s-2.056,9.527-2.056,9.527"/>
<path fill="none" stroke="#000000" stroke-width="3" stroke-miterlimit="10" d="M529.375,383.079l3.813-12.153l-16.998-12.753
	c0,0-3.611-3.097-1.656-7.298c3.094-6.646,11.867-16.278,8.203-22.469c-5.98-10.103,5.146-21.455,10.814-18.622
	c5.666,2.833,1.482,13.965-4.018,28.465s16.75,6.157,15.75,5.324c-0.496-0.412-4.07-6.995-4-9.657
	c0.07-2.716,3.791-1.507,3.791-1.507l14.709,7.507l7-10.01c0,0-14.449-16.239-3.783-13.406c7.586,2.015,15.783,17.759,13.117,17.416
	c-1.246-0.16-1.582,1.538-2.588,4.029c-1.148,2.846-3.17,6.726-8.412,10.054c0,0,1.832,12.813-8.834,19.36s-15,3.419-17.166,3.566
	c-2.168,0.147-0.834,16.495-0.834,16.495"/>
<path fill="none" stroke="#000000" stroke-width="2" stroke-miterlimit="10" d="M565.117,347.999c0,0-11.951-10.342-16.117-3.675
	s-5.667,10.136,0,12.151s7.001-0.892,7.001-0.892l0.416-2.5c0,0-2.166-6.188-4.833-2.833s0.25,4.407,0.583,5.24"/>
<polyline points="479.285,360.833 482.917,359.167 481.334,357.167 478.906,359 "/>
<polyline points="478.035,367.743 475.838,367.001 475.838,364.167 477.678,363.537 "/>
<path d="M467,359.91"/>
<line fill="#FFFFFF" stroke="#000000" stroke-width="3" stroke-miterlimit="10" x1="467.875" y1="374.285" x2="458.565" y2="381.596"/>
<line fill="#FFFFFF" stroke="#000000" stroke-width="3" stroke-miterlimit="10" x1="465.943" y1="382.276" x2="469.022" y2="378.465"/>
<line fill="#FFFFFF" stroke="#000000" stroke-width="3" stroke-miterlimit="10" x1="482.033" y1="376.323" x2="480.911" y2="372.246"/>
<line fill="#FFFFFF" stroke="#000000" stroke-width="2" stroke-miterlimit="10" x1="560" y1="338.667" x2="563" y2="341.882"/>
<line fill="none" stroke="#000000" stroke-width="3" stroke-miterlimit="10" x1="507.17" y1="412.354" x2="503.441" y2="408.105"/>
<line fill="none" stroke="#000000" stroke-width="3" stroke-miterlimit="10" x1="433.167" y1="428.834" x2="415.974" y2="438.302"/>
<polygon opacity="0.6" fill="#EF9EAC" points="473.1,347.811 475.354,347.811 475.838,357.187 473.1,357.884 "/>
<path fill="none" stroke="#000000" stroke-width="3" stroke-miterlimit="10" d="M504.167,409.167
	c-0.453,4.239-0.671,8.07-0.781,11.272c-0.302,8.8,0.206,12.852-1.136,7.574"/>
<path fill="#EF9EAC" d="M426.334,438.302l-9.459,4.261c0,0-9.688,12.625-8.438,13.938c0,0-0.585,2.484,2.5,1.25l6.393-8l1.607,1.25
	c0,0-7.063,8.25-5.563,10.813s5.688-3.438,6.375-5.25s4.75-7.5,5.563-7.313s1.047-1.695,1.367,1.121s-6.617,6.258-5.992,12.068
	c0,0,5.25,4.998,9-15.314c0,0,1.813-2.375,3,4.313c0,0,4.001,9.213,9.563,5.875c0,0,4.769-0.899,1.688-4s-5.188-2.063-10.125-7.625
	S432.793,441.416,426.334,438.302"/>
<path fill="none" stroke="#000000" stroke-width="2" stroke-miterlimit="10" d="M416.167,441.834c0,0-16,19.317-4.667,16.817
	l6.833-8.297c0,0-8.058,8.964-5.446,12.297s11.279-10.5,12.612-12.5s-10.5,13.166-4.333,13.833s9.333-15.166,9.333-16.166
	s2.5,12.834,10.5,11s3.833-5.465,3.833-5.899s-9.833-5.6-11.333-9.766"/>
<path fill="none" stroke="#000000" stroke-width="3" stroke-miterlimit="10" d="M498.667,383.834
	c0.516,0.744-6.254-9.243-8.917-9.549"/>
<polyline fill="#FFFFFF" stroke="#000000" stroke-width="3" stroke-miterlimit="10" points="282,555 282,656.331 309.333,656.331 
	306,555 "/>
<polyline fill="#FFFFFF" stroke="#000000" stroke-width="3" stroke-miterlimit="10" points="309.333,656.331 319.333,644.998 
	319.333,555 "/>
<polyline fill="#FFFFFF" stroke="#000000" stroke-width="3" stroke-miterlimit="10" points="334.646,552.518 334.646,643.665 
	347.698,650.331 359.68,638.998 359.68,554.529 "/>
<line fill="#FFFFFF" stroke="#000000" stroke-width="3" stroke-miterlimit="10" x1="347.698" y1="650.331" x2="346.512" y2="552.103"/>
<polyline fill="#FFFFFF" stroke="#000000" stroke-width="3" stroke-miterlimit="10" points="598,542.5 600,644.331 619.834,644.331 
	619.834,540.5 "/>
<polyline fill="#FFFFFF" stroke="#000000" stroke-width="3" stroke-miterlimit="10" points="619.834,644.331 627.667,634.331 
	625.25,510.331 "/>
<polyline fill="#FFFFFF" stroke="#000000" stroke-width="3" stroke-miterlimit="10" points="645.25,432.167 650.667,562.331 
	644.825,572.331 638.715,468.334 "/>
<polyline fill="#FFFFFF" stroke="#000000" stroke-width="3" stroke-miterlimit="10" points="644.691,574.998 638.715,566.665 
	632.715,478.334 "/>
<polyline opacity="0.8" fill="#C49239" points="283.5,556.5 283.5,654.75 307.75,654.75 304.25,555 "/>
<polyline opacity="0.8" fill="#C49239" points="307.75,555 309.333,653 317.5,644.25 317.5,555 "/>
<polyline opacity="0.8" fill="#C49239" points="336.25,554.529 336.25,643 346.512,648 344.5,554.529 "/>
<polyline opacity="0.8" fill="#C49239" points="347.698,553.5 349,646.5 358,638.25 358,553.5 "/>
<polyline opacity="0.8" fill="#C49239" points="599.75,542.5 601.25,642.75 618.25,642.75 618.25,542.5 "/>
<polyline opacity="0.8" fill="#C49239" points="621.5,542.5 619.75,641.25 627.667,634.331 623.75,531 "/>
<polyline opacity="0.8" fill="#C49239" points="634.25,486.99 639.75,566.463 644.825,572.331 637.25,474.451 "/>
<polyline opacity="0.8" fill="#C49239" points="639.537,468.25 646.25,566.463 649,561.5 644.269,445.5 "/>
<path fill="#FFFFFF" stroke="#000000" stroke-width="2" stroke-miterlimit="10" d="M523.25,191"/>
<path fill="#FFFFFF" stroke="#000000" stroke-width="4" stroke-miterlimit="10" d="M420.75,252.125c0,0-10.083,6.84-14.75,4.674
	s10.958-17.796,10.625-25.13l1.053-12.168"/>
<path fill="#FFFFFF" stroke="#000000" stroke-width="4" stroke-miterlimit="10" d="M419.25,241.375"/>
<path fill="#FFFFFF" stroke="#000000" stroke-width="4" stroke-miterlimit="10" d="M505.936,216.734c0,0,0.696,9.003,3.231,16.433
	c1.887,5.529,4.225,10.697,6.643,11.906c2.963,1.481,1.113,4.579-1.518,6.627c-2.401,1.869-5.453,2.862-6.089,0.954"/>
<path id="hair_1_" fill="#FFFFFF" stroke="#000000" stroke-width="4" stroke-miterlimit="10" d="M427.125,226.25
	c0,0-7.75-11.25-7-17.125s-1.75,12.5-1.75,12.5s-6.375-7.875-6.875-15s-6.125,5.875-6.25,7S403.638,202.324,417,189.5
	c4.173-4.005-11.169,6.202-10.336,4.737c0,0,13.961-22.987,22.836-22.862s-6.125-2-0.75-4.875s16.5-1.125,19.375,1.25
	s4.875-2.5,5-1.625s7.947-21.363,28.625-13.875c6.499,2.354-6.625,0.5-5.375,3.25c0,0,10.625,0,13.625,1.375s-4.5,1.625-3.25,3
	s11.011,6.702,17.125,11.875c1.95,1.65,7.239,2.715,10,2.5c4.14-0.321,7.989-2.9,8-4.625c0,0-0.632,6.647-5.5,11.875
	c-5.75,6.175,6.875-7.542,6.875-7.542c0.667-2.241,1.125,11.042-7.625,19.792c0,0,5.72-0.842,7.322-2.59
	c3.012-3.285-4.322,9.34-14.322,16.465s8.25-3.875,8.25-3.875s-4.875,11.5-18.125,16.5"/>
<path fill="#FFFFFF" stroke="#000000" stroke-width="2" stroke-miterlimit="10" d="M452.497,166.583
	c0,0,22.587-12.051,35.751,12.154"/>
<path fill="#FFFFFF" stroke="#000000" stroke-width="2" stroke-miterlimit="10" d="M461.165,207.043L462.75,201
	c0,0,0.167-10.999,2.083-13.333"/>
<path fill="#FFFFFF" stroke="#000000" stroke-width="2" stroke-miterlimit="10" d="M450.833,215.333
	c-1.5,4.666,7.568,2.229,7.568,2.229"/>
<path fill="#FFFFFF" stroke="#000000" stroke-width="2" stroke-miterlimit="10" d="M470.786,214.281c0,0,12.214,3.052,10.548-2.448"
	/>
<path d="M494,206.454c0,0,7.503-2.271,13-9.099c2.5-3.105-3,14.897-11.5,9.688"/>
<path fill="#FFFFFF" stroke="#000000" stroke-width="3" stroke-miterlimit="10" d="M500.875,300.375
	c-36.625-5.875-59.5,7.25-59.5,7.25"/>
<ellipse cx="482.219" cy="412.969" rx="1.719" ry="1.656"/>
<ellipse cx="483.073" cy="421.156" rx="1.739" ry="2.219"/>
<line fill="#FFFFFF" stroke="#000000" stroke-width="4" stroke-miterlimit="10" x1="416.875" y1="438.82" x2="409.875" y2="440.9"/>
<path fill="#FFFFFF" stroke="#000000" stroke-width="3" stroke-miterlimit="10" d="M442.667,438.82"/>
<path fill="#FFFFFF" stroke="#000000" stroke-width="3" stroke-miterlimit="10" d="M444.33,434.665"/>
<line fill="#FFFFFF" stroke="#000000" stroke-width="3" stroke-miterlimit="10" x1="457.5" y1="438.82" x2="464.977" y2="437.783"/>
<path id="face_3_" fill="#FFFFFF" stroke="#000000" stroke-width="5" stroke-miterlimit="10" d="M439.333,191
	c0,0-7.093,23.874-15,50.839c-9.632,32.849-18.954,70.2,1,73.495c0,0,12.333,3,15.333,10.333
	c1.999,4.888,9.774,12.292,17.698,16.589c3.965,2.149,7.967,3.521,11.302,3.411c10-0.333,12.118,1.203,23.784-12.131
	s18.215-7.202,20.549-12.202c0,0,12.333-9.668,0-44.334c-8.668-24.366-24.333-82.333-24.333-82.333"/>
<path fill="#EF9EAC" d="M487.25,194.625c0,0,0.451,4.715,7.375,27.375c3.259,10.667,6.773,26.064,14.375,46.337
	c16.161,43.1,5.053,51.45-3.375,53.913c-3.957,1.156-6.93,2.875-6.93,2.875c-1.793,2.868-4.774,4.117-6.695,6.25
	c-4.98,5.529-10.102,10.212-15.063,11.625c-8.062,2.296-15.711-1.537-21.687-5.75c-2.951-2.081-6.211-3.856-8-6.75
	c-8.5-13.75-11-14-23-17.969S416.75,292,417,281.25S441.375,192,441.375,192l-4.208-2.004l1.667-17.662
	c0,0,6.321-0.304,12.792-2.584c3.519-1.239,2.84-3.413,6.777-4.247c7.133-1.513,15.246-1.042,21.553,4.372
	c2.473,2.124,5.897,5.068,7.025,8.862L492,193.83L487.25,194.625z"/>
<path fill="#FFFFFF" stroke="#000000" stroke-width="3" stroke-miterlimit="10" d="M467.75,316.5c0,0,8.604-8.625,13.74-6.375"/>
<path fill="#FFFFFF" stroke="#000000" stroke-width="2" stroke-miterlimit="10" d="M462.114,203.425
	c-1,6.5-14.864,4.075-14.864,4.075c10-14.25,15.5-6.5,15.5-6.5s-12.314,47-12.782,48.25s-2.946,33,14.418,34.5
	s14.67-25.629,13.358-32.5c-2.506-13.124-6.049-34.709-9.494-48c0,0,0.333-7.834,6-3.417s9,7.917,9,7.917s-3.667,3.25-13.75-2"/>
<path d="M474.25,207.333c-2.584-1.75,0-6.583,0-6.583l8.125,7.087l-3.871,0.869L474.25,207.333z"/>
<path fill="#FFFFFF" stroke="#000000" stroke-width="3" stroke-miterlimit="10" d="M466.505,287.625c0,0-0.38,6.875,6.37,7.375"/>
<path fill="#EF9EAC" d="M462.999,203.438l4.626,1.563c0,0,10.25,47.375,9.25,48s6.403,29.625-10.374,29.625
	c0,0-17.669,3.625-15.835-33.25"/>
<path d="M453.25,201.833c0,0,5.25,10.668,8.833-0.416C462.083,201.417,459.25,196.166,453.25,201.833z"/>
<path fill="#EF9EAC" d="M488.125,251.875"/>
<path d="M459.75,195.417c0,0-21.55,4.591-19.417-23.083C440.333,172.334,459,179.25,459.75,195.417z"/>
<path fill="#EF9EAC" d="M420.75,219.501l-1,6.749l-1.375,7.125c0,0-0.391,1.878-1.984,4.987c-3.24,6.324-9.013,16.347-9.516,16.263
	c-0.75-0.125,3.03,3.478,12.375-3.75l6.75-22.75L420.75,219.501z"/>
<path d="M419.25,241.375c0,0-2.646,1.663-4.333,3.709c-2.063,2.5-3.115,5.449-1.388,5.083c1.021-0.217,3.389-1.075,4.222-2.333
	C419.479,245.223,419.25,241.375,419.25,241.375z"/>
<path opacity="0.7" d="M438.833,172.334l-1.667,17.662L428,223.5c0,0-3.493-4.204-4.875-8.167c-1.288-3.693-1.442-7.338-1.081-7.338
	c0,0-2.426-5.678-3.794,3.838c-0.163,1.134-1.157,2.472-1.25,4.042c0,0-1.045,0.134-2.25-3.375
	c-1.236-3.599-2.66-10.832-4.875-10.006c-4.375,1.631,9.646-12.744,9.385-13.244s1.34-2.104-6.6-0.771s14.854-19.797,18.479-16.797
	s-7.769-6.908,3.361-4.557c0,0,11.625-4.25,18.75,1.25C453.25,168.375,451.417,171.418,438.833,172.334z"/>
<path d="M479.955,158.5"/>
<path opacity="0.7" d="M454.534,166.875c0,0,7.841-15.75,20.591-14.125c0,0,11.625,2.25,30.125,21.625c0,0,5.625,3.5,12.875,1
	S514,181.75,512.75,182c-0.123,0.024,0.27,8.375,7.635-2.375c4.461-6.512,1.274,2.643-3.059,9.625
	c-2.821,4.546-6.951,7.26-6.951,7.26s8-1.135,8-1.51S510,206.24,504.25,207.995c-0.719,0.22,0.692,1.513,0.453,1.691
	c-1.675,1.247,5.172,0.438,5.172,0.438s-3.375,6.5-11.125,8.625s-6.25-24.783-6.25-24.783s-2.068-3.371-2.803-7.642
	c-0.697-4.056-0.056-9.035-0.334-8.617c-0.498,0.748-8.633-14.024-24.53-14.125c-2.348-0.015-4.458-0.778-7.166,0L454.534,166.875z"
	/>
<path d="M470.75,195.702c0,0-2.811-8.199,4.417-9.451c6.323-1.096,13.833-9.255,13.833-10.089c0-0.789,5.564,20.98-14.75,20.333
	C473.088,196.458,472.089,195.891,470.75,195.702z"/>
<path fill="#EF9EAC" d="M499.5,222.375l4.75-2.874c0,0,2.018,11.081,4.75,18.861c1.398,3.979,2.341,7.098,4.625,7.424
	c1.997,0.285,1.081,2.565,0.5,3.339c-1.384,1.84-5.125,2.75-5.125,2.75L499.5,222.375z"/>
<path d="M508.524,247.49c0.57-0.874,1.643-3.153,1.346-4.632c-0.617-3.071-3.494-5.636-3.494-5.636"/>
<path fill="none" stroke="#000000" stroke-miterlimit="10" d="M437.167,189.996l1.667-17.662c0,0,8.63-0.838,11.134-2.043"/>
<path fill="none" stroke="#000000" stroke-miterlimit="10" d="M489.697,186.325c0,0,1.178,6.085,2.303,7.505"/>
<path fill="none" stroke="#020202" stroke-width="2" stroke-miterlimit="10" d="M471.125,214.36c0,0,6.875,3.306,11.25-2.527"/>
<path fill="none" stroke="#020202" stroke-width="2" stroke-miterlimit="10" d="M440.185,307.625c0,0,32.815-13.625,63.315-7.125"/>
<path fill="none" stroke="#020202" stroke-width="2" stroke-miterlimit="10" d="M457.667,216.766c0,0-3.731,3.486-7.699-1.64"/>
<path fill="none" stroke="#020202" stroke-width="2" stroke-miterlimit="10" d="M462.75,199.75c0,0,0.375-5.75,0.625-7.375"/>
<polyline fill="none" stroke="#000000" stroke-width="4" stroke-miterlimit="10" points="457.5,449.25 501.75,448.25 
	514.75,430.501 464,430.501 "/>
<polyline fill="none" stroke="#000000" stroke-width="4" stroke-miterlimit="10" points="517.125,428.834 518.5,460.074 
	503.209,479.893 "/>
<polyline fill="none" stroke="#000000" stroke-width="5" stroke-miterlimit="10" points="466.346,430.501 457.5,449.25 458.565,480 
	501.787,479.001 "/>
<polyline points="407.441,495.285 407.104,492.135 410.203,491.375 415.167,490 413.302,494.186 409.646,497.022 "/>
<path fill="none" stroke="#000000" stroke-width="2" stroke-miterlimit="10" d="M406.625,497.022c0,0-3.75-15.897,25.25-7.147"/>
<path fill="none" stroke="#000000" stroke-width="3" stroke-miterlimit="10" d="M344.5,479v32.5c0,0,16.25,6.75,31.25,0v-34
	C375.75,477.5,372.5,483.5,344.5,479z"/>
<path fill="none" stroke="#000000" stroke-width="3" stroke-miterlimit="10" d="M344.5,477.5c0,0,4.75-9,32.5-4.25"/>
<line fill="none" stroke="#000000" stroke-width="3" stroke-miterlimit="10" x1="364.25" y1="474.683" x2="364.25" y2="465.75"/>
<line fill="none" stroke="#000000" stroke-width="4" stroke-miterlimit="10" x1="501.75" y1="448.033" x2="503.209" y2="481.334"/>
<line fill="none" stroke="#000000" stroke-width="2" stroke-miterlimit="10" x1="469.022" y1="460.074" x2="469.022" y2="470.217"/>
<line fill="none" stroke="#000000" stroke-width="4" stroke-miterlimit="10" x1="459.591" y1="438.82" x2="433.167" y2="439.653"/>
<polyline fill="none" stroke="#000000" stroke-width="4" stroke-miterlimit="10" points="619.834,542.5 619.834,522.5 
	476.916,525.833 274.667,535.166 325.5,443.153 413.528,440.32 "/>
<line fill="none" stroke="#000000" stroke-width="4" stroke-miterlimit="10" x1="275.75" y1="535.166" x2="275.75" y2="555"/>
<polyline fill="none" stroke="#000000" stroke-width="4" stroke-miterlimit="10" points="275.75,555 619.834,540.5 645.25,432.167 
	"/>
<line fill="none" stroke="#000000" stroke-width="3" stroke-miterlimit="10" x1="355.5" y1="474.683" x2="355.5" y2="468.25"/>
<line fill="none" stroke="#000000" stroke-width="2" stroke-miterlimit="10" x1="463.75" y1="465.75" x2="474.167" y2="465.75"/>
<line fill="none" stroke="#000000" stroke-width="2" stroke-miterlimit="10" x1="481.334" y1="464.005" x2="490" y2="464.005"/>
<path d="M475.838,435.75c0,0-3.768,3.891,2.197,4.57s7.382-0.098,9.049-1.084C488.75,438.25,485.426,432.25,475.838,435.75z"/>
<path fill="none" stroke="#000000" stroke-width="3" stroke-miterlimit="10" d="M478.035,440.32l4.127-0.667
	c0,0-6.834,14.138-7.498,25.492s28.696-0.213-4.289,34.366c0,0-10.045,15.988,9.29,6.988"/>
<path fill="none" stroke="#000000" stroke-width="3" stroke-miterlimit="10" d="M493.773,440.32c0,0-5.023,16.18,14.477,21.43
	c16.473,4.435,16.423,19.724,17.625,27.857c0.222,1.495-0.369,10.65,0.597,12.14c2.034,3.14,11.191-3.775,16.278-6.997
	c7.5-4.75,11.5-5.5,17-5.25"/>
<line fill="none" stroke="#000000" stroke-width="2" stroke-miterlimit="10" x1="528" y1="393.756" x2="539" y2="408.236"/>
<path fill="none" stroke="#000000" stroke-width="5" stroke-miterlimit="10" d="M406.625,495.25c0,0,3.375,14.5,2.125,16.5
	s23.125-2.756,23.125-2.756l0.875-15.244"/>
<path fill="none" stroke="#000000" stroke-width="2" stroke-miterlimit="10" d="M432.688,494.394c0,0-13.438-4.144-23.563,2.981"/>
<path fill="none" stroke="#000000" stroke-width="2" stroke-miterlimit="10" d="M431.125,497.375c0,0-10.875-2.25-21.25,4.625"/>
<path fill="none" stroke="#000000" stroke-width="2" stroke-miterlimit="10" d="M429.875,502c0,0-17.895-1.628-19.375,3.375"/>
<path d="M419,502.901c0,0-3.25,0.724-3.375,2.474s3.5,1.125,5.875,0.75S411.125,510,411.125,510l-1.25-4.625l5.96-3.375"/>
<path d="M416.875,499.512c0,0,11.75-0.637,13-0.637s0-1.5,0-1.5H418.5"/>
<path d="M413.55,496.172l-2.05-2.977c-3.875-6.316,19.625-2.37,19.625-2.37"/>
<line fill="none" stroke="#000000" stroke-miterlimit="10" x1="381.25" y1="510" x2="377" y2="512.054"/>
<path d="M495,434.665c0,0-9.834,7.91,2,5.912S495,434.665,495,434.665z"/>
<path d="M432.625,443.688c0,0-3.875-6.547-7.25-4.867c-4.453,2.217-4.348,2.173,5.5-2.82l2.292,1.875l1.396,5.25"/>
<polyline fill="none" stroke="#000000" stroke-width="4" stroke-miterlimit="10" points="619.834,522.5 645.25,432.167 
	518.5,434.665 "/>
</svg>
