<?xml version="1.0" encoding="utf-8"?>
<!-- Generator: Adobe Illustrator 16.0.0, SVG Export Plug-In . SVG Version: 6.00 Build 0)  -->
<!DOCTYPE svg PUBLIC "-//W3C//DTD SVG 1.1//EN" "http://www.w3.org/Graphics/SVG/1.1/DTD/svg11.dtd">
<svg version="1.1" id="Layer_1" xmlns="http://www.w3.org/2000/svg" xmlns:xlink="http://www.w3.org/1999/xlink" x="0px" y="0px"
	 width="930px" height="820px" viewBox="0 0 930 820" enable-background="new 0 0 930 820" xml:space="preserve">
<path opacity="0.7" fill="#050404" d="M279.339,232.484c-0.157-0.571-0.692-0.781-1.23-0.699c-0.135,0.021-0.266,0.057-0.4,0.082
	c-0.296-0.625-0.825-1.155-1.544-1.403c-0.254-0.088-0.538-0.151-0.84-0.199c-0.059-1.032-0.66-2.041-1.785-2.301
	c-1.561-0.361-3.133-0.449-4.652-0.187c-1.467-0.315-2.947-0.775-4.388-0.778c-0.585-0.001-1.061,0.166-1.433,0.435
	c-1.295-0.598-2.729-0.874-4.192-0.685c-2.215,0.286-3.724,3.392-1.262,4.659c1.773,0.913,2.679,1.836,3.531,3.219
	c-1.82,0.016-3.628,0.096-5.434,0.461c-2.328,0.471-2.208,3.206-0.726,4.361c-2.067,0.617-3.969,1.703-6.149,2.139
	c-1.204,0.24-1.751,1.088-1.798,2.011c-0.788,0.401-1.554,0.844-2.299,1.241c-0.52,0.277-0.847,0.691-1.033,1.155
	c-0.216-0.054-0.46-0.024-0.71,0.14c-0.979,0.643-1.915,1.174-3.12,1.113c-1.159-0.059-1.318,1.645-0.266,1.964
	c1.371,0.416,2.794,0.437,4.203,0.277c-0.384,2.557-2.454,4.609-3.401,6.993c-0.215,0.542,0.069,0.931,0.48,1.101
	c-1.546,4.627-2.563,9.671-3.301,14.375c-0.383,2.442,2.202,4.192,4.178,2.432c1.428-1.271,2.193-2.901,2.985-4.615
	c1.694-3.667,2.607,0.664,2.748,2.723c0.167,2.444,2.948,3.238,4.457,1.508c0.175,0.356,0.385,0.693,0.628,0.993
	c0.06,0.665-0.01,1.402,0.04,1.874c0.184,1.756,1.333,3.242,1.5,5c0.299,3.153,5.147,3.262,5,0
	c-0.154-3.406,1.428-6.441,2.536-9.585c1.204-3.417,2.333-6.87,3.873-10.153c0.457-0.973,0.244-2.085-0.337-2.86
	c3.171-5.44,6.249-10.442,6.429-17.026c0.023-0.862-0.322-1.486-0.834-1.887c0.225-0.528,0.436-1.059,0.62-1.574
	c0.24-0.67,0.108-1.32-0.227-1.86c0.471-0.214,0.944-0.436,1.413-0.623C272.51,237.618,273.304,239,275,239
	c0.04,0,0.075-0.007,0.113-0.009c-0.576,0.584-1.239,1.1-1.82,1.552c-1.018,0.79,0.409,2.195,1.414,1.414
	c1.862-1.446,3.969-3.379,3.793-5.957c-0.012-0.174-0.064-0.32-0.136-0.447c0.084-0.587,1.994-2.205,1.712-2.723
	c0.188-0.038-1.626,0.913-1.436,0.884C279.181,233.632,279.471,232.963,279.339,232.484z"/>
<path opacity="0.7" fill="#050404" d="M350.768,246.393c2.216-2.338-1.313-5.88-3.535-3.535c-0.89,0.939-1.806,1.653-2.688,2.28
	c0.021-0.184,0.016-0.364-0.002-0.541c0.674-1.012,1.313-2.051,1.947-3.092c0.064-0.105,0.088-0.207,0.111-0.308
	c0.054-0.059,0.117-0.121,0.168-0.179c0.75-0.863,0.778-1.866,0.417-2.694c0.384-0.305,0.781-0.588,1.195-0.835
	c1.106-0.659,0.102-2.388-1.01-1.727c-0.546,0.325-1.074,0.701-1.579,1.112c-0.81-0.371-1.779-0.29-2.559,0.608
	c-0.354,0.407-0.725,0.8-1.103,1.189c-0.401-0.115-0.84-0.118-1.294,0.043c-4.271,1.512-7.62-0.477-11.593-1.781
	c-3.498-1.148-4.619-5.024-7.606-6.967c-0.828-0.539-1.663-0.48-2.334-0.101c-0.058-0.049-0.103-0.103-0.166-0.149
	c-0.475-0.345-0.973-0.635-1.479-0.907c-0.621-0.411-1.22-0.848-1.809-1.303c-0.516-0.409-1.044-0.829-1.582-1.273
	c-0.505-0.419-1.056-0.596-1.591-0.606c-0.091-0.403-0.391-0.751-0.926-0.751h-1.25c-0.053,0-0.091,0.022-0.14,0.028
	c-0.318-0.423-0.644-0.84-1-1.235c-1.064-1.183-2.539-1.671-4.055-1.989c-0.953-0.378-1.985-0.598-3.18-0.554
	c-0.551,0.021-1.019,0.216-1.398,0.511c-0.904-0.624-1.904-1.131-3.188-1.422c-0.548-0.125-1.038-0.072-1.462,0.09
	c0.257-1.715-1.329-3.391-3.117-2.84c-6.708,2.066-13.48,4.562-13.335,12.786c0.057,3.221,5.057,3.226,5,0
	c-0.002-0.146,0.276,0.108,0.281-0.031c0.292,0.141,0.354-0.139,0.719-0.094c1.693,0.208,3.464-0.657,5.063-1.063
	c1.887-0.478,3.597-0.531,5.563-0.563c0.215-0.003,0.414-0.032,0.6-0.077c2.495,1.951,5.602,3.875,8.685,4.423
	c2.821,2.836,5.176,6.4,7.181,9.04c0.799,1.052,2.43,1.495,3.527,0.906c-0.038,0.145-0.075,0.29-0.108,0.43
	c-0.103,0.433-0.195,0.871-0.273,1.313c-1.704,0.02-3.405,1.809-2.271,3.726c0.723,1.222,1.89,2.225,2.743,3.369
	c0.261,0.652,0.578,1.287,1.007,1.881c0.601,0.833,1.616,1.14,2.556,1.043c-0.015,0.371-0.026,0.74-0.042,1.111
	c-0.133,3.151,1.395,6.26,2.372,9.174c1.341,3.995,2.575,8.024,3.737,12.075c0.469,1.634,2.226,2.205,3.672,1.494
	c2.196-1.079,3.825-2.893,5.996-4.025c2.4-1.252,4.197-2.08,6.04-4.146c3.466-3.887,5.138-9.064,8.236-13.227
	c1.252-1.683-0.5-3.594-2.159-3.762c-0.575-0.058-1.142-0.07-1.709-0.068c-0.183-0.768-0.684-1.38-1.334-1.781
	c0.193-0.208,0.387-0.363,0.523-0.407C347.63,250.222,349.102,248.151,350.768,246.393z"/>
<path opacity="0.6" fill="#EF9EAC" d="M403.262,378.092c-0.58-0.258-1.169-0.493-1.75-0.75c-0.106-0.047-0.218-0.088-0.331-0.127
	c-0.093-0.307-0.2-0.61-0.333-0.903c-0.99-2.173-3.949-4.264-2.189-6.55c1.002-1.302-0.081-3.292-1.494-3.672
	c-4.16-1.118-8.066,0.688-9.156,4.997c-1.292,5.104,4.987,6.818,6.74,10.497c-1.038,1.034-2.054,2.107-2.898,3.251
	c-1.601,1.613-2.838,3.89-4.456,5.439c-1.417-4.008-6.218-4.724-10.344-4.41c-0.71-0.345-1.543-0.316-2.259,0.314
	c-0.834,0.282-1.381,1.134-1.503,2.009c-0.511,0.949-0.758,1.96-0.577,3.204c0.048,0.332,0.176,0.629,0.339,0.906
	c-0.532,0.096-0.986,0.354-1.329,0.727c-0.408-2.308-4.199-2.193-4.881,0.283c-0.183-0.038-0.379-0.06-0.59-0.057
	c-3.051,0.037-7.079,1.171-8.841-2.012c-0.006-0.011-0.016-0.019-0.021-0.029c0.557-1.14,0.261-2.709-0.886-3.379
	c0.459-1.106,0.93-2.208,1.394-3.305c0.473-0.067,0.947-0.3,1.372-0.758c4.007-4.317,4.008-9.446,3.982-15.018
	c-0.002-0.534-0.15-0.971-0.381-1.328c0.176-1.372-0.604-2.814-2.369-2.672c-0.412,0.033-0.847-0.032-1.29-0.136
	c-0.115-0.227-0.255-0.444-0.442-0.631l-1.5-1.5c-0.884-0.884-2.306-0.947-3.279-0.208c-1.695-0.697-3.763-1.033-5.393-0.285
	c0.149-0.355,0.292-0.724,0.424-1.112c1.758-5.149,0.533-11.52-2.029-16.464c-0.008-0.07-0.01-0.137-0.021-0.208
	c-0.864-5.801-1.135-10.616-3.757-15.376c-0.574-2.667-1.663-5.169-2.178-7.869c-0.246-1.288-1.19-1.819-2.182-1.796
	c-0.179-1.052-0.369-2.103-0.544-3.155c-0.253-1.518-0.967-2.832-1.956-3.919c-1.94-8.322-3.945-16.638-5.508-25.039
	c0.525,1.229,0.962,2.509,1.195,3.965c0.583,3.656,2.08,7.056,2.669,10.765c0.376,2.368,2.178,6.767,5.044,7.002
	c1.708,0.14,5.371-0.108,4.177-2.885c-0.985-2.29-3.069-3.711-4.126-5.925c-0.011-0.022-0.021-0.042-0.031-0.064
	c-0.001-1.464-0.761-2.772-1.457-4.086c-2.427-4.581-3.184-8.171-2.816-13.448c0.034-0.493-0.239-0.792-0.593-0.907
	c-0.021-0.525-0.034-1.055-0.032-1.593c0-0.214-0.074-0.385-0.176-0.532c0.001-0.104,0.009-0.208,0.012-0.312
	c0.081-0.069,0.165-0.128,0.246-0.199c0.736-0.642,0.104-1.6-0.666-1.667c-0.567-0.3-1.468-0.021-1.541,0.834
	c-0.001,0.021-0.004,0.038-0.005,0.059c-1.264,0.98-2.529,1.705-4,2.453c-0.489,0.249-0.55,0.806-0.387,1.266
	c-0.539-0.538-1.14-1.02-1.796-1.425c-0.461-2.324-1.447-4.223-2.863-5.643c0.083-0.218,0.15-0.449,0.176-0.709
	c0.146-1.468-0.219-2.622-0.932-3.423c0.637-0.612,0.867-1.547,0.717-2.492c-0.548-3.466-3.241-5.808-4.375-9
	c-0.271-0.764-0.784-1.249-1.38-1.5c0.158-0.505,0.262-1.033,0.262-1.585c0-1.344-0.505-2.586-1.331-3.55
	c-0.003-0.004-0.008-0.009-0.011-0.013c0.356-1.431-0.413-3.187-2.325-3.187c-1.051,0-1.753,0.534-2.119,1.25h-1.336
	c0.429-1.923,0.346-3.973-0.232-5.849c1.384-0.395,2.961-0.734,2.723-2.066c-0.016-0.088-1.049-1.171-1.077-1.255
	c-0.057-0.282-0.143-0.558-0.3-0.842c-0.447-0.802-1.321-1.228-2.198-1.219c-0.099-0.01,0.801-0.011,0.7-0.009
	c0.154-0.542-0.853-1.146-1.127-1.772c-0.623-1.422-1.586-1.677-2.77-2.748c-0.331-0.3-0.68-0.585-1.043-0.856
	c-0.292-0.461-0.623-0.768-0.994-1.006c-0.656-0.421-1.434-1.629-2.336-2.108c-0.924-0.49-1.978-0.332-3.162-0.788
	c-0.498-0.191-1.018-1.314-1.562-1.314c-0.238,0-0.472,0.007-0.7,0.021c-0.49,0.031-0.959,0.093-1.41,0.179
	c-1.563-0.964-3.017-0.193-4.869-0.193c-0.501,0-1.837,0.93-2.313,1c-1.275,0.187-1.776,0.017-2.75,0.451
	c-1.92,0.855-4.29,1.425-5.094,3.75c-0.216,0.132-0.709,0.398-0.909,0.563c-0.438,0.36-0.853,0.596-1.06,1.063
	c-2.363,0.712-1.381,5.028,1.353,5.229c0.198,0.258,0.432,0.479,0.696,0.648c0.088,0.59,0.185,1.18,0.291,1.767
	c-2.377,2.544-11.406,1.521-10.566,4.741c-0.077-0.042,0.792,5.51,1.957,6.248c2.218,1.407,5.504-1.509,5.35-1.571
	c0.05-1.285-0.746-2.681-2.394-2.813c-3.261-0.261-4.869,1.912-5.694,4.772c-1.02,3.537-3.497,6.335-4.091,10.063
	c-0.117,0.731,0.061,1.36,0.396,1.863c-3.968,9.58-7.033,19.521-10.164,29.423c-0.356,1.127-0.354,2.143-0.104,3.028
	c-1.007,1.651-1.936,3.338-2.781,5.076c0.474-1.574,0.908-3.16,1.278-4.71c0.231-0.968-0.941-1.685-1.671-0.973
	c-0.044,0.043-0.077,0.088-0.12,0.131c0.248-0.591,0.451-1.201,0.625-1.822c0.72-0.396,1.287-1.624,1.444-2.253
	c0.07-0.281,0.125-0.563,0.179-0.845c1.047-1.472,1.431-3.125,1.384-4.849c0.246-0.098,0.453-0.296,0.535-0.64
	c0.245-1.032,0.152-1.979-0.223-2.967c-0.368-0.97-1.003-1.872-1.116-2.923c-0.106-0.986-1.33-1.203-1.808-0.653
	c-0.394-1.347-0.813-2.683-1.228-3.988c-0.167-0.523-0.612-0.712-1.04-0.679c-0.015-0.352-0.046-0.7-0.049-1.056
	c-0.012-1.289-2.012-1.29-2,0c0.006,0.689,0.049,1.369,0.095,2.048c-0.124,0.113-0.235,0.251-0.309,0.436
	c-0.167,0.417-0.333,0.833-0.5,1.25c-0.291,0.728,0.309,1.196,0.931,1.193c0.272,2.442-0.201,5.103,1.101,7.207
	c-0.681,2.503-1.313,4.985-1.072,7.607c-1.328,1.097-1.549,4.232-1.808,5.596c-0.287,0.082-0.542,0.277-0.651,0.648
	c-0.356,1.211-1.118,2.172-1.993,3.059c-0.425,0.431-0.331,0.965-0.026,1.322c-1.827,2.229-3.641,4.453-4.88,6.88
	c-0.281,0.551-0.063,1.318,0.598,1.469c3.008,0.69,6.168-1.092,8.646-2.64c0.303-0.189,0.559-0.402,0.781-0.633
	c-0.174,0.542-0.344,1.088-0.502,1.643c-2.128,7.443-2.381,15.476-2.409,23.166c-0.007,1.874,0.416,3.468,1.132,4.795
	c-0.171,0.393-0.323,0.795-0.441,1.214c-2.542,9.029-1.594,21.916,9.151,25.009c1.358,0.391,2.763,0.568,4.152,0.828
	c0.669,0.352,1.35,0.598,2.034,0.758c0.478,0.395,1.197,0.927,1.196,0.927c3.02,2.759,6.359,4.057,9.795,5.49
	c2.276,3.125,4.783,6.197,7.678,8.648c0.09,4.939,3.307,9.986,9.636,10.331c0.592,0.032,1.171,0.034,1.751,0.04
	c0.405,0.212,0.81,0.424,1.257,0.603c3.879,1.55,7.607,1.495,11.65,0.667c1.437-0.294,2.698-0.968,3.758-1.88
	c1.51-0.415,2.981-0.978,4.398-1.651c4.489-2.136,8.47-5.787,12.324-8.895c0.417-0.336,0.834-0.661,1.251-0.979
	c0.258-0.041,0.52-0.111,0.788-0.246c6.104-3.065,14.03-4.201,15.774-11.994c0.162-0.723,0.022-1.344-0.284-1.843
	c0.728-0.547,1.397-1.146,2.014-1.809c-0.127,1.733,0.63,3.44,1.919,4.719c0.001,1.144,0.317,2.263,0.907,3.28
	c0.613,1.059,1.698,1.313,2.823,1.149c0.034-0.005,0.062-0.017,0.095-0.021c0.332,1.704,0.255,3.317,1.332,4.872
	c0.256,0.37,0.599,0.661,0.979,0.874c-0.086,0.139-0.167,0.285-0.231,0.449c-2.212,5.581-5.051,11.099-4.997,17.243
	c0.05,5.615,4.84,8.549,9.052,11.241c1.624,1.038,3.357,1.86,5.046,2.173c-0.063,0.193-0.121,0.39-0.178,0.588
	c-1.824,4.314-3.245,8.71-2.48,13.305c-0.792,0.006-1.319,1.291-0.476,1.916c0.999,0.741,2.948,3.105,4.595,3.014
	c0.062,0.152,0.134,0.301,0.234,0.44c0.659,0.918,2.066,0.374,1.828-0.771c-0.046-0.221-0.132-0.41-0.226-0.614
	c-0.024-0.054-0.063-0.08-0.092-0.125c-0.063-0.231-0.105-0.474-0.182-0.698c-0.081-0.238-0.234-0.415-0.416-0.538
	c0.042-0.109,0.083-0.221,0.112-0.344c0.283-1.214,0.341-3.364,0.463-5.741c0.353-0.288,0.636-0.699,0.787-1.259
	c0.86-3.192,2.28-6.134,2.762-9.415h8.828c0.525,0,0.957-0.143,1.311-0.365c2.64-0.329,5.104-1.619,6.748-3.827
	c2.351-3.158,1.813-7.819,0.58-11.442c0.284-0.021,0.576-0.079,0.873-0.207c1.783-0.766,2.974-2.035,4.024-3.489
	c0.813,0.074,1.697-0.267,2.373-1.157c0.826-1.089,1.674-2.161,2.5-3.25c0.445-0.587,0.551-1.166,0.444-1.686
	c1.16-0.951,2.272-1.961,3.09-3.315c0.169-0.177,0.342-0.353,0.509-0.532C403.778,383.477,406.133,379.362,403.262,378.092z
	 M301.484,257.989c-0.466,0.123-0.935,0.229-1.407,0.305c-0.021-0.078-0.043-0.16-0.07-0.255c-0.019-0.067-0.049-0.124-0.072-0.187
	C300.43,257.93,300.942,257.981,301.484,257.989z M277.667,270.5c-0.644,0.017-1.229,0.125-1.756,0.304
	c0.917-2.214,1.897-4.404,2.937-6.569c1.511-1.045,3.008-2.138,4.691-2.824c0.453-0.185,0.845-0.456,1.157-0.786h1.429
	c0.554,0,1.064-0.194,1.483-0.509c0.999,0.064,2.022,0.026,3.05-0.14c1.02-0.165,1.959-0.449,2.829-0.826
	c-0.05,0.192-0.071,0.381-0.067,0.564c-0.542,0.399-0.92,1.031-0.92,1.911v6.58C287.471,268.501,282.714,270.371,277.667,270.5z
	 M304.667,334.333c0.025,0.548,0.02,1.086,0.002,1.626c-0.021-0.575-0.365,1.924-0.481,2.371c-0.117,0.448-0.262,0.888-0.407,1.327
	c-0.851-0.215-1.771-0.337-2.78-0.325c-1.42,0.018-2.864,0.099-4.319,0.194c-0.154-0.158-0.328-0.307-0.544-0.436
	c-3.587-2.137-6.993-5.546-10.462-7.865c-3.822-2.554-2.312-5.906-3.014-9.891c-0.028-0.161-0.083-0.3-0.139-0.439
	c0.143-0.202,0.274-0.412,0.387-0.635c0.389-0.771,1.415-1.649,1.071-2.373c0.219-0.706-0.572-1.415-0.373-2.121
	c1.594-5.652,2.917-11.887,3.061-17.768c0.032-1.327,0.829-2.5,0.476-3.553c2.181-4.435,2.63-9.305,3.828-13.985
	c0.101-0.395,0.157-0.774,0.18-1.142c1.054-0.119,2.113-0.181,3.183-0.153c1.219,0.032,2.213-0.28,3.011-0.796
	c0.011,0,0.02,0.004,0.03,0.004c1.352,0.059,2.566,0.612,3.826,1.008c0.086,3.166,0.429,6.41,1.833,9.182
	c-0.049,0.471-0.072,0.948-0.034,1.436c0.396,5.045,0.834,10.366,1.54,15.718c-0.279,2.92-0.345,5.839-0.165,8.782
	c0.06,0.973,1.223,1.207,1.747,0.702c0.77,3.709,1.732,7.365,2.97,10.882C306.387,327.899,304.515,330.941,304.667,334.333z
	 M315.686,270.612c-1.58,0.559-3.358,1.01-5.088,1.238c-1.38-1.303-3.454-1.743-5.308-1.336c-0.268-0.209-0.541-0.414-0.82-0.614
	c-0.679-0.486-1.926-1.213-2.316-1.532c-0.063-0.052-0.122-0.119-0.177-0.192c0.018-0.048,0.042-0.086,0.059-0.136
	c0.464-1.454,0.847-3.416,0.479-5.051c1.536-0.367,3.059-0.863,4.661-0.872c3.486-0.019,6.265,1.96,9.563,2.5
	c0.939,1.519,1.825,3.052,2.101,4.798c0.002,0.014,0.01,0.026,0.012,0.04C317.764,269.654,316.718,270.247,315.686,270.612z
	 M378.828,402.772c0.391-0.286,0.744-0.626,1.059-1.005C380.476,402.457,379.618,402.695,378.828,402.772z"/>
<path fill="#EF9EAC" d="M294.875,301.625c0.01-1.29-1.99-1.289-2,0c-0.032,4.023,1.057,7.899,1.5,11.875
	c0.141,1.267,2.143,1.281,2,0C295.933,309.53,294.843,305.639,294.875,301.625z"/>
<path opacity="0.7" fill="#020102" d="M332.335,442.964c-1.876,0.292-3.668,1.963-5.068,0.269c-0.408-0.494-0.996-0.716-1.606-0.727
	c-0.606-1.994-0.842-3.549,0.497-5.932c0.858-1.528,1.308-2.929,1.539-4.617c1.871-1.333,3.133-3.01,1.464-5.081
	c-0.844-1.048-3.075-3.52-4.274-4.034c-2.497-1.072-5.612-0.046-7.875-1.375c-1.103-0.648-2.157-0.355-2.864,0.328
	c-0.234-1.018-1.324-1.799-2.348-1.792c-1.25-2.392-3.772-3.976-6.55-3.753c-1.788,0.144-2.744,1.735-2.368,3.153
	c-0.296,0.743-0.298,1.557-0.21,2.442c-1.28-0.073-2.621,0.724-2.672,2.404c-0.059,1.925,0.417,5.888-1.875,5.875
	c-0.907-0.005-1.549,0.393-1.945,0.959c-0.299-0.021-0.622,0.015-0.969,0.13c-1.604,0.53-3.158,1.188-4.75,1.75
	c-1.826,0.646-2.742,3.59-0.597,4.569c0.23,0.105,0.46,0.187,0.69,0.275c-0.046,0.304-0.044,0.629,0.036,0.981
	c0.129,0.568,0.189,1.145,0.215,1.727c-0.344,1.607-0.109,3.33-0.06,4.957c-1.174-0.147-2.301-0.149-3.333,0.048
	c-0.319-0.186-0.599-0.351-0.774-0.43c-1.223-0.557-2.313-0.225-2.989,0.482c-1.222-2.063-4.991-1.738-4.647,1.051
	c0.456,3.701,0.728,7.398,0.875,11.125c0.008,0.192,0.044,0.383,0.099,0.569c-0.015,0.033-0.022,0.074-0.036,0.108
	c-1.027,0.027-2.004,0.585-2.224,1.782c-0.653,3.571-1.932,6.917-3,10.375c-0.873,2.825-2.358,5.245-2.333,8.249
	c-0.006,0.004-0.013,0.004-0.019,0.008c-3.03,1.808-6.557,4.978-9.778,6.247c-1.244,0.491-2.168,1.666-1.746,3.076
	c0.785,2.621,3.144,6.76,5.877,8.682c-2.041,6.44-2.127,13.149-2.041,19.856c-0.958,0.681-1.571,1.95-0.959,3.309
	c0.289,0.642,0.637,1.363,1.03,2.106c0.001,0.127,0.002,0.255,0.003,0.382c0.006,1.035,0.72,1.857,1.601,2.252
	c0.742,1.047,1.586,1.997,2.525,2.704c0.049,0.184,0.119,0.368,0.215,0.556c0.411,0.795,0.839,1.58,1.25,2.375
	c1.007,1.948,4.036,1.427,4.569-0.597c0.285-1.081,0.583-2.144,0.75-3.25c0.132-0.869-0.108-1.673-0.573-2.254
	c2.917-8.395,4.4-17.352,6.438-25.98c2.11-8.936,3.841-17.958,6.498-26.756c1.146-3.798,1.925-7.626,2.872-11.468
	c0.903-3.667,2.668-6.438,2.48-10.326c0.454-0.502,0.631-1.169,0.581-1.818c0.988-0.315,1.821-1.125,1.794-2.313
	c-0.04-1.741-0.324-3.47,0.264-5.144c0.375-1.066,0.816-2.041,0.962-3.107c0.084,0.97,0.655,1.881,1.717,2.158
	c0.067,0.146,0.131,0.292,0.213,0.442c0.585,1.068,3.712,2.413,3.718,1.9c-0.025,2.49,2.941,3.048,4.313,1.693
	c0.991,1.195,3.038,1.201,4.095-0.307c1.577-2.246,5.842-3.336,5.065-6.806c-0.493-2.201-1.316-3.969-1.437-6.295
	c0.176,0.234,0.354,0.446,0.535,0.635c2.088,3.798,1.608,7.732,2.989,11.929c0.067,0.204,0.117,0.408,0.18,0.612
	c-0.026,1.21-0.01,2.367,0.009,3.413c0.019,1.026,0.532,1.724,1.22,2.096c0.483,3.081,0.744,6.183,1.284,9.345
	c0.881,5.158,2.475,10.178,3.095,15.391c0.18,1.508,0.033,3.096,0.073,4.613c0.014,0.501,0.578,3.946,0.578,2.806
	c0,3.225,4.977,3.224,5,0c0.047-6.526,0.587-12.907,2.064-19.277c1.118-4.823,0.91-10.821,3.47-15.086
	C336.394,444.58,334.376,442.646,332.335,442.964z"/>
<path opacity="0.7" fill="#020102" d="M340.125,526.5c-0.026-0.534-0.194-0.972-0.442-1.329c0.149-1.385,0.329-2.769,0.29-4.175
	c-0.065-2.362-0.683-4.713-1.062-7.036c-0.25-1.53-1.498-2.001-2.667-1.733c-0.256-1.608-0.538-3.215-0.851-4.819
	c-1.439-7.362-4.744-14.216-5.982-21.572c-0.005-0.03-0.017-0.053-0.022-0.082c-0.145-1.114-0.937-2.128-2.388-2.128
	c-1.678,0-2.475,1.354-2.406,2.653c-0.045,0.277-0.058,0.57-0.004,0.887c1.138,6.76,4.126,13.099,5.615,19.812
	c1.643,7.413,2.474,14.935,2.546,22.523c0.027,2.839,3.906,3.176,4.81,1.012c0.427-0.094,0.845-0.292,1.208-0.619
	C339.813,528.951,340.192,527.896,340.125,526.5z"/>
<path opacity="0.3" fill="#020102" d="M318.586,517.852c0.287-0.705,0.563-1.413,0.829-2.126c0.679-1.772,0.508-3.57,0.246-5.391
	c-0.031-0.215-0.102-0.403-0.187-0.579c0.02-0.112,0.043-0.231,0.062-0.341c0.235-1.353-0.341-2.675-1.746-3.076
	c-4.279-1.223-8.589-0.006-12.915,0.286c-4.159,0.28-7.942,2.816-9.659,6.613c-0.309,0.683-0.3,1.341-0.102,1.917
	c-0.819,1.106-1.675,2.188-2.632,3.202c-1.341,1.422-0.543,4.554,1.768,4.268c2.9-0.358,5.711-0.852,8.457-1.539
	c0.371,0.26,0.84,0.42,1.418,0.414c0.259-0.003,0.515-0.014,0.77-0.025c0.401,0.572,1.066,0.984,1.98,1.025
	c3.167,0.144,6.329,0.337,9.5,0.375c2.257,0.027,3.077-2.547,1.898-4.073C318.422,518.726,318.527,518.412,318.586,517.852z"/>
<path opacity="0.3" fill="#020102" d="M281.126,520.029c0.143-1.291,0.13-2.597,0.124-3.904c-0.006-1.362-1.133-2.5-2.5-2.5
	c-1.449,0-2.387,1.143-2.5,2.5c-0.101,1.207-0.118,2.415-0.121,3.626c-0.044,0.279-0.087,0.558-0.165,0.834
	c-0.87,3.111,3.955,4.431,4.821,1.33c0.09-0.322,0.143-0.648,0.202-0.974c0.081-0.246,0.137-0.513,0.137-0.816
	C281.125,520.093,281.126,520.062,281.126,520.029z"/>
<path opacity="0.3" fill="#020102" d="M330.5,511.125c-0.008-0.707-0.756-1.081-1.33-0.952c0.042-1.14,0.072-2.28,0.08-3.423
	c0.008-1.29-1.992-1.289-2,0c-0.027,4.124-0.771,8.301-0.598,12.409c0.103,2.44,1.658,3.863,3.958,4.305
	c0.486,0.094,1.141-0.13,1.23-0.698C332.446,518.908,330.546,515.053,330.5,511.125z"/>
<path opacity="0.9" fill="#B5307C" d="M322.859,472.608c-2.397-9.81-2.894-19.992-4.734-29.914c-0.461-2.486-4.224-3.498-5.85-1.544
	c-1.402,1.685-2.958,3.15-5.275,3.225c-0.868,0.027-4.304-0.667-4.625-1.556c-1.52-4.212-8.286-2.396-6.75,1.861
	c0.133,0.369,0.283,0.721,0.446,1.056c-0.846,0.552-1.48,1.468-1.571,2.764c-0.242,3.451-2.47,6.341-2.875,9.75
	c-0.23,1.94-0.145,3.921-0.53,5.842c-0.373,1.861-1.842,3.755-2.654,5.461c-1.101,2.316-0.592,5.438-1.242,8.153
	c-1.214,5.079-3.082,10.038-3.2,14.794c-0.041,1.631,1.226,2.891,2.682,3.34c0.832,1.106,1.702,2.096,3.083,3.089
	c3.449,2.48,6.697,5.108,10.094,7.594c1.556,1.138,3.882,0.251,4.789-1.256c1.669-2.772,3.069-5.53,4.019-8.63
	c0.258-0.841,0.399-1.718,0.48-2.611c2.815,1.315,5.295,5.322,8.631,5.322c2.774,0,5.424-2.232,6.793-4.53
	C328.591,488.069,324.548,479.521,322.859,472.608z M310.025,453.1c0.424,0.448,0.341,1.641,0.104,2.729
	c-0.425,0.383-0.781,0.873-1.005,1.49c-0.026,0.044-0.053,0.088-0.079,0.132c0.063-2.184,0.003-4.356-0.501-6.531
	c0.155-0.029,0.312-0.053,0.466-0.087C309.042,451.587,309.336,452.372,310.025,453.1z"/>
<path opacity="0.9" fill="#B5307C" d="M305.616,412.306c-0.163-2.395-2.458-4.563-4.861-2.917c-3.32-2.24-7.485-3.271-11.45-2.518
	c-0.761,0.145-1.414,0.432-1.987,0.811c-0.184-0.027-0.366-0.057-0.568-0.057c-3.396,0-4.235,3.961-2.521,5.924
	c-0.176,1.361-0.146,2.733,0.026,3.913c0.282,1.934,1.106,3.994,2.4,5.547c-1.053,2.073-0.069,5.241,2.97,5.241
	c2.009,0,3.119-1.388,3.339-2.927c3.758-0.813,6.079-4.419,8.64-7.347c0.46,0.244,1.002,0.398,1.646,0.398
	C306.738,418.375,307.519,414.205,305.616,412.306z"/>
<path opacity="0.9" fill="#B5307C" d="M324.625,408.25c0.219-2.677-3.214-4.242-5.292-3.127c-2.63-0.651-5.316,0.146-7.498,1.932
	c-1.438,1.177-2.466,2.833-2.765,4.588c-0.75,0.484-1.345,1.23-1.571,2.052c-0.542,1.969,0.662,3.632,2.444,4.306
	c-0.764-0.289,0.327,0.24,0.39,0.279c0.379,0.232,0.743,0.492,1.109,0.743c0.805,0.552,1.611,1.087,2.468,1.555
	c2.021,1.102,4.568,1.654,6.696,0.508c2.197-1.184,3.047-3.393,3.338-5.745c0.125-1.014,0.147-2.025,0.158-3.046
	c0.005-0.45,0.016-0.9,0.031-1.351C324.369,410.06,324.547,409.2,324.625,408.25z"/>
<path opacity="0.7" fill="#020102" d="M365.125,433c-0.066,0-0.122,0.015-0.185,0.019c-0.263-0.222-0.568-0.405-0.917-0.535
	c-0.456-0.8-1.233-1.407-2.33-1.565c-0.322-1.007-1.067-1.854-2.225-2.161c-0.371-0.729-0.994-1.32-1.869-1.593
	c-0.214-1.026-0.993-1.914-2.351-1.914c-2.322,0-2.962,2.586-1.94,4.037c-0.332,1.035-0.224,2.229,0.329,3.158
	c-0.089,1.806,1.022,3.68,3.362,3.68c0.099,0,0.183-0.021,0.277-0.027c-0.175,1.741,0.78,3.604,2.876,3.855
	c-0.2,1.879,0.906,3.922,3.347,3.922c3.143,0,4.091-3.389,2.858-5.45c0.073-0.266,0.108-0.541,0.125-0.817
	C368.249,436.437,367.801,433,365.125,433z"/>
<path fill="#2C0BB7" d="M326.512,391.842c-0.068-0.031,0.104-1.94,0.113-2.217c0.079-2.456-3.498-3.456-4.659-1.262
	c-1.451,2.742-6.108,3.791-8.666,5.214c-3.264,1.814-5.268,4.522-4.711,8.338c0.331,2.267,3.554,2.267,4.569,0.597
	c1.09-1.794,3.192-3.358,5.341-3.512c1.075-0.076,1.782-0.696,2.137-1.473c0.435,0.043,0.898-0.018,1.375-0.244
	c1.197-0.568,2.629-0.559,3.903-0.872C327.876,395.927,328.535,392.742,326.512,391.842z"/>
<path fill="#2C0BB7" d="M292.915,395.964c-2.784-0.757-5.215-2.312-7.931-3.12c-2.236-0.665-3.747,1.424-4.768,3.02
	c-1.581,2.47,1.901,4.909,3.926,3.029c0.472-0.438,5.502,2.123,6.443,2.269c0.589,0.091,1.115-0.004,1.561-0.221
	c0.771,0.234,1.541,0.47,2.311,0.709c0.654,0.2,1.322,0.328,2.004,0.387c0.222,0.029,0.443,0.06,0.665,0.089
	c0.004,0.001,0.007,0.001,0.012,0.002c0.114,3.092,4.966,3.051,4.988-0.127C302.162,396.75,296.884,397.044,292.915,395.964z"/>
<path fill="#2C0BB7" d="M366.949,448.901c-1.524-4.454-6.541-12.292-11.534-13.313c-0.045-0.01-0.088-0.004-0.133-0.011l0.004-0.038
	c0.431-3.152-4.387-4.512-4.821-1.33c-0.233,1.704-1.351,8.731-1.532,15.211c-0.091-0.187-0.166-0.371-0.273-0.558
	c-1.385-2.393-4.588-3.253-6.28-5.472c-1.04-1.363-2.183-1.849-3.291-1.779c0.142-0.579,0.074-1.2-0.305-1.749
	c-1.054-1.528-2.449-2.111-3.989-2.229c-0.861-0.441-1.731-0.955-2.459-1.492c-0.017-0.103-0.027-0.2-0.05-0.307
	c-0.201-0.917-1.069-1.622-2.005-1.81c-1.843-1.642-5.131,0.46-3.929,2.877c-0.39,0.68-0.67,1.412-0.799,2.145
	c-1.35,1.36-0.79,4.328,1.698,4.328c0.406,0,0.76-0.08,1.064-0.219c0.967,0.123,2.021-0.02,2.908-0.152
	c0.766-0.114,1.523-0.278,2.286-0.409c0.018-0.003,0.042-0.003,0.062-0.005c0.763,0.345,1.513,0.642,2.22,0.886
	c-0.735,0.823-1.333,1.823-1.695,2.825c-0.76,2.103-1.103,4.319-0.77,6.343c-1.225,1.401-0.626,4.231,1.8,4.231
	c0.112,0,0.21-0.02,0.314-0.031c0.302,0.303,0.628,0.593,1,0.859c2.426,1.74,5.041,2.245,7.292,4.415
	c1.645,1.586,3.491,3.469,5.855,3.793c0.274,0.037,0.55,0.029,0.821-0.019c1.113,1.291,3.149,2.107,4.332,2.891
	c0.291,0.192,0.577,0.302,0.857,0.363c1.018,1.685,4.003,1.501,4.556-0.558c1.802-2.667,3.209-3.744,3.884-7.174
	C364.787,457.597,368.336,452.954,366.949,448.901z"/>
<path fill="#2C0BB7" d="M298.33,423.243c-0.678,1.314-1.438,2.229-1.824,3.35c-0.375-0.169-0.764-0.314-1.275-0.255
	c-1.079,0.125-1.913,0.862-2.671,1.583c-2.565,2.436-4.903,5.119-7.495,7.519c-0.162,0.15-0.272,0.311-0.349,0.476
	c-0.173,0.113-0.336,0.256-0.483,0.442c-0.784,0.993-1.331,1.849-2.369,2.359c-0.299,0.147-0.542,0.369-0.734,0.633
	c-1.504,1.383-3,2.775-4.564,4.09c-0.24,0.201-0.374,0.479-0.419,0.777c-0.34,0.113-0.66,0.274-0.913,0.516
	c-4.622,4.391-9.014,8.946-14,12.875c-0.141,0.125-0.257,0.254-0.36,0.385c-0.175,0.055-0.347,0.126-0.509,0.225
	c-1.746,1.055-3.145,2.52-4.506,4.016c-0.342,0.376-0.567,0.824-0.664,1.291c-0.509,0.297-1.031,0.575-1.581,0.818
	c-2.292,1.016-1.25,3.843,0.701,4.437c0.059,0.216,0.141,0.424,0.277,0.608c3.451,4.67,13.679,11.039,18.926,5.881
	c2.023-1.988,3.109-6.802,2.857-9.518c-0.196-2.117-2.027-3.729-4.136-4.828c1.042-0.998,1.645-1.737,2.545-2.91
	c0.16-0.209,0.267-0.419,0.341-0.629c0.256-0.159,0.534-0.314,0.873-0.465c1.153-0.512,1.905-1.771,2.516-2.796
	c1.428-2.397,1.313-5.652,0.897-8.287c-0.042-0.263-0.13-0.49-0.247-0.694c0.409-0.35,0.812-0.706,1.213-1.064
	c0.35-0.224,0.722-0.366,1.123-0.326c0.125,0.013,0.245-0.003,0.362-0.029c0.365,0.251,0.826,0.404,1.388,0.404h2.25
	c0.205,0,0.396-0.021,0.575-0.058c0.794,0.617,1.791,0.959,2.8,1.058c1.359,0.133,2.5-1.238,2.5-2.5c0-0.75-0.303-1.35-0.778-1.777
	c0.014-1.029-0.26-1.97-1.071-2.754c-0.288-0.278-0.626-0.487-0.988-0.628c-0.115-0.206-0.232-0.411-0.379-0.603
	c-0.036-0.047-0.083-0.088-0.123-0.133c1.686-1.717,3.155-3.604,5.078-5.1c0.376-0.293,2.079-2.512,2.532-2.246
	c0.7,0.411,1.297,0.566,2.105,0.615c1.078,0.065,1.567-1.001,1.446-1.898c-0.149-1.111,1.248-2.421,1.724-3.345
	C301.805,423.041,299.216,421.522,298.33,423.243z"/>
<path fill="#2C0BB7" d="M337.658,495.992c-0.024-0.414-0.253-0.805-0.776-1.037c-1.319-0.586-3.531-1.657-3.811-3.229
	c-0.482-1.902-3.226-1.076-2.893,0.797c0.746,2.941,1.615,7.082,4.011,9.162c0.75,0.651,2.331,0.551,2.507-0.662
	c0.151-1.04,0.552-1.652,1.436-2.229C339.383,497.979,338.759,496.24,337.658,495.992z"/>
<path fill="#2C0BB7" d="M327.809,500.221c0.137-0.825,0.045-1.811-0.363-2.994c-0.119-0.347-0.375-0.642-0.685-0.844
	c0.511-1.252-0.735-2.916-2.018-1.928c-1.062,0.817-1.766,1.688-2.519,2.797c-0.942,1.388-2.292,2.35-3.483,3.494
	c-1.588-0.796-4.487-1.694-5.881-3.003c-0.035-0.347-0.179-0.684-0.425-0.929c-0.208-0.208-0.417-0.417-0.625-0.625
	c-0.986-0.986-3.109,0.009-2.507,1.459c0.048,0.116,0.108,0.224,0.163,0.335c-1.466,2.063-3.231,3.894-4.637,6.01
	c-0.651,0.98,0.217,2.232,1.295,2.257c3.37,0.075,7.953,0.568,11.418-0.545c0.219,0.053,0.462,0.06,0.73-0.009
	c0.626-0.158,1.245-0.315,1.857-0.486c0.082,0.012,0.153,0.039,0.244,0.04c1.992,0.017,3.507-1.315,5.399-1.679
	c0.42-0.081,0.701-0.288,0.874-0.554c0.118-0.005,0.232-0.016,0.353-0.018C328.607,502.979,328.875,500.906,327.809,500.221z"/>
<path opacity="0.7" fill="#042735" d="M297.75,504.5c-0.233,0-0.444,0.032-0.643,0.081c-1.981-3.11-6.085-5.554-8.595-7.489
	c-0.539-0.416-1.072-0.538-1.559-0.473c-0.489-2.571-4.812-2.353-4.953,0.631c-0.203,4.281-1.206,8.037-1.662,11.837
	c-2.271,0.571-2.329,4.037-0.182,4.768c0.096,1.643,0.375,3.331,0.958,5.112c1.28,3.916,2.79,7.697,3.694,11.73
	c1.031,4.597,1.142,9.61,1.505,14.3c0.36,4.658,0.625,9.364,0.413,14.03c-3.137,3.728-2.278,11.522-2.725,15.723
	c-0.169,1.584,0.969,2.374,2.203,2.388c0.489,0.595,1.14,1.104,2.008,1.484c7.307,3.198,5.188-11.815,4.738-15.034
	c-0.126-0.902-0.515-2.651-1.222-4.052c0.36-9.321-0.383-18.926-1.787-28.136c0.814-0.402,1.476-1.162,1.559-2.15
	c0.349-4.164,0.596-8.255,1.814-12.279c0.887-2.926,4.144-4.719,4.786-7.506C300.961,509.108,300.85,504.5,297.75,504.5z"/>
<path opacity="0.7" fill="#042735" d="M325.25,503.5c-0.114,0-0.216,0.02-0.322,0.032c-0.136-0.021-0.278-0.032-0.428-0.032
	c-1.176,0-1.918,0.668-2.236,1.513c-0.073,0.064-0.145,0.13-0.208,0.208c-1.486-0.411-3.243,0.337-3.055,2.279
	c0.46,4.76,0.749,9.578,0.089,14.335c-0.663,4.779-0.171,9.326,0.119,14.116c0.595,9.829,0.339,21.241-3.867,30.287
	c-0.795,1.71,0.144,3.706,2.159,3.762c2.873,0.079,5.16-0.587,6.705-2.415c0.97-0.36,1.792-1.232,1.795-2.335
	c0.028-9.227,0.414-18.446,0.494-27.672c0.085-9.758-1.419-19.587-0.158-29.31C328.418,507.289,328.058,503.5,325.25,503.5z"/>
<path opacity="0.9" fill="#020102" d="M296.338,581.063c0.012-0.333-0.008-0.634-0.049-0.914c1.844-1.127,1.421-4.648-1.289-4.648
	c-1.368,0-2.149,0.901-2.356,1.938c-1.91-0.08-4.273,0.479-6.388,1.171c0.695-1.651-0.623-4.095-2.92-3.52
	c-4.663,1.168-8.419,4.109-12.242,6.892c-3.468,2.525-7.03,4.032-10.973,5.616c-2.716,1.092-6.979,3.571-9.269,6.728
	c-0.319-0.055-0.659-0.059-1.017,0.015c-1.469,0.3-2.81,1.027-3.714,2.05c-1.125,0.147-2.216,0.93-2.369,2.35
	c-0.468-0.138-0.966-0.223-1.502-0.238c-1.363-0.039-2.5,1.167-2.5,2.5c0,1.393,1.138,2.461,2.5,2.5
	c0.029,0.002,0.039,0.002,0.061,0.002c0.042,0.011,0.083,0.018,0.125,0.029c0.013,0.005,0.016,0.005,0.028,0.009
	c0.047,0.025,0.095,0.048,0.141,0.075c0.053,0.031,0.104,0.067,0.155,0.102c0.008,0.007,0.01,0.009,0.02,0.017
	c0.123,0.108,0.735,0.825,0.313,0.278c0.792,1.027,2.012,1.584,3.241,0.979c3.455,2.407,9.529,2.275,13.417,2.26
	c1.759-0.008,2.551-1.49,2.391-2.84c2.793-1.155,5.498-2.891,7.649-4.2c3.843-2.339,8.119-4.021,11.612-6.917
	c1.513-1.254,2.763-2.573,3.884-4.181c1.831-2.625,3.086-6.247,6.952-4.204c0.543,0.287,1.13,0.371,1.677,0.281
	c0.403,0.483,1.013,0.811,1.834,0.811C298.765,586,298.959,581.633,296.338,581.063z"/>
<path opacity="0.9" fill="#020102" d="M377.415,578.089c-2.238-0.353-4.4-0.379-6.644-0.348c-0.403-0.444-0.99-0.741-1.771-0.741
	c-0.846,0-1.464,0.349-1.867,0.856c-0.888-0.261-1.73-0.505-2.468-0.647c-3.392-0.654-7.012-0.546-10.566-0.52
	c-0.216-1.028-0.994-1.924-2.35-1.939c-2.394-0.027-4.773-0.175-7.134-0.433c-0.185-0.738-0.727-1.404-1.702-1.729
	c-2.002-0.665-4.022-1.087-6.062-1.364c-2.403-1.208-4.707-2.871-7.39-3.33c-0.767-1.218-2.834-1.333-3.98-0.412
	c-1.991,1.6-4.807,1.711-7.232,1.768c-0.687,0.016-1.272,0.295-1.703,0.718c-1.407-0.874-3.88-0.192-4.047,2.032
	c-0.125,0.833-0.125,1.667,0,2.5c0.119,1.589,1.509,2.884,3.165,2.411c1.449-0.414,2.594-0.942,3.788-1.711
	c0.089,0.075,0.184,0.146,0.286,0.208c2.726,1.664,5.729,2.803,8.864,3.623c0.195,0.331,0.477,0.635,0.886,0.877
	c2.113,1.25,4.385,1.888,6.706,2.365c0.047,0.964,0.543,1.93,1.641,2.388c1.271,0.53,2.555,1.075,3.851,1.613
	c0.4,0.674,1.1,1.182,2.064,1.226c0.371,0.017,0.753,0.042,1.134,0.064c7.753,3.021,15.854,5.164,23.934,1.865
	c2.257-0.922,5.06-2.333,6.592-4.464c0.112,0.014,0.219,0.034,0.34,0.034c1.593,0,2.396-1.22,2.415-2.455
	C379.679,581.418,379.604,578.436,377.415,578.089z"/>
<path fill="#EF9EAC" d="M305.499,396.382c-1.392-0.21-2.887,0.574-2.749,2.368c0.168,2.176-0.643,4.614-0.161,6.775
	c-1.993,1.038-1.611,4.725,1.161,4.725c1.318,0,2.088-0.839,2.329-1.827c0.229-0.055,0.458-0.133,0.683-0.265
	c0.695-0.406,1.182-1.22,1.249-2.044c0.71-0.368,1.239-1.068,1.239-2.114v-5.5C309.25,396.325,306.979,395.623,305.499,396.382z"/>
<path fill="#C49239" d="M699.179,507.741c-0.279-1.142-0.961-2.336-1.567-3.524c0.419-1.218,0.668-2.538,0.833-3.863
	c0.843-6.749-0.815-13.693-1.697-20.538c-0.044-8.278-0.509-16.544-0.862-24.812c0.525-0.979,0.847-2.142,0.865-3.504
	c0.075-5.509,0.645-11.279-1.518-16.494c-0.159-0.384-0.346-0.742-0.547-1.084c0.307-3.212,0.527-6.433,0.564-9.672
	c0.022-1.962-0.582-3.518-1.552-4.684c0.174-1.714,0.351-3.426,0.784-5.072c0.63-2.392,0.151-4.429-0.945-5.984
	c0.082-4.336,0.195-8.672,0.213-13.01c0.025-6.44-6.533-8.727-11.054-6.354c-1.106-0.638-2.369-1.048-3.696-1.146
	c-10.889-0.805-21.565,2.034-32.443,1.992c-10.911-0.042-22.113-2.287-32.877,0.131c-1.842-0.534-3.957-0.406-5.805,0.392
	c-1.048-0.635-2.338-1.015-3.875-1.015c-10.114,0.047-20.21,0.712-30.311,1.211c-0.67,0-1.34,0.029-2.011,0.096
	c-3.111,0.146-6.224,0.274-9.337,0.355c-2.896,0.075-5.663,0.337-8.273,1.049c-5.294-0.559-10.667-0.021-15.941,0.565
	c-12.653,1.41-24.84,1.151-37.521,1.122c-4.484-0.01-8.148,2.438-10.178,6.374c-2.313,4.485-5.455,8.856-7.117,13.652
	c-0.204,0.386-0.371,0.796-0.521,1.216c-0.757,0.57-1.444,1.332-2.017,2.324c-3.104,5.389-6.673,10.559-8.643,16.46
	c-0.83,1.061-1.592,2.104-2.217,3.127c-5.267,8.618-9.428,17.593-15.64,25.663c-1.511,1.963-1.584,4.038-0.834,5.87
	c-1.431,2.006-1.795,4.747-1.079,7.123c-0.582,1.067-1.042,2.278-1.315,3.703c-0.759,3.944,0.166,7.998,0.239,11.971
	c0.107,5.81,1.063,11.543,0.965,17.368c-0.01,0.618,0.043,1.196,0.148,1.735c-0.25,0.75-0.393,1.587-0.398,2.515
	c-0.043,6.92-0.458,13.83-0.5,20.75c-0.01,1.629,0.414,2.978,1.115,4.058c-0.021,0.176-0.036,0.351-0.058,0.526
	c-1.014,7.92-1.417,15.949-0.807,23.916c0.421,5.502,6.096,9.563,11.285,6.476c1.847-1.098,6.956,0.214,9.215,0.274
	c2.631,0.07,4.624-1.224,5.873-3.065c2.386-0.499,4.57-2.06,5.609-4.94c1.43-3.968,1.224-8.151,1.047-12.296
	c-0.234-5.484,0.618-10.957,0.471-16.448c-0.067-2.516-1.095-4.397-2.586-5.618c0.195-0.332,0.361-0.682,0.504-1.041l0.001-0.001
	c0.001-0.004,0.003-0.008,0.005-0.013c0.148-0.375,0.27-0.761,0.359-1.156c0-0.001,0-0.001,0-0.001c0-0.001,0-0.001,0.001-0.002
	c0.179-0.778,0.245-1.585,0.202-2.386c-0.001-0.004-0.001-0.009-0.001-0.013v-0.001c-0.022-0.396-0.071-0.79-0.147-1.179
	c-0.001-0.001-0.001-0.002-0.001-0.003c-0.001-0.002-0.001-0.003-0.001-0.005c-0.232-1.181-0.717-2.299-1.451-3.238
	c0.331-9.627,1.057-19.276,0.615-28.844c-0.111-2.4-1.127-4.205-2.581-5.412c1.628,0.003,3.257,0.013,4.882,0.025
	c2.459,0.02,4.892,0.004,7.313-0.048c-0.233,0.729-0.363,1.54-0.363,2.435c0,12.504-0.294,25-0.361,37.5
	c-0.029,5.479-0.664,11.771,0.816,17.098c1.442,5.196,7.365,7.798,12.113,5.234c8.268-4.462,8.527-16.627,8.432-24.582
	c-0.069-5.751,1.382-11.486,1.5-17.25c0.146-7.159-0.229-14.339-0.25-21.5c0-0.104-0.012-0.198-0.016-0.3
	c27.284-0.352,54.502-2.853,81.822-2.941c0.478,0.001,0.958-0.002,1.443-0.009c0.319-0.005,0.619-0.039,0.917-0.075
	c1.122,0.819,2.563,1.325,4.333,1.325c2.214,0,3.914-0.791,5.115-2.002c3.067,0.266,6.123,0.521,9.113,0.475
	c4.622-0.071,9.155-0.607,13.743,0.205c1.051,0.186,2.105,0.366,3.163,0.524c0.308,9.09,1.102,18.153,1.743,27.228
	c0.812,11.49,0.169,22.891-1.128,34.32l0.123-0.017c0.008,0.659,0.049,1.329,0.145,2.011c0.218,1.553,1.197,2.876,2.486,3.838
	c-2.372,4.904,0.508,10.281,6.496,10.918c3.304,0.352,8.379,0.183,11.695-1.78c1.548,0.18,3.303,0.049,5.299-0.487
	c4.524-1.216,7.599-4.943,9.435-9.203c0.214-0.406,0.39-0.845,0.522-1.317c0.729-2.001,1.207-4.069,1.438-6.019
	c1.008-8.52-1.263-17.395-1.389-25.943c-0.018-1.178-0.24-2.199-0.605-3.085c-0.324-8.969-0.623-17.938-0.645-26.915
	c-0.007-2.658-1.147-4.581-2.794-5.778c0.274-2.059,0.628-4.071,1.026-5.978c0.443-2.123-0.077-4.292-1.19-6.038
	c2.747-4.291,5.053-9.019,7.76-13.195c0.151-0.233,0.299-0.466,0.447-0.699c-0.414,11.196,0.991,22.362,1.303,33.547
	c0.313,11.254,1.688,22.42,2.448,33.642c0.287,4.232,3.201,7.294,7.5,7.5c6.179,0.296,10.229-4.969,12.346-10.142
	C699.396,513.289,699.852,510.49,699.179,507.741z M517.268,434.506c-0.049,0.203-0.08,0.4-0.113,0.599
	c-1.262,1.903-2.381,3.911-3.38,5.86c-0.912,1.777-1.515,3.694-2.239,5.558c-0.18-0.087-0.355-0.184-0.541-0.255
	c-1.264-0.481-2.559-0.775-3.86-1.044c-1.051-0.688-2.344-1.137-3.884-1.224c-0.395-0.022-0.789-0.06-1.183-0.105
	c-1.157-0.631-2.427-0.994-3.753-1.195c-1.198-1.183-2.883-1.949-5.064-1.949c-1.071,0-2.017,0.192-2.851,0.52
	c-0.193-0.02-0.386-0.051-0.581-0.063c-0.361-0.321-0.309-0.468-0.318-0.207c0.072-1.868-0.384-3.354-1.172-4.484
	c2.161-2.981,4.248-5.896,5.881-9.1c2.812-0.079,5.386-1.723,6.023-5.422c1.057-6.135,4.135-5.406,9.561-4.943
	c2.798,0.239,5.264,1.364,7.945,2.047c0.584,0.148,1.157,0.215,1.726,0.248c-0.776,2.591-0.813,5.153-0.196,7.898
	c0.104,0.459,0.244,0.889,0.416,1.288C519.07,430.49,517.728,432.593,517.268,434.506z M556.134,461.787
	c1.869-0.243,3.729-0.473,5.553-0.534c0.429,0.105,0.866,0.19,1.313,0.247c0.433,0.055,0.864,0.099,1.296,0.145
	C561.604,461.894,558.865,461.865,556.134,461.787z M603.277,431.906c-3.826,1.668-7.251,4.933-9.831,7.79
	c-0.824,0.913-1.598,1.846-2.266,2.813c-2.759,0.051-5.473,0.422-8.167,0.915c-1.174-1.023-2.758-1.675-4.764-1.675
	c-2.049,0-3.658,0.678-4.84,1.738c-0.96-0.24-1.962-0.395-3.034-0.418c-4.475-0.1-8.294,2.417-12.625,3.2
	c-1.11-0.786-2.523-1.271-4.251-1.271c-1.882,0-3.393,0.572-4.542,1.486c-0.158-2.022-0.149-4.065-0.257-6.09
	c-0.318-6.022-0.948-12.353-1.907-18.309c-0.053-0.329-0.129-0.659-0.219-0.989c0.752-0.533,1.407-1.215,1.9-2.063
	c2.238-3.847,4.216-7.867,7.338-11.081c6.474,0.934,12.87,1.778,18.386-2.104c0.326-0.014,0.652-0.024,0.979-0.04
	c1.27,0.189,2.541,0.356,3.822,0.44c2.811,0.185,5.44,0.348,8.25,0c4.516-0.559,8.99-1.349,13.524-1.635
	c0.009,0.6,0.081,1.225,0.243,1.879c1.222,4.933,3.304,10.596,3.503,16.004c-0.786,1.111-1.271,2.524-1.271,4.252v4.5
	C603.25,431.476,603.263,431.691,603.277,431.906z"/>
<path fill="#EF2652" d="M602.759,422.49c0.873-2.127,0.562-4.574-0.584-6.533c0.298-0.554,0.478-1.172,0.45-1.832
	c-0.012-0.156-0.008-0.313-0.003-0.47c0.067-0.324,0.157-0.645,0.242-0.965c0.253-0.95,0.429-1.956,0.386-2.94
	c-0.096-2.178-1.747-4-4-4c-2.108,0-4.096,1.82-4,4c0.01,0.13,0.006,0.26,0.003,0.39c-0.069,0.319-0.159,0.636-0.242,0.952
	c-0.106,0.402-0.191,0.816-0.259,1.233c-0.335,0.044-0.668,0.103-0.996,0.192c-1.938,0.533-3.411,1.78-4.482,3.447
	c-0.321,0.5-0.684,0.971-1.031,1.453c-0.589,0.82-0.997,1.744-1.355,2.686c-2.51-0.074-4.999-0.445-7.512-0.479
	c-1.535-0.02-2.975,0.462-4.175,1.286c-3.866-0.466-8.011-0.11-11.969,0.074c-3.707,0.173-7.326-0.381-10.529,0.842
	c-0.617-0.505-1.429-0.827-2.452-0.827c-3.723,0-4.744,4.156-3.094,6.476c-1.241,3.527-0.195,7.402-0.656,11.274
	c-0.527,4.422,3.843,7.035,7.5,7.5c2.591,0.329,4.968,0.212,7.494-0.518c1.574-0.455,2.949-1.355,4.188-2.395
	c0.538,0.278,1.177,0.444,1.943,0.412c3.91-0.162,7.634-1.137,11.5-1.625c2.01-0.254,4.1-0.081,6.125-0.25
	c1.688-0.141,3.202-1.004,4.875-1.125c2.096-0.151,3.324-1.587,3.707-3.2c0.196-0.104,0.403-0.195,0.578-0.324
	c3.525-2.598,7.713-4.994,8.822-9.606C603.658,425.849,603.461,424.045,602.759,422.49z"/>
<path fill="#29ACED" d="M591.062,405.518c-4.086,1.597-8.283,2.951-12.687,3.232c-1.908,0.122-3.838-0.345-5.75-0.375
	c-1.928-0.031-3.963,0.392-5.911,0.715c-0.341-0.114-0.697-0.2-1.089-0.215c-2.817-0.107-5.578-0.483-8.313,0.393
	c-2.653,0.851-3.241,3.61-5.455,4.778c-4.022,2.123-1.243,8.644,3.082,7.312c6.377-1.965,13.645-0.854,20.25-2.375
	c3.934-0.907,8.041,0.236,11.952-1.008c2.878-0.915,4.451-3.739,7.003-5.146C598.043,410.68,595.343,403.845,591.062,405.518z"/>
<line fill="#FFFFFF" stroke="#000000" stroke-width="2" stroke-miterlimit="10" x1="501.979" y1="483.625" x2="504.334" y2="548.336"/>
<line fill="#FFFFFF" stroke="#000000" stroke-width="2" stroke-miterlimit="10" x1="693" y1="525.752" x2="685.94" y2="435"/>
<line fill="none" stroke="#000000" stroke-width="2" stroke-miterlimit="10" x1="382.625" y1="355.25" x2="374.869" y2="355.743"/>
<polygon fill="none" stroke="#000000" stroke-width="3" stroke-miterlimit="10" points="451.667,466.854 654.333,456 693,387.25 
	494.334,393.5 "/>
<path fill="none" stroke="#000000" stroke-width="3" stroke-miterlimit="10" d="M451.667,466.854"/>
<polyline fill="none" stroke="#000000" stroke-width="3" stroke-miterlimit="10" points="451.667,466.854 451.667,569.326 
	477,569.326 477,485.67 "/>
<polyline fill="none" stroke="#000000" stroke-width="3" stroke-miterlimit="10" points="477,569.326 485,560.336 483,486.971 "/>
<polyline fill="none" stroke="#000000" stroke-width="3" stroke-miterlimit="10" points="448.662,485.971 652.662,478.007 
	654.333,456 "/>
<path fill="none" stroke="#000000" stroke-width="3" stroke-miterlimit="10" d="M633.676,478.564l3.991,78.438H661l-5.333-79.297
	c11.333-12.703,40-60.986,40-60.986L693,387.25"/>
<polyline fill="none" stroke="#000000" stroke-width="3" stroke-miterlimit="10" points="667.365,461.83 672.333,542.336 
	661,557.003 "/>
<polyline fill="none" stroke="#000000" stroke-width="3" stroke-miterlimit="10" points="674.219,451.408 679.667,525.752 
	693,525.752 699.667,514.88 695.667,418.167 "/>
<polyline fill="none" stroke="#000000" stroke-width="3" stroke-miterlimit="10" points="492.324,484.083 492.324,545.398 
	504.334,548.336 513,536.217 513,483.275 "/>
<polygon fill="none" stroke="#000000" stroke-width="3" stroke-miterlimit="10" points="556.25,408.5 547.75,421.25 587.75,419 
	598.75,406.25 "/>
<polyline fill="none" stroke="#000000" stroke-width="3" stroke-miterlimit="10" points="547.75,421.25 547.75,445.926 
	589.75,441.5 587.75,419 "/>
<polyline fill="none" stroke="#000000" stroke-width="3" stroke-miterlimit="10" points="589.75,441.5 603.25,430.25 
	601.75,405.071 "/>
<line fill="none" stroke="#000000" stroke-width="3" stroke-miterlimit="10" x1="555" y1="432" x2="555" y2="440"/>
<line fill="none" stroke="#000000" stroke-width="3" stroke-miterlimit="10" x1="551.5" y1="436" x2="560" y2="436"/>
<line fill="none" stroke="#000000" stroke-width="3" stroke-miterlimit="10" x1="576.5" y1="434.963" x2="583.25" y2="434.963"/>
<path fill="none" stroke="#000000" stroke-width="2" stroke-miterlimit="10" d="M564.75,402v10.5c0,0-10.834,14.25,7.583,26.25
	s5.417,8.25,4.167,10c0,0-7.75,5.5,6.75,4.5"/>
<line fill="none" stroke="#000000" stroke-width="3" stroke-miterlimit="10" x1="581.75" y1="402" x2="581.75" y2="412.5"/>
<ellipse cx="565" cy="402.785" rx="5" ry="2.286"/>
<ellipse cx="581.75" cy="401.768" rx="6.625" ry="2.482"/>
<path fill="none" stroke="#000000" stroke-width="2" stroke-miterlimit="10" d="M584.75,413.75c0,0,19.747,13.447,18.5,29.25
	s7.75,13.816,10,8.408"/>
<path fill="none" stroke="#000000" stroke-width="2" stroke-miterlimit="10" d="M502.662,417.75L489.75,440
	c0,0,13.75-2.25,19.25,3.25c0,0,6.25-18.25,10.5-22S502.662,417.75,502.662,417.75z"/>
<line fill="none" stroke="#000000" stroke-width="2" stroke-miterlimit="10" x1="487.5" y1="440" x2="502.662" y2="414.75"/>
<path fill="none" stroke="#000000" stroke-width="2" stroke-miterlimit="10" d="M510.5,445.926
	c8.351-16.994,7.992-17.032,9.565-18.874"/>
<path fill="none" stroke="#000000" stroke-miterlimit="10" d="M519.5,427.052c0,0-2.119-0.177,0.565-5.302"/>
<path fill="none" stroke="#000000" stroke-miterlimit="10" d="M511.25,445.926c0,0-11.125-3.926-22.5-5.051"/>
<polyline fill="none" stroke="#042735" stroke-miterlimit="10" points="502.662,423.875 504.908,421.75 504.908,423.875 
	507.625,421.75 508.125,423.875 510.5,422.813 510.5,424.4 "/>
<polyline fill="none" stroke="#042735" stroke-miterlimit="10" points="497.375,433.625 498.5,432 499.5,434.549 501.375,432 
	501.375,434 503.25,433.274 503.875,434.963 505.875,433.481 506.581,436 "/>
<path fill="#34352C" d="M653.334,407.501c-4.32,0.082-9.33,1.173-14.225,1.62c0.048-0.783-0.43-1.611-1.442-1.62
	c-2.735-0.024-5.75-0.649-8.396,0.287c-0.34,0.12-0.643,0.27-0.914,0.439c-0.429-0.157-0.854-0.323-1.267-0.521
	c-0.518-0.248-1.157-0.196-1.627,0.094c-0.655-0.452-1.606-0.457-2.093,0.444c-1.588,2.946-0.656,4.835,1.576,6.021
	c0,0.029,0,0.06,0,0.09c-1.919,2.521-0.955,8.076-0.779,11.625c-0.162,1.679-0.33,3.367-0.481,5.08
	c-0.434,4.885,1.232,7.516,6.059,8.514c3.358,0.695,7.159,0.713,10.842,0.523c3.362,1.149,6.728,1.8,9.802,0.193
	c0.783-0.409,1.332-1.093,1.721-1.938c0.538-0.172,0.998-0.612,1.058-1.352c0.063-0.782,0.064-1.491,0-2.161v-6.434
	c1.028-5.831,1.386-12.077,0.132-17.904c0.012,0,0.023-0.001,0.035-0.001C655.266,410.464,655.27,407.464,653.334,407.501z
	 M642.399,435.632c0.275-0.088,0.553-0.169,0.823-0.271c1.701-0.397,3.198-0.985,4.201-1.732c0.027-0.02,0.041-0.045,0.066-0.065
	l0.02,0.023C646.381,434.673,644.494,435.291,642.399,435.632z"/>
<path fill="#ADC13A" d="M654.167,401.334c-0.011-0.09-0.029-0.182-0.054-0.273c0.023-0.766-0.457-1.553-1.446-1.56
	c-8.139-0.054-18.249-1.707-25.757,2.205c-0.671,0.35-0.885,1.249-0.607,1.92c-0.302-0.021-0.604-0.03-0.904-0.071
	c-1.891-0.257-2.707,2.633-0.797,2.893c3.406,0.463,6.844,0.244,10.281-0.268C643.349,407.404,654.919,407.39,654.167,401.334z"/>
<path fill="none" stroke="#000000" stroke-width="3" stroke-miterlimit="10" d="M623.5,406v32.5c0,0,16.25,6.75,31.25,0v-34
	C654.75,404.5,651.5,410.5,623.5,406z"/>
<path fill="none" stroke="#000000" stroke-width="3" stroke-miterlimit="10" d="M623.5,404.5c0,0,4.75-9,32.5-4.25"/>
<line fill="none" stroke="#000000" stroke-width="3" stroke-miterlimit="10" x1="643.25" y1="401.683" x2="643.25" y2="392.75"/>
<line fill="none" stroke="#000000" stroke-width="3" stroke-miterlimit="10" x1="634.5" y1="401.683" x2="634.5" y2="395.25"/>
<line fill="none" stroke="#000000" stroke-miterlimit="10" x1="660.25" y1="437" x2="656" y2="439.054"/>
<path opacity="0.8" fill="#3CB3BF" d="M540.287,392.896c-0.027-0.056-0.067-0.095-0.098-0.147c1.387-0.469,1.215-2.888-0.522-2.915
	c-1.451-0.022-2.882-0.311-4.333-0.333c-0.571-0.009-0.969,0.249-1.203,0.613c-2.612-0.551-5.058-1.11-7.863-0.56
	c-2.782,0.547-3.865,3.794-6.37,4.488c-0.41,0.052-0.82,0.103-1.23,0.125c-1.938,0.104-1.929,2.878,0,3
	c0.911,0.058,1.696-0.043,2.425-0.279c0.245-0.041,0.488-0.089,0.731-0.137c-0.028,0.041-0.059,0.075-0.088,0.118
	c-0.044,0.006-0.089,0.012-0.134,0.018c-1.361,0.186-1.361,2.141-0.358,2.741c0.931,0.558,2.337,1.174,3.962,1.72
	c-0.013,0.256,0.031,0.51,0.145,0.735c-0.912,0.732-1.899,1.332-3.082,1.804c-1.444,0.577-1.425,3.098,0.399,2.946
	c5.394-0.447,10.58-2.18,16-2.333c1.753-0.049,1.907-2.398,0.491-2.898c0.185-0.12,0.354-0.275,0.471-0.512
	c0.135-0.271,0.268-0.559,0.398-0.854c0.098-0.152,0.188-0.311,0.268-0.479c0.082-0.173,0.128-0.357,0.152-0.542
	C541.364,396.804,541.847,394.055,540.287,392.896z M528.899,402.895c0.054-0.058,0.108-0.109,0.161-0.167
	c0.088-0.096,0.159-0.201,0.219-0.312c0.277,0.053,0.553,0.103,0.832,0.147c0.05,0.022,0.101,0.046,0.151,0.068
	C529.809,402.719,529.354,402.807,528.899,402.895z M529.794,394.951c-0.673,0.259-1.487,0.62-2.343,0.925
	c-0.027-0.184-0.086-0.362-0.171-0.528c1.366-0.388,2.735-0.765,4.121-1.049C530.861,394.523,530.326,394.746,529.794,394.951z"/>
<path opacity="0.8" fill="#3CB3BF" d="M537,384.167c-0.002,0-0.005,0.001-0.008,0.001c-0.165-0.3-0.465-0.533-0.926-0.614
	c-5.968-1.048-12.711-1.052-17.127,3.719c-1.313,1.417,0.805,3.544,2.121,2.121c3.643-3.935,9.303-3.808,14.207-2.947
	c0.17,0.029,0.327,0.026,0.479,0.008c0.225,0.411,0.641,0.713,1.254,0.713C538.935,387.167,538.935,384.167,537,384.167z"/>
<polyline points="517.441,391.285 517.104,388.135 520.203,387.375 525.167,386 523.302,390.186 519.646,393.022 "/>
<path fill="none" stroke="#000000" stroke-width="2" stroke-miterlimit="10" d="M516.625,393.022c0,0-3.75-15.897,25.25-7.147"/>
<path fill="none" stroke="#000000" stroke-width="5" stroke-miterlimit="10" d="M516.625,391.25c0,0,3.375,14.5,2.125,16.5
	s23.125-2.756,23.125-2.756l0.875-15.244"/>
<path fill="none" stroke="#000000" stroke-width="2" stroke-miterlimit="10" d="M542.688,390.394c0,0-13.438-4.144-23.563,2.981"/>
<path fill="none" stroke="#000000" stroke-width="2" stroke-miterlimit="10" d="M541.125,393.375c0,0-10.875-2.25-21.25,4.625"/>
<path fill="none" stroke="#000000" stroke-width="2" stroke-miterlimit="10" d="M539.875,398c0,0-17.895-1.628-19.375,3.375"/>
<path d="M529,398.901c0,0-3.25,0.724-3.375,2.474s3.5,1.125,5.875,0.75S521.125,406,521.125,406l-1.25-4.625l5.96-3.375"/>
<path d="M526.875,395.512c0,0,11.75-0.637,13-0.637s0-1.5,0-1.5H528.5"/>
<path d="M523.55,392.172l-2.05-2.977c-3.875-6.316,19.625-2.37,19.625-2.37"/>
<path fill="none" stroke="#070707" stroke-width="3" stroke-miterlimit="10" d="M368.342,363.625
	c-1.711,5.335-5.675,20.042,4.949,20.042c11.376,0,13.042-1.54,13.042-14.542C386.333,369.125,376.351,371.249,368.342,363.625z"/>
<path fill="none" stroke="#070700" stroke-width="3" stroke-miterlimit="10" d="M368.333,361.166l-0.022-6.305
	c0,0-5.592-4.58-6.905-11.236c-2.668-13.522-1.285-35.613,15.436-45.27c0.488-0.281,3.653-1.967,6.784-2.73
	c3.525-0.859,7.057-0.785,7.625-0.75c8.733,0.546,16.212,6.088,19.765,11.323c11.326,16.688-0.474,49.328-15.438,53.045
	l-7.643,8.371"/>
<path fill="none" stroke="#070707" stroke-width="2" stroke-miterlimit="10" d="M377.304,355.785
	c8.902-23.583,1.029-32.784,1.029-32.784"/>
<path fill="none" stroke="#070707" stroke-width="2" stroke-miterlimit="10" d="M397.667,328.667
	c-2.459,1.914-10.75,4.578-14.463,16.333c-1.076,3.405-1.604,4.761-1.658,10.785"/>
<polyline fill="none" stroke="#F9E70B" stroke-miterlimit="10" points="379,323.001 379.628,320.625 381.875,323.001 
	384.125,321.25 385.25,323.001 387.934,318.5 388.647,324.337 390.625,321.25 391.375,324.337 392.75,323.313 393.25,325.375 
	395.5,323.313 396.25,326.625 398.5,324.875 397.667,328.125 "/>
<path fill="none" stroke="#F7F006" stroke-width="3" stroke-miterlimit="10" d="M356.677,254.482"/>
<path fill="none" stroke="#070700" stroke-width="0.5" stroke-miterlimit="10" stroke-opacity="0.3" d="M393.625,296.375
	c0,0-22.739,4.344-27.441,24.437c-1.121,4.785-2.567,12.319-1.356,20.279c0.689,4.528,3.038,9.033,4.798,13.652"/>
<polyline fill="none" stroke="#070700" stroke-width="0.25" stroke-miterlimit="10" stroke-opacity="0.3" points="378.667,323.001 
	379.425,319.917 381.546,321.917 383.917,320.584 385.167,321.459 387.934,317.334 389.084,322.167 390.501,320.168 
	391.501,323.001 392.751,322.334 393.501,324.073 395.501,322.501 396.584,325.667 399.001,324.073 398.5,328.125 "/>
<polyline fill="none" stroke="#070700" stroke-width="0.25" stroke-miterlimit="10" stroke-opacity="0.3" points="379.425,323.001 
	379.425,321.834 381.546,323.313 383.834,321.834 385.167,323.313 387.584,320.251 388.334,324.834 389.797,322.543 391,324.834 
	392.299,323.648 393.25,325.375 395.167,324.337 396.001,327.084 397.667,326.167 "/>
<polyline fill="none" stroke="#070707" stroke-width="2" stroke-miterlimit="10" points="383.204,354.861 380.834,359.243 
	376.258,358.5 374.869,354.861 "/>
<line fill="none" stroke="#070707" stroke-miterlimit="10" x1="376.258" y1="358.5" x2="374.869" y2="366.49"/>
<line fill="none" stroke="#070707" stroke-miterlimit="10" x1="378.359" y1="358.842" x2="377.304" y2="366.49"/>
<line fill="none" stroke="#070707" stroke-miterlimit="10" x1="380.469" y1="359.184" x2="379.425" y2="367.981"/>
<path fill="none" stroke="#070707" stroke-width="3" stroke-miterlimit="10" d="M386.004,376.15c0,0-19.621-0.309-19.018-5.15"/>
<path fill="none" stroke="#F7E60F" stroke-width="2" stroke-miterlimit="10" stroke-opacity="0.6" d="M367.539,299.199"/>
<path fill="none" stroke="#F7E60F" stroke-width="3" stroke-miterlimit="10" d="M377.304,262.698"/>
<path fill="none" stroke="#F7E60F" stroke-width="2" stroke-miterlimit="10" stroke-opacity="0.6" d="M419,300"/>
<path fill="none" stroke="#000000" stroke-width="2" stroke-miterlimit="10" d="M359.5,426.824l2.167-14.289
	c0,0-12.667-6.545-12.917-9.878s-0.961-12.765,5.083-21.833c0,0-4.333-8.5-8.583-11.833c-4.25-3.333,4.237-13.5,15.16-4.667
	s-4.744,21.166-3.077,25.333s9,3.852,14.5,2.093l1-6.093c0,0,11.485-2.418,14.833,4.834l7-9.334c0,0-9.667-5.815-7-10.157
	c2.667-4.342,3.5-5.658,8.667-5s2,7.324,2,7.324L404,379c0,0,6-2.5-16,18.25l-0.5,10c0,0-2.27,8.281-17.5,4.766
	c0,0-5.026,10.484-3.013,19.984"/>
<path fill="none" stroke="#000000" stroke-width="2" stroke-miterlimit="10" d="M388,397.25l-3.75-3.75L372,396.401
	c0,0-2,4.394,1.25,7.621s6.445-2.022,6.445-2.022v-4.75"/>
<line fill="none" stroke="#000000" stroke-width="2" stroke-miterlimit="10" x1="371.833" y1="391.75" x2="372" y2="396.401"/>
<path fill="none" stroke="#000000" stroke-width="2" stroke-miterlimit="10" d="M284,574.668c0,0-36.333,21.665-43.667,24.999
	s13.167,8.666,18,7s30.167-17.5,30.167-21.833s7.833,2,8.833,0.5s-0.12-8.837-2.083-9"/>
<path fill="none" stroke="#000000" stroke-width="2" stroke-miterlimit="10" d="M314.667,569.326c0,0-6.183,12.104,3.833,6.175
	c0,0,35,16.648,44.333,15.324s18.5-7.99,16.667-11.824s-25.5,2-51.667-12.667"/>
<path fill="none" stroke="#000000" stroke-width="2" stroke-miterlimit="10" d="M279.012,512.83c0,0,11.592,22.173,4.988,61.838
	c0,0,2.834,6.833,10.167,0.833c0,0-5.5-47.517-2-53.092"/>
<path fill="none" stroke="#000000" stroke-width="2" stroke-miterlimit="10" d="M317.5,522.743c0,0,4.687,23.884-3.601,46.425
	c0,0,12.102,1.166,12.935-2.834c0,0-1.981-53.459,1-63.227"/>
<path fill="none" stroke="#000000" stroke-width="2" stroke-miterlimit="10" d="M291,521.76c0,0,4.126-11.012,8.5-13.76"/>
<path fill="none" stroke="#000000" stroke-width="2" stroke-miterlimit="10" d="M318.5,522.743c0,0,3.167-11.919,0-16.247"/>
<path fill="none" stroke="#000000" stroke-width="3" stroke-miterlimit="10" d="M283.157,391.75l-6.657,7.5c0,0,16.167-2,25.583,8
	v-10.581"/>
<path fill="none" stroke="#000000" stroke-width="3" stroke-miterlimit="10" d="M309.25,396.669v10.581
	c0,0,10.75-13.662,22.25-10.581c0,0-6.146-5.861-5.25-9.419"/>
<path fill="none" stroke="#000000" stroke-width="3" stroke-miterlimit="10" d="M302.083,409.75c0,0-6.77-9.5-18.927,0
	c0,0,1.343,19.75,7.343,17.75c0,0,0.25,3.67,14-10.915"/>
<path fill="none" stroke="#000000" stroke-width="3" stroke-miterlimit="10" d="M309.25,409.5c0,0,7.417-8.945,15.083-3.973
	c0,0,0.917,14.973-3.958,15.473s-10.125-3.061-10.375-4.28"/>
<path d="M304.5,415.5c0,0-2.75-10.75,2.75-8.25s1.25,7.03,2,8.25S305.051,418.523,304.5,415.5z"/>
<path fill="none" stroke="#000000" stroke-width="2" stroke-miterlimit="10" d="M293.828,412.535c0,0,2.339,2.215,8.255,1.715"/>
<path fill="none" stroke="#000000" stroke-width="2" stroke-miterlimit="10" d="M316.826,410.75c0,0-2.347,3.146-6.711,3.573"/>
<path fill="none" stroke="#000000" stroke-width="2" stroke-miterlimit="10" d="M302.083,419.104c0,0-26.833,104.396-27.333,110.896
	s-11.25-9.75-11.25-9.75l3.5-23l-6.75-9.75l12.5-9.75c0,0-17.064-0.819-20.5-12.5l40.5-37.339"/>
<path fill="none" stroke="#000000" stroke-width="2" stroke-miterlimit="10" d="M267,497.25c0,0,7-0.75,8-7"/>
<polyline fill="none" stroke="#000000" stroke-width="2" stroke-miterlimit="10" points="272.165,477.706 277.167,465 
	272.165,461.25 280,453.875 "/>
<path fill="none" stroke="#000000" stroke-width="2" stroke-miterlimit="10" d="M277.167,465c0,0,4.356-15.953,2.083-19.25
	s12.5,0,12.5,0s-0.269-8.25-3.75-9.25s9.956-7.25,9.956-7.25"/>
<path fill="none" stroke="#000000" stroke-width="2" stroke-miterlimit="10" d="M313.471,421.048c0,0,20.529,106.702,19.279,108.202
	s8.5,4,8-3.25s-14.25-41-12-44s0.647-24.794,7.75-39c0,0-7.5,1-11-0.25s4.5-13.5,4.5-13.5l-7.75-8.202"/>
<path fill="none" stroke="#000000" stroke-width="2" stroke-miterlimit="10" d="M324.904,481.768c0,0,13.633,17.482,15.864,15.482
	s-2.769,3.5-6.019,3.5"/>
<path fill="none" stroke="#000000" stroke-width="2" stroke-miterlimit="10" d="M332.528,455.058c0,0,24.972,16.942,25.972,15.692
	s10.75-21.25,8-23.75s-13.75-15-13.75-15s-4.627,0.955-4,17.5s3.5,9.25,4.25,9.25"/>
<path fill="none" stroke="#000000" stroke-width="2" stroke-miterlimit="10" d="M348.75,449.5c0,0-16.7-16.065-19-16"/>
<polyline fill="none" stroke="#000000" stroke-width="2" stroke-miterlimit="10" points="311.333,420.167 305.667,448.052 
	310.115,453.5 306.964,460.667 311.333,466 305.667,475.319 311.333,480.833 304.5,490.25 318.167,500.75 326.834,492.335 "/>
<polyline fill="none" stroke="#000000" stroke-width="2" stroke-miterlimit="10" points="310.115,495.667 302.083,508 
	283.157,493.917 "/>
<polyline fill="none" stroke="#000000" stroke-width="2" stroke-miterlimit="10" points="365.401,445.926 366.987,433.5 
	353.833,424 353.833,432 "/>
<line fill="none" stroke="#000000" stroke-width="2" stroke-miterlimit="10" x1="307.438" y1="444.667" x2="316.826" y2="439.334"/>
<line fill="none" stroke="#000000" stroke-width="2" stroke-miterlimit="10" x1="296.91" y1="439.334" x2="305.5" y2="444.667"/>
<line fill="none" stroke="#000000" stroke-width="2" stroke-miterlimit="10" x1="307.438" y1="439.334" x2="302.667" y2="420.167"/>
<path fill="none" stroke="#000000" stroke-width="2" stroke-miterlimit="10" d="M303.393,505.988c0,0,17.107,2.454,25.274-3.434"/>
<path fill="none" stroke="#000000" stroke-width="2" stroke-miterlimit="10" d="M275.696,525.043c0,0,3.137-3.21,5.637-2.543"/>
<path fill="none" stroke="#000000" stroke-width="2" stroke-miterlimit="10" d="M292.167,522.409c0,0,19.5-2.125,25.333,1.316"/>
<path fill="none" stroke="#000000" stroke-width="2" stroke-miterlimit="10" d="M327.833,522.743c0,0,3.167,1.427,4.667,3.009"/>
<ellipse cx="312.917" cy="460.246" rx="1.75" ry="1.584"/>
<ellipse cx="313.9" cy="475.102" rx="1.767" ry="2.604"/>
<ellipse cx="312.391" cy="490.496" rx="2.276" ry="2.167"/>
<path fill="none" stroke="#000000" stroke-miterlimit="10" d="M280,454.625c0,0,1.5,15.375,0,16.875"/>
<path fill="none" stroke="#000000" stroke-width="3" stroke-miterlimit="10" d="M272.25,243.75c0,0-43.583,113.25-17.25,124.583
	c0,0,17-0.667,28,22c0,0,20.667,17.667,43-6c0,0,16-8.667,18.667-14.667c0,0-1.333-7.333,5-9s-35-115.333-35-115.333"/>
<path fill="none" stroke="#020102" stroke-miterlimit="10" d="M277.667,235.667c0,0,8.666-8.344,19.368-6.359
	c5.42,1.005,11.362,5.402,16.965,13.359"/>
<path fill="none" stroke="#020102" stroke-width="2" stroke-miterlimit="10" d="M292.333,257.333c0,0-1.333,4.333,0,10
	c0,0-10.667,58-9,61s15.333,12,16.667,12.333s6,4,12-19.667l-12.333-44.667c0,0-2.178-1-2.089-6"/>
<path fill="#FFFFFF" stroke="#000000" stroke-width="2" stroke-miterlimit="10" d="M290.633,276.779c0,0-5.32,3.112-7.477,0"/>
<path fill="#FFFFFF" stroke="#000000" stroke-width="2" stroke-miterlimit="10" d="M299.667,276.333c0,0,2.333,3.333,5.667,0"/>
<polyline fill="#EF9EAC" stroke="#0C0607" stroke-width="2" stroke-miterlimit="10" points="270.667,343.667 263.667,354.333 
	270.667,362.333 "/>
<polyline fill="none" stroke="#000000" stroke-width="3" stroke-miterlimit="10" points="324.333,336.333 338.667,350.333 
	329.333,358 "/>
<path fill="#EF9EAC" stroke="#020101" stroke-width="2" stroke-miterlimit="10" d="M267.167,355.667c0,0,10.833,8.333,32.5,0
	c0,0,20.333-11.667,37.333-5.667"/>
<path fill="#FFFFFF" stroke="#000000" stroke-width="3" stroke-miterlimit="10" d="M302.5,366c0,0,3.833-6,9.5-8"/>
<path fill="none" stroke="#000000" stroke-width="3" stroke-miterlimit="10" d="M300,340.667c0,0-2.667,10.667,2.5,9"/>
<path d="M289.5,259.75c0,0-21.666-6.409-18.833-25.08c0,0,11.896,6.83,12.49,4.83s8.093,17.25,6.343,19.25"/>
<path d="M298.3,261.25c0,0,1.45-15,4.2-15.75s8.75,2,12.25-6.75S320.85,257,298.3,261.25z"/>
<path fill="none" stroke="#000000" stroke-width="2" stroke-miterlimit="10" d="M290.633,267.25C286.767,272,276.25,269,276.25,269
	c6-10.75,14.383-7.75,14.383-7.75"/>
<path fill="none" stroke="#000000" stroke-width="2" stroke-miterlimit="10" d="M302.083,267.25c7.083,6.75,16.417,1.25,16.417,1.25
	c-4-6.75-16-5.75-16-5.75"/>
<path fill="none" stroke="#000000" stroke-width="2" stroke-miterlimit="10" d="M286.895,269.488"/>
<path fill="none" stroke="#000000" stroke-width="2" stroke-miterlimit="10" d="M248,279.75c0,0,6.5,13.75-7.75,31.25
	c0,0-4.602,8.75,10.949,0"/>
<path fill="none" stroke="#000000" stroke-width="2" stroke-miterlimit="10" d="M257.75,286.539c0,0-5.352-6.789-6.551-13.039
	s-1.248,3.289-4.974,6.52c0,0,3.011-12.02-0.819-12.02c0,0-0.929,3.75-5.793,7s1.136-26.233,4.136-25.867s-5.973,0-5.973,0
	S251,238.5,256.5,239.5s-5.799-5.218-10.274-2.484s5.631-2.346,15.774-2.346c0,0-1.75-4.67-7.75-4.92s15.084-6.25,23.417,1.5
	S268.063,217,300.906,217c0,0-6.406,2-8.156,4s5.924-8.837,37.5,16.016c0,0,6.75,5.075,19-2.346c0,0-2,7.58-5,10.83
	s8-2.718,9.5-8.484c0,0-3.376,16.234-9.25,14.753c0,0,4,4.897,8-1.436c0,0-8.75,23.167-24,29.417"/>
<path fill="none" stroke="#000000" stroke-width="2" stroke-miterlimit="10" d="M335.75,277.074c0,0-1.25,18.426,9.5,29.176
	c0,0-1.666,4.5-6.583,2"/>
<ellipse cx="289.764" cy="265.4" rx="2.623" ry="3.737"/>
<ellipse fill="#050505" cx="312" cy="266.655" rx="4.194" ry="3.051"/>
<path fill="none" stroke="#000000" stroke-width="2" stroke-miterlimit="10" d="M254.167,294.333c0,0,1.833,3.333-4.5,5.667"/>
<path fill="none" stroke="#000000" stroke-width="2" stroke-miterlimit="10" d="M303.083,262.698c0,0,1.167,3.613-0.583,4.958"/>
<path fill="#EF9EAC" stroke="#020102" stroke-width="2" stroke-miterlimit="10" d="M332.917,297.167
	c0.763,1.191,5.321,4.143,4.75,4.5"/>
<path opacity="0.7" fill="#EF9EAC" d="M291.151,279.32l8.161-1.158L311,321.335c0,0-3.667,15.329-8.917,19.331
	c0,0-18.917-11.752-17.75-12.542S280.802,332.304,291.151,279.32z"/>
</svg>
